<?xml version="1.0" encoding="utf-8" standalone="no"?>
<!DOCTYPE svg PUBLIC "-//W3C//DTD SVG 1.1//EN"
  "http://www.w3.org/Graphics/SVG/1.1/DTD/svg11.dtd">
<svg xmlns:xlink="http://www.w3.org/1999/xlink" width="720pt" height="144pt" viewBox="0 0 720 144" xmlns="http://www.w3.org/2000/svg" version="1.1">
 <metadata>
  <rdf:RDF xmlns:dc="http://purl.org/dc/elements/1.1/" xmlns:cc="http://creativecommons.org/ns#" xmlns:rdf="http://www.w3.org/1999/02/22-rdf-syntax-ns#">
   <cc:Work>
    <dc:type rdf:resource="http://purl.org/dc/dcmitype/StillImage"/>
    <dc:date>2023-05-09T14:39:51.189480</dc:date>
    <dc:format>image/svg+xml</dc:format>
    <dc:creator>
     <cc:Agent>
      <dc:title>Matplotlib v3.7.1, https://matplotlib.org/</dc:title>
     </cc:Agent>
    </dc:creator>
   </cc:Work>
  </rdf:RDF>
 </metadata>
 <defs>
  <style type="text/css">*{stroke-linejoin: round; stroke-linecap: butt}</style>
 </defs>
 <g id="figure_1">
  <g id="patch_1">
   <path d="M 0 144 
L 720 144 
L 720 0 
L 0 0 
z
" style="fill: #ffffff"/>
  </g>
  <g id="axes_1">
   <g id="patch_2">
    <path d="M 90 128.16 
L 648 128.16 
L 648 17.28 
L 90 17.28 
z
" style="fill: #ffffff"/>
   </g>
   <g id="patch_3">
    <path d="M 115.363636 128.16 
L 120.487603 128.16 
L 120.487603 122.981483 
L 115.363636 122.981483 
z
" clip-path="url(#pbbad988a22)"/>
   </g>
   <g id="patch_4">
    <path d="M 120.487603 128.16 
L 125.61157 128.16 
L 125.61157 123.560872 
L 120.487603 123.560872 
z
" clip-path="url(#pbbad988a22)"/>
   </g>
   <g id="patch_5">
    <path d="M 125.61157 128.16 
L 130.735537 128.16 
L 130.735537 123.902748 
L 125.61157 123.902748 
z
" clip-path="url(#pbbad988a22)"/>
   </g>
   <g id="patch_6">
    <path d="M 130.735537 128.16 
L 135.859504 128.16 
L 135.859504 121.966652 
L 130.735537 121.966652 
z
" clip-path="url(#pbbad988a22)"/>
   </g>
   <g id="patch_7">
    <path d="M 135.859504 128.16 
L 140.983471 128.16 
L 140.983471 123.380938 
L 135.859504 123.380938 
z
" clip-path="url(#pbbad988a22)"/>
   </g>
   <g id="patch_8">
    <path d="M 140.983471 128.16 
L 146.107438 128.16 
L 146.107438 123.026467 
L 140.983471 123.026467 
z
" clip-path="url(#pbbad988a22)"/>
   </g>
   <g id="patch_9">
    <path d="M 146.107438 128.16 
L 151.231405 128.16 
L 151.231405 123.395333 
L 146.107438 123.395333 
z
" clip-path="url(#pbbad988a22)"/>
   </g>
   <g id="patch_10">
    <path d="M 151.231405 128.16 
L 156.355372 128.16 
L 156.355372 122.985082 
L 151.231405 122.985082 
z
" clip-path="url(#pbbad988a22)"/>
   </g>
   <g id="patch_11">
    <path d="M 156.355372 128.16 
L 161.479339 128.16 
L 161.479339 122.752966 
L 156.355372 122.752966 
z
" clip-path="url(#pbbad988a22)"/>
   </g>
   <g id="patch_12">
    <path d="M 161.479339 128.16 
L 166.603306 128.16 
L 166.603306 122.286936 
L 161.479339 122.286936 
z
" clip-path="url(#pbbad988a22)"/>
   </g>
   <g id="patch_13">
    <path d="M 166.603306 128.16 
L 171.727273 128.16 
L 171.727273 122.529847 
L 166.603306 122.529847 
z
" clip-path="url(#pbbad988a22)"/>
   </g>
   <g id="patch_14">
    <path d="M 171.727273 128.16 
L 176.85124 128.16 
L 176.85124 122.544242 
L 171.727273 122.544242 
z
" clip-path="url(#pbbad988a22)"/>
   </g>
   <g id="patch_15">
    <path d="M 176.85124 128.16 
L 181.975207 128.16 
L 181.975207 121.757928 
L 176.85124 121.757928 
z
" clip-path="url(#pbbad988a22)"/>
   </g>
   <g id="patch_16">
    <path d="M 181.975207 128.16 
L 187.099174 128.16 
L 187.099174 122.646805 
L 181.975207 122.646805 
z
" clip-path="url(#pbbad988a22)"/>
   </g>
   <g id="patch_17">
    <path d="M 187.099174 128.16 
L 192.22314 128.16 
L 192.22314 119.337808 
L 187.099174 119.337808 
z
" clip-path="url(#pbbad988a22)"/>
   </g>
   <g id="patch_18">
    <path d="M 192.22314 128.16 
L 197.347107 128.16 
L 197.347107 121.734537 
L 192.22314 121.734537 
z
" clip-path="url(#pbbad988a22)"/>
   </g>
   <g id="patch_19">
    <path d="M 197.347107 128.16 
L 202.471074 128.16 
L 202.471074 122.657601 
L 197.347107 122.657601 
z
" clip-path="url(#pbbad988a22)"/>
   </g>
   <g id="patch_20">
    <path d="M 202.471074 128.16 
L 207.595041 128.16 
L 207.595041 122.076412 
L 202.471074 122.076412 
z
" clip-path="url(#pbbad988a22)"/>
   </g>
   <g id="patch_21">
    <path d="M 207.595041 128.16 
L 212.719008 128.16 
L 212.719008 121.646369 
L 207.595041 121.646369 
z
" clip-path="url(#pbbad988a22)"/>
   </g>
   <g id="patch_22">
    <path d="M 212.719008 128.16 
L 217.842975 128.16 
L 217.842975 123.145224 
L 212.719008 123.145224 
z
" clip-path="url(#pbbad988a22)"/>
   </g>
   <g id="patch_23">
    <path d="M 217.842975 128.16 
L 222.966942 128.16 
L 222.966942 123.508691 
L 217.842975 123.508691 
z
" clip-path="url(#pbbad988a22)"/>
   </g>
   <g id="patch_24">
    <path d="M 222.966942 128.16 
L 228.090909 128.16 
L 228.090909 122.144787 
L 222.966942 122.144787 
z
" clip-path="url(#pbbad988a22)"/>
   </g>
   <g id="patch_25">
    <path d="M 228.090909 128.16 
L 233.214876 128.16 
L 233.214876 122.587426 
L 228.090909 122.587426 
z
" clip-path="url(#pbbad988a22)"/>
   </g>
   <g id="patch_26">
    <path d="M 233.214876 128.16 
L 238.338843 128.16 
L 238.338843 121.412454 
L 233.214876 121.412454 
z
" clip-path="url(#pbbad988a22)"/>
   </g>
   <g id="patch_27">
    <path d="M 238.338843 128.16 
L 243.46281 128.16 
L 243.46281 121.129956 
L 238.338843 121.129956 
z
" clip-path="url(#pbbad988a22)"/>
   </g>
   <g id="patch_28">
    <path d="M 243.46281 128.16 
L 248.586777 128.16 
L 248.586777 122.675594 
L 243.46281 122.675594 
z
" clip-path="url(#pbbad988a22)"/>
   </g>
   <g id="patch_29">
    <path d="M 248.586777 128.16 
L 253.710744 128.16 
L 253.710744 122.30133 
L 248.586777 122.30133 
z
" clip-path="url(#pbbad988a22)"/>
   </g>
   <g id="patch_30">
    <path d="M 253.710744 128.16 
L 258.834711 128.16 
L 258.834711 121.09217 
L 253.710744 121.09217 
z
" clip-path="url(#pbbad988a22)"/>
   </g>
   <g id="patch_31">
    <path d="M 258.834711 128.16 
L 263.958678 128.16 
L 263.958678 122.011636 
L 258.834711 122.011636 
z
" clip-path="url(#pbbad988a22)"/>
   </g>
   <g id="patch_32">
    <path d="M 263.958678 128.16 
L 269.082645 128.16 
L 269.082645 121.8353 
L 263.958678 121.8353 
z
" clip-path="url(#pbbad988a22)"/>
   </g>
   <g id="patch_33">
    <path d="M 269.082645 128.16 
L 274.206612 128.16 
L 274.206612 121.173141 
L 269.082645 121.173141 
z
" clip-path="url(#pbbad988a22)"/>
   </g>
   <g id="patch_34">
    <path d="M 274.206612 128.16 
L 279.330579 128.16 
L 279.330579 123.382737 
L 274.206612 123.382737 
z
" clip-path="url(#pbbad988a22)"/>
   </g>
   <g id="patch_35">
    <path d="M 279.330579 128.16 
L 284.454545 128.16 
L 284.454545 119.670687 
L 279.330579 119.670687 
z
" clip-path="url(#pbbad988a22)"/>
   </g>
   <g id="patch_36">
    <path d="M 284.454545 128.16 
L 289.578512 128.16 
L 289.578512 120.739498 
L 284.454545 120.739498 
z
" clip-path="url(#pbbad988a22)"/>
   </g>
   <g id="patch_37">
    <path d="M 289.578512 128.16 
L 294.702479 128.16 
L 294.702479 123.089444 
L 289.578512 123.089444 
z
" clip-path="url(#pbbad988a22)"/>
   </g>
   <g id="patch_38">
    <path d="M 294.702479 128.16 
L 299.826446 128.16 
L 299.826446 124.111472 
L 294.702479 124.111472 
z
" clip-path="url(#pbbad988a22)"/>
   </g>
   <g id="patch_39">
    <path d="M 299.826446 128.16 
L 304.950413 128.16 
L 304.950413 119.868615 
L 299.826446 119.868615 
z
" clip-path="url(#pbbad988a22)"/>
   </g>
   <g id="patch_40">
    <path d="M 304.950413 128.16 
L 310.07438 128.16 
L 310.07438 52.083664 
L 304.950413 52.083664 
z
" clip-path="url(#pbbad988a22)"/>
   </g>
   <g id="patch_41">
    <path d="M 310.07438 128.16 
L 315.198347 128.16 
L 315.198347 22.56 
L 310.07438 22.56 
z
" clip-path="url(#pbbad988a22)"/>
   </g>
   <g id="patch_42">
    <path d="M 315.198347 128.16 
L 320.322314 128.16 
L 320.322314 119.271232 
L 315.198347 119.271232 
z
" clip-path="url(#pbbad988a22)"/>
   </g>
   <g id="patch_43">
    <path d="M 320.322314 128.16 
L 325.446281 128.16 
L 325.446281 99.681756 
L 320.322314 99.681756 
z
" clip-path="url(#pbbad988a22)"/>
   </g>
   <g id="patch_44">
    <path d="M 325.446281 128.16 
L 330.570248 128.16 
L 330.570248 80.520523 
L 325.446281 80.520523 
z
" clip-path="url(#pbbad988a22)"/>
   </g>
   <g id="patch_45">
    <path d="M 330.570248 128.16 
L 335.694215 128.16 
L 335.694215 121.176739 
L 330.570248 121.176739 
z
" clip-path="url(#pbbad988a22)"/>
   </g>
   <g id="patch_46">
    <path d="M 335.694215 128.16 
L 340.818182 128.16 
L 340.818182 92.529357 
L 335.694215 92.529357 
z
" clip-path="url(#pbbad988a22)"/>
   </g>
   <g id="patch_47">
    <path d="M 340.818182 128.16 
L 345.942149 128.16 
L 345.942149 83.242933 
L 340.818182 83.242933 
z
" clip-path="url(#pbbad988a22)"/>
   </g>
   <g id="patch_48">
    <path d="M 345.942149 128.16 
L 351.066116 128.16 
L 351.066116 122.049422 
L 345.942149 122.049422 
z
" clip-path="url(#pbbad988a22)"/>
   </g>
   <g id="patch_49">
    <path d="M 351.066116 128.16 
L 356.190083 128.16 
L 356.190083 87.408419 
L 351.066116 87.408419 
z
" clip-path="url(#pbbad988a22)"/>
   </g>
   <g id="patch_50">
    <path d="M 356.190083 128.16 
L 361.31405 128.16 
L 361.31405 94.136172 
L 356.190083 94.136172 
z
" clip-path="url(#pbbad988a22)"/>
   </g>
   <g id="patch_51">
    <path d="M 361.31405 128.16 
L 366.438017 128.16 
L 366.438017 123.157819 
L 361.31405 123.157819 
z
" clip-path="url(#pbbad988a22)"/>
   </g>
   <g id="patch_52">
    <path d="M 366.438017 128.16 
L 371.561983 128.16 
L 371.561983 83.419269 
L 366.438017 83.419269 
z
" clip-path="url(#pbbad988a22)"/>
   </g>
   <g id="patch_53">
    <path d="M 371.561983 128.16 
L 376.68595 128.16 
L 376.68595 80.857001 
L 371.561983 80.857001 
z
" clip-path="url(#pbbad988a22)"/>
   </g>
   <g id="patch_54">
    <path d="M 376.68595 128.16 
L 381.809917 128.16 
L 381.809917 118.742225 
L 376.68595 118.742225 
z
" clip-path="url(#pbbad988a22)"/>
   </g>
   <g id="patch_55">
    <path d="M 381.809917 128.16 
L 386.933884 128.16 
L 386.933884 102.821614 
L 381.809917 102.821614 
z
" clip-path="url(#pbbad988a22)"/>
   </g>
   <g id="patch_56">
    <path d="M 386.933884 128.16 
L 392.057851 128.16 
L 392.057851 102.66867 
L 386.933884 102.66867 
z
" clip-path="url(#pbbad988a22)"/>
   </g>
   <g id="patch_57">
    <path d="M 392.057851 128.16 
L 397.181818 128.16 
L 397.181818 122.670196 
L 392.057851 122.670196 
z
" clip-path="url(#pbbad988a22)"/>
   </g>
   <g id="patch_58">
    <path d="M 397.181818 128.16 
L 402.305785 128.16 
L 402.305785 101.472105 
L 397.181818 101.472105 
z
" clip-path="url(#pbbad988a22)"/>
   </g>
   <g id="patch_59">
    <path d="M 402.305785 128.16 
L 407.429752 128.16 
L 407.429752 99.336281 
L 402.305785 99.336281 
z
" clip-path="url(#pbbad988a22)"/>
   </g>
   <g id="patch_60">
    <path d="M 407.429752 128.16 
L 412.553719 128.16 
L 412.553719 123.267579 
L 407.429752 123.267579 
z
" clip-path="url(#pbbad988a22)"/>
   </g>
   <g id="patch_61">
    <path d="M 412.553719 128.16 
L 417.677686 128.16 
L 417.677686 105.351494 
L 412.553719 105.351494 
z
" clip-path="url(#pbbad988a22)"/>
   </g>
   <g id="patch_62">
    <path d="M 417.677686 128.16 
L 422.801653 128.16 
L 422.801653 101.89855 
L 417.677686 101.89855 
z
" clip-path="url(#pbbad988a22)"/>
   </g>
   <g id="patch_63">
    <path d="M 422.801653 128.16 
L 427.92562 128.16 
L 427.92562 123.783991 
L 422.801653 123.783991 
z
" clip-path="url(#pbbad988a22)"/>
   </g>
   <g id="patch_64">
    <path d="M 427.92562 128.16 
L 433.049587 128.16 
L 433.049587 109.98121 
L 427.92562 109.98121 
z
" clip-path="url(#pbbad988a22)"/>
   </g>
   <g id="patch_65">
    <path d="M 433.049587 128.16 
L 438.173554 128.16 
L 438.173554 104.595769 
L 433.049587 104.595769 
z
" clip-path="url(#pbbad988a22)"/>
   </g>
   <g id="patch_66">
    <path d="M 438.173554 128.16 
L 443.297521 128.16 
L 443.297521 124.334591 
L 438.173554 124.334591 
z
" clip-path="url(#pbbad988a22)"/>
   </g>
   <g id="patch_67">
    <path d="M 443.297521 128.16 
L 448.421488 128.16 
L 448.421488 104.552585 
L 443.297521 104.552585 
z
" clip-path="url(#pbbad988a22)"/>
   </g>
   <g id="patch_68">
    <path d="M 448.421488 128.16 
L 453.545455 128.16 
L 453.545455 105.684373 
L 448.421488 105.684373 
z
" clip-path="url(#pbbad988a22)"/>
   </g>
   <g id="patch_69">
    <path d="M 453.545455 128.16 
L 458.669421 128.16 
L 458.669421 124.532519 
L 453.545455 124.532519 
z
" clip-path="url(#pbbad988a22)"/>
   </g>
   <g id="patch_70">
    <path d="M 458.669421 128.16 
L 463.793388 128.16 
L 463.793388 112.939335 
L 458.669421 112.939335 
z
" clip-path="url(#pbbad988a22)"/>
   </g>
   <g id="patch_71">
    <path d="M 463.793388 128.16 
L 468.917355 128.16 
L 468.917355 108.109891 
L 463.793388 108.109891 
z
" clip-path="url(#pbbad988a22)"/>
   </g>
   <g id="patch_72">
    <path d="M 468.917355 128.16 
L 474.041322 128.16 
L 474.041322 125.021941 
L 468.917355 125.021941 
z
" clip-path="url(#pbbad988a22)"/>
   </g>
   <g id="patch_73">
    <path d="M 474.041322 128.16 
L 479.165289 128.16 
L 479.165289 111.929902 
L 474.041322 111.929902 
z
" clip-path="url(#pbbad988a22)"/>
   </g>
   <g id="patch_74">
    <path d="M 479.165289 128.16 
L 484.289256 128.16 
L 484.289256 109.714907 
L 479.165289 109.714907 
z
" clip-path="url(#pbbad988a22)"/>
   </g>
   <g id="patch_75">
    <path d="M 484.289256 128.16 
L 489.413223 128.16 
L 489.413223 125.097514 
L 484.289256 125.097514 
z
" clip-path="url(#pbbad988a22)"/>
   </g>
   <g id="patch_76">
    <path d="M 489.413223 128.16 
L 494.53719 128.16 
L 494.53719 112.640643 
L 489.413223 112.640643 
z
" clip-path="url(#pbbad988a22)"/>
   </g>
   <g id="patch_77">
    <path d="M 494.53719 128.16 
L 499.661157 128.16 
L 499.661157 109.669924 
L 494.53719 109.669924 
z
" clip-path="url(#pbbad988a22)"/>
   </g>
   <g id="patch_78">
    <path d="M 499.661157 128.16 
L 504.785124 128.16 
L 504.785124 125.304438 
L 499.661157 125.304438 
z
" clip-path="url(#pbbad988a22)"/>
   </g>
   <g id="patch_79">
    <path d="M 504.785124 128.16 
L 509.909091 128.16 
L 509.909091 115.100349 
L 504.785124 115.100349 
z
" clip-path="url(#pbbad988a22)"/>
   </g>
   <g id="patch_80">
    <path d="M 509.909091 128.16 
L 515.033058 128.16 
L 515.033058 112.318561 
L 509.909091 112.318561 
z
" clip-path="url(#pbbad988a22)"/>
   </g>
   <g id="patch_81">
    <path d="M 515.033058 128.16 
L 520.157025 128.16 
L 520.157025 125.484373 
L 515.033058 125.484373 
z
" clip-path="url(#pbbad988a22)"/>
   </g>
   <g id="patch_82">
    <path d="M 520.157025 128.16 
L 525.280992 128.16 
L 525.280992 117.937917 
L 520.157025 117.937917 
z
" clip-path="url(#pbbad988a22)"/>
   </g>
   <g id="patch_83">
    <path d="M 525.280992 128.16 
L 530.404959 128.16 
L 530.404959 114.558746 
L 525.280992 114.558746 
z
" clip-path="url(#pbbad988a22)"/>
   </g>
   <g id="patch_84">
    <path d="M 530.404959 128.16 
L 535.528926 128.16 
L 535.528926 125.804656 
L 530.404959 125.804656 
z
" clip-path="url(#pbbad988a22)"/>
   </g>
   <g id="patch_85">
    <path d="M 535.528926 128.16 
L 540.652893 128.16 
L 540.652893 117.624831 
L 535.528926 117.624831 
z
" clip-path="url(#pbbad988a22)"/>
   </g>
   <g id="patch_86">
    <path d="M 540.652893 128.16 
L 545.77686 128.16 
L 545.77686 115.111145 
L 540.652893 115.111145 
z
" clip-path="url(#pbbad988a22)"/>
   </g>
   <g id="patch_87">
    <path d="M 545.77686 128.16 
L 550.900826 128.16 
L 550.900826 125.646314 
L 545.77686 125.646314 
z
" clip-path="url(#pbbad988a22)"/>
   </g>
   <g id="patch_88">
    <path d="M 550.900826 128.16 
L 556.024793 128.16 
L 556.024793 118.267197 
L 550.900826 118.267197 
z
" clip-path="url(#pbbad988a22)"/>
   </g>
   <g id="patch_89">
    <path d="M 556.024793 128.16 
L 561.14876 128.16 
L 561.14876 115.872268 
L 556.024793 115.872268 
z
" clip-path="url(#pbbad988a22)"/>
   </g>
   <g id="patch_90">
    <path d="M 561.14876 128.16 
L 566.272727 128.16 
L 566.272727 126.024177 
L 561.14876 126.024177 
z
" clip-path="url(#pbbad988a22)"/>
   </g>
   <g id="patch_91">
    <path d="M 566.272727 128.16 
L 571.396694 128.16 
L 571.396694 119.730065 
L 566.272727 119.730065 
z
" clip-path="url(#pbbad988a22)"/>
   </g>
   <g id="patch_92">
    <path d="M 571.396694 128.16 
L 576.520661 128.16 
L 576.520661 117.704002 
L 571.396694 117.704002 
z
" clip-path="url(#pbbad988a22)"/>
   </g>
   <g id="patch_93">
    <path d="M 576.520661 128.16 
L 581.644628 128.16 
L 581.644628 126.15193 
L 576.520661 126.15193 
z
" clip-path="url(#pbbad988a22)"/>
   </g>
   <g id="patch_94">
    <path d="M 581.644628 128.16 
L 586.768595 128.16 
L 586.768595 120.424613 
L 581.644628 120.424613 
z
" clip-path="url(#pbbad988a22)"/>
   </g>
   <g id="patch_95">
    <path d="M 586.768595 128.16 
L 591.892562 128.16 
L 591.892562 118.222214 
L 586.768595 118.222214 
z
" clip-path="url(#pbbad988a22)"/>
   </g>
   <g id="patch_96">
    <path d="M 591.892562 128.16 
L 597.016529 128.16 
L 597.016529 126.486609 
L 591.892562 126.486609 
z
" clip-path="url(#pbbad988a22)"/>
   </g>
   <g id="patch_97">
    <path d="M 597.016529 128.16 
L 602.140496 128.16 
L 602.140496 120.512781 
L 597.016529 120.512781 
z
" clip-path="url(#pbbad988a22)"/>
   </g>
   <g id="patch_98">
    <path d="M 602.140496 128.16 
L 607.264463 128.16 
L 607.264463 119.163272 
L 602.140496 119.163272 
z
" clip-path="url(#pbbad988a22)"/>
   </g>
   <g id="patch_99">
    <path d="M 607.264463 128.16 
L 612.38843 128.16 
L 612.38843 126.222105 
L 607.264463 126.222105 
z
" clip-path="url(#pbbad988a22)"/>
   </g>
   <g id="patch_100">
    <path d="M 612.38843 128.16 
L 617.512397 128.16 
L 617.512397 120.24108 
L 612.38843 120.24108 
z
" clip-path="url(#pbbad988a22)"/>
   </g>
   <g id="patch_101">
    <path d="M 617.512397 128.16 
L 622.636364 128.16 
L 622.636364 118.470523 
L 617.512397 118.470523 
z
" clip-path="url(#pbbad988a22)"/>
   </g>
   <g id="matplotlib.axis_1">
    <g id="xtick_1">
     <g id="line2d_1">
      <defs>
       <path id="mfa4d935bba" d="M 0 0 
L 0 3.5 
" style="stroke: #000000; stroke-width: 0.8"/>
      </defs>
      <g>
       <use xlink:href="#mfa4d935bba" x="166.603306" y="128.16" style="stroke: #000000; stroke-width: 0.8"/>
      </g>
     </g>
     <g id="text_1">
      <!-- −40 -->
      <g transform="translate(156.050962 142.758438) scale(0.1 -0.1)">
       <defs>
        <path id="DejaVuSans-2212" d="M 678 2272 
L 4684 2272 
L 4684 1741 
L 678 1741 
L 678 2272 
z
" transform="scale(0.015625)"/>
        <path id="DejaVuSans-34" d="M 2419 4116 
L 825 1625 
L 2419 1625 
L 2419 4116 
z
M 2253 4666 
L 3047 4666 
L 3047 1625 
L 3713 1625 
L 3713 1100 
L 3047 1100 
L 3047 0 
L 2419 0 
L 2419 1100 
L 313 1100 
L 313 1709 
L 2253 4666 
z
" transform="scale(0.015625)"/>
        <path id="DejaVuSans-30" d="M 2034 4250 
Q 1547 4250 1301 3770 
Q 1056 3291 1056 2328 
Q 1056 1369 1301 889 
Q 1547 409 2034 409 
Q 2525 409 2770 889 
Q 3016 1369 3016 2328 
Q 3016 3291 2770 3770 
Q 2525 4250 2034 4250 
z
M 2034 4750 
Q 2819 4750 3233 4129 
Q 3647 3509 3647 2328 
Q 3647 1150 3233 529 
Q 2819 -91 2034 -91 
Q 1250 -91 836 529 
Q 422 1150 422 2328 
Q 422 3509 836 4129 
Q 1250 4750 2034 4750 
z
" transform="scale(0.015625)"/>
       </defs>
       <use xlink:href="#DejaVuSans-2212"/>
       <use xlink:href="#DejaVuSans-34" x="83.789062"/>
       <use xlink:href="#DejaVuSans-30" x="147.412109"/>
      </g>
     </g>
    </g>
    <g id="xtick_2">
     <g id="line2d_2">
      <g>
       <use xlink:href="#mfa4d935bba" x="269.082645" y="128.16" style="stroke: #000000; stroke-width: 0.8"/>
      </g>
     </g>
     <g id="text_2">
      <!-- −20 -->
      <g transform="translate(258.530301 142.758438) scale(0.1 -0.1)">
       <defs>
        <path id="DejaVuSans-32" d="M 1228 531 
L 3431 531 
L 3431 0 
L 469 0 
L 469 531 
Q 828 903 1448 1529 
Q 2069 2156 2228 2338 
Q 2531 2678 2651 2914 
Q 2772 3150 2772 3378 
Q 2772 3750 2511 3984 
Q 2250 4219 1831 4219 
Q 1534 4219 1204 4116 
Q 875 4013 500 3803 
L 500 4441 
Q 881 4594 1212 4672 
Q 1544 4750 1819 4750 
Q 2544 4750 2975 4387 
Q 3406 4025 3406 3419 
Q 3406 3131 3298 2873 
Q 3191 2616 2906 2266 
Q 2828 2175 2409 1742 
Q 1991 1309 1228 531 
z
" transform="scale(0.015625)"/>
       </defs>
       <use xlink:href="#DejaVuSans-2212"/>
       <use xlink:href="#DejaVuSans-32" x="83.789062"/>
       <use xlink:href="#DejaVuSans-30" x="147.412109"/>
      </g>
     </g>
    </g>
    <g id="xtick_3">
     <g id="line2d_3">
      <g>
       <use xlink:href="#mfa4d935bba" x="371.561983" y="128.16" style="stroke: #000000; stroke-width: 0.8"/>
      </g>
     </g>
     <g id="text_3">
      <!-- 0 -->
      <g transform="translate(368.380733 142.758438) scale(0.1 -0.1)">
       <use xlink:href="#DejaVuSans-30"/>
      </g>
     </g>
    </g>
    <g id="xtick_4">
     <g id="line2d_4">
      <g>
       <use xlink:href="#mfa4d935bba" x="474.041322" y="128.16" style="stroke: #000000; stroke-width: 0.8"/>
      </g>
     </g>
     <g id="text_4">
      <!-- 20 -->
      <g transform="translate(467.678822 142.758438) scale(0.1 -0.1)">
       <use xlink:href="#DejaVuSans-32"/>
       <use xlink:href="#DejaVuSans-30" x="63.623047"/>
      </g>
     </g>
    </g>
    <g id="xtick_5">
     <g id="line2d_5">
      <g>
       <use xlink:href="#mfa4d935bba" x="576.520661" y="128.16" style="stroke: #000000; stroke-width: 0.8"/>
      </g>
     </g>
     <g id="text_5">
      <!-- 40 -->
      <g transform="translate(570.158161 142.758438) scale(0.1 -0.1)">
       <use xlink:href="#DejaVuSans-34"/>
       <use xlink:href="#DejaVuSans-30" x="63.623047"/>
      </g>
     </g>
    </g>
   </g>
   <g id="matplotlib.axis_2">
    <g id="ytick_1">
     <g id="line2d_6">
      <defs>
       <path id="m3d49cf1de3" d="M 0 0 
L -3.5 0 
" style="stroke: #000000; stroke-width: 0.8"/>
      </defs>
      <g>
       <use xlink:href="#m3d49cf1de3" x="90" y="128.16" style="stroke: #000000; stroke-width: 0.8"/>
      </g>
     </g>
     <g id="text_6">
      <!-- 0 -->
      <g transform="translate(76.6375 131.959219) scale(0.1 -0.1)">
       <use xlink:href="#DejaVuSans-30"/>
      </g>
     </g>
    </g>
    <g id="ytick_2">
     <g id="line2d_7">
      <g>
       <use xlink:href="#m3d49cf1de3" x="90" y="92.173086" style="stroke: #000000; stroke-width: 0.8"/>
      </g>
     </g>
     <g id="text_7">
      <!-- 20000 -->
      <g transform="translate(51.1875 95.972305) scale(0.1 -0.1)">
       <use xlink:href="#DejaVuSans-32"/>
       <use xlink:href="#DejaVuSans-30" x="63.623047"/>
       <use xlink:href="#DejaVuSans-30" x="127.246094"/>
       <use xlink:href="#DejaVuSans-30" x="190.869141"/>
       <use xlink:href="#DejaVuSans-30" x="254.492188"/>
      </g>
     </g>
    </g>
    <g id="ytick_3">
     <g id="line2d_8">
      <g>
       <use xlink:href="#m3d49cf1de3" x="90" y="56.186172" style="stroke: #000000; stroke-width: 0.8"/>
      </g>
     </g>
     <g id="text_8">
      <!-- 40000 -->
      <g transform="translate(51.1875 59.985391) scale(0.1 -0.1)">
       <use xlink:href="#DejaVuSans-34"/>
       <use xlink:href="#DejaVuSans-30" x="63.623047"/>
       <use xlink:href="#DejaVuSans-30" x="127.246094"/>
       <use xlink:href="#DejaVuSans-30" x="190.869141"/>
       <use xlink:href="#DejaVuSans-30" x="254.492188"/>
      </g>
     </g>
    </g>
    <g id="ytick_4">
     <g id="line2d_9">
      <g>
       <use xlink:href="#m3d49cf1de3" x="90" y="20.199258" style="stroke: #000000; stroke-width: 0.8"/>
      </g>
     </g>
     <g id="text_9">
      <!-- 60000 -->
      <g transform="translate(51.1875 23.998477) scale(0.1 -0.1)">
       <defs>
        <path id="DejaVuSans-36" d="M 2113 2584 
Q 1688 2584 1439 2293 
Q 1191 2003 1191 1497 
Q 1191 994 1439 701 
Q 1688 409 2113 409 
Q 2538 409 2786 701 
Q 3034 994 3034 1497 
Q 3034 2003 2786 2293 
Q 2538 2584 2113 2584 
z
M 3366 4563 
L 3366 3988 
Q 3128 4100 2886 4159 
Q 2644 4219 2406 4219 
Q 1781 4219 1451 3797 
Q 1122 3375 1075 2522 
Q 1259 2794 1537 2939 
Q 1816 3084 2150 3084 
Q 2853 3084 3261 2657 
Q 3669 2231 3669 1497 
Q 3669 778 3244 343 
Q 2819 -91 2113 -91 
Q 1303 -91 875 529 
Q 447 1150 447 2328 
Q 447 3434 972 4092 
Q 1497 4750 2381 4750 
Q 2619 4750 2861 4703 
Q 3103 4656 3366 4563 
z
" transform="scale(0.015625)"/>
       </defs>
       <use xlink:href="#DejaVuSans-36"/>
       <use xlink:href="#DejaVuSans-30" x="63.623047"/>
       <use xlink:href="#DejaVuSans-30" x="127.246094"/>
       <use xlink:href="#DejaVuSans-30" x="190.869141"/>
       <use xlink:href="#DejaVuSans-30" x="254.492188"/>
      </g>
     </g>
    </g>
    <g id="text_10">
     <!-- siLuc - Raw read count -->
     <g transform="translate(45.107812 129.369219) rotate(-90) scale(0.1 -0.1)">
      <defs>
       <path id="DejaVuSans-73" d="M 2834 3397 
L 2834 2853 
Q 2591 2978 2328 3040 
Q 2066 3103 1784 3103 
Q 1356 3103 1142 2972 
Q 928 2841 928 2578 
Q 928 2378 1081 2264 
Q 1234 2150 1697 2047 
L 1894 2003 
Q 2506 1872 2764 1633 
Q 3022 1394 3022 966 
Q 3022 478 2636 193 
Q 2250 -91 1575 -91 
Q 1294 -91 989 -36 
Q 684 19 347 128 
L 347 722 
Q 666 556 975 473 
Q 1284 391 1588 391 
Q 1994 391 2212 530 
Q 2431 669 2431 922 
Q 2431 1156 2273 1281 
Q 2116 1406 1581 1522 
L 1381 1569 
Q 847 1681 609 1914 
Q 372 2147 372 2553 
Q 372 3047 722 3315 
Q 1072 3584 1716 3584 
Q 2034 3584 2315 3537 
Q 2597 3491 2834 3397 
z
" transform="scale(0.015625)"/>
       <path id="DejaVuSans-69" d="M 603 3500 
L 1178 3500 
L 1178 0 
L 603 0 
L 603 3500 
z
M 603 4863 
L 1178 4863 
L 1178 4134 
L 603 4134 
L 603 4863 
z
" transform="scale(0.015625)"/>
       <path id="DejaVuSans-4c" d="M 628 4666 
L 1259 4666 
L 1259 531 
L 3531 531 
L 3531 0 
L 628 0 
L 628 4666 
z
" transform="scale(0.015625)"/>
       <path id="DejaVuSans-75" d="M 544 1381 
L 544 3500 
L 1119 3500 
L 1119 1403 
Q 1119 906 1312 657 
Q 1506 409 1894 409 
Q 2359 409 2629 706 
Q 2900 1003 2900 1516 
L 2900 3500 
L 3475 3500 
L 3475 0 
L 2900 0 
L 2900 538 
Q 2691 219 2414 64 
Q 2138 -91 1772 -91 
Q 1169 -91 856 284 
Q 544 659 544 1381 
z
M 1991 3584 
L 1991 3584 
z
" transform="scale(0.015625)"/>
       <path id="DejaVuSans-63" d="M 3122 3366 
L 3122 2828 
Q 2878 2963 2633 3030 
Q 2388 3097 2138 3097 
Q 1578 3097 1268 2742 
Q 959 2388 959 1747 
Q 959 1106 1268 751 
Q 1578 397 2138 397 
Q 2388 397 2633 464 
Q 2878 531 3122 666 
L 3122 134 
Q 2881 22 2623 -34 
Q 2366 -91 2075 -91 
Q 1284 -91 818 406 
Q 353 903 353 1747 
Q 353 2603 823 3093 
Q 1294 3584 2113 3584 
Q 2378 3584 2631 3529 
Q 2884 3475 3122 3366 
z
" transform="scale(0.015625)"/>
       <path id="DejaVuSans-20" transform="scale(0.015625)"/>
       <path id="DejaVuSans-2d" d="M 313 2009 
L 1997 2009 
L 1997 1497 
L 313 1497 
L 313 2009 
z
" transform="scale(0.015625)"/>
       <path id="DejaVuSans-52" d="M 2841 2188 
Q 3044 2119 3236 1894 
Q 3428 1669 3622 1275 
L 4263 0 
L 3584 0 
L 2988 1197 
Q 2756 1666 2539 1819 
Q 2322 1972 1947 1972 
L 1259 1972 
L 1259 0 
L 628 0 
L 628 4666 
L 2053 4666 
Q 2853 4666 3247 4331 
Q 3641 3997 3641 3322 
Q 3641 2881 3436 2590 
Q 3231 2300 2841 2188 
z
M 1259 4147 
L 1259 2491 
L 2053 2491 
Q 2509 2491 2742 2702 
Q 2975 2913 2975 3322 
Q 2975 3731 2742 3939 
Q 2509 4147 2053 4147 
L 1259 4147 
z
" transform="scale(0.015625)"/>
       <path id="DejaVuSans-61" d="M 2194 1759 
Q 1497 1759 1228 1600 
Q 959 1441 959 1056 
Q 959 750 1161 570 
Q 1363 391 1709 391 
Q 2188 391 2477 730 
Q 2766 1069 2766 1631 
L 2766 1759 
L 2194 1759 
z
M 3341 1997 
L 3341 0 
L 2766 0 
L 2766 531 
Q 2569 213 2275 61 
Q 1981 -91 1556 -91 
Q 1019 -91 701 211 
Q 384 513 384 1019 
Q 384 1609 779 1909 
Q 1175 2209 1959 2209 
L 2766 2209 
L 2766 2266 
Q 2766 2663 2505 2880 
Q 2244 3097 1772 3097 
Q 1472 3097 1187 3025 
Q 903 2953 641 2809 
L 641 3341 
Q 956 3463 1253 3523 
Q 1550 3584 1831 3584 
Q 2591 3584 2966 3190 
Q 3341 2797 3341 1997 
z
" transform="scale(0.015625)"/>
       <path id="DejaVuSans-77" d="M 269 3500 
L 844 3500 
L 1563 769 
L 2278 3500 
L 2956 3500 
L 3675 769 
L 4391 3500 
L 4966 3500 
L 4050 0 
L 3372 0 
L 2619 2869 
L 1863 0 
L 1184 0 
L 269 3500 
z
" transform="scale(0.015625)"/>
       <path id="DejaVuSans-72" d="M 2631 2963 
Q 2534 3019 2420 3045 
Q 2306 3072 2169 3072 
Q 1681 3072 1420 2755 
Q 1159 2438 1159 1844 
L 1159 0 
L 581 0 
L 581 3500 
L 1159 3500 
L 1159 2956 
Q 1341 3275 1631 3429 
Q 1922 3584 2338 3584 
Q 2397 3584 2469 3576 
Q 2541 3569 2628 3553 
L 2631 2963 
z
" transform="scale(0.015625)"/>
       <path id="DejaVuSans-65" d="M 3597 1894 
L 3597 1613 
L 953 1613 
Q 991 1019 1311 708 
Q 1631 397 2203 397 
Q 2534 397 2845 478 
Q 3156 559 3463 722 
L 3463 178 
Q 3153 47 2828 -22 
Q 2503 -91 2169 -91 
Q 1331 -91 842 396 
Q 353 884 353 1716 
Q 353 2575 817 3079 
Q 1281 3584 2069 3584 
Q 2775 3584 3186 3129 
Q 3597 2675 3597 1894 
z
M 3022 2063 
Q 3016 2534 2758 2815 
Q 2500 3097 2075 3097 
Q 1594 3097 1305 2825 
Q 1016 2553 972 2059 
L 3022 2063 
z
" transform="scale(0.015625)"/>
       <path id="DejaVuSans-64" d="M 2906 2969 
L 2906 4863 
L 3481 4863 
L 3481 0 
L 2906 0 
L 2906 525 
Q 2725 213 2448 61 
Q 2172 -91 1784 -91 
Q 1150 -91 751 415 
Q 353 922 353 1747 
Q 353 2572 751 3078 
Q 1150 3584 1784 3584 
Q 2172 3584 2448 3432 
Q 2725 3281 2906 2969 
z
M 947 1747 
Q 947 1113 1208 752 
Q 1469 391 1925 391 
Q 2381 391 2643 752 
Q 2906 1113 2906 1747 
Q 2906 2381 2643 2742 
Q 2381 3103 1925 3103 
Q 1469 3103 1208 2742 
Q 947 2381 947 1747 
z
" transform="scale(0.015625)"/>
       <path id="DejaVuSans-6f" d="M 1959 3097 
Q 1497 3097 1228 2736 
Q 959 2375 959 1747 
Q 959 1119 1226 758 
Q 1494 397 1959 397 
Q 2419 397 2687 759 
Q 2956 1122 2956 1747 
Q 2956 2369 2687 2733 
Q 2419 3097 1959 3097 
z
M 1959 3584 
Q 2709 3584 3137 3096 
Q 3566 2609 3566 1747 
Q 3566 888 3137 398 
Q 2709 -91 1959 -91 
Q 1206 -91 779 398 
Q 353 888 353 1747 
Q 353 2609 779 3096 
Q 1206 3584 1959 3584 
z
" transform="scale(0.015625)"/>
       <path id="DejaVuSans-6e" d="M 3513 2113 
L 3513 0 
L 2938 0 
L 2938 2094 
Q 2938 2591 2744 2837 
Q 2550 3084 2163 3084 
Q 1697 3084 1428 2787 
Q 1159 2491 1159 1978 
L 1159 0 
L 581 0 
L 581 3500 
L 1159 3500 
L 1159 2956 
Q 1366 3272 1645 3428 
Q 1925 3584 2291 3584 
Q 2894 3584 3203 3211 
Q 3513 2838 3513 2113 
z
" transform="scale(0.015625)"/>
       <path id="DejaVuSans-74" d="M 1172 4494 
L 1172 3500 
L 2356 3500 
L 2356 3053 
L 1172 3053 
L 1172 1153 
Q 1172 725 1289 603 
Q 1406 481 1766 481 
L 2356 481 
L 2356 0 
L 1766 0 
Q 1100 0 847 248 
Q 594 497 594 1153 
L 594 3053 
L 172 3053 
L 172 3500 
L 594 3500 
L 594 4494 
L 1172 4494 
z
" transform="scale(0.015625)"/>
      </defs>
      <use xlink:href="#DejaVuSans-73"/>
      <use xlink:href="#DejaVuSans-69" x="52.099609"/>
      <use xlink:href="#DejaVuSans-4c" x="79.882812"/>
      <use xlink:href="#DejaVuSans-75" x="133.845703"/>
      <use xlink:href="#DejaVuSans-63" x="197.224609"/>
      <use xlink:href="#DejaVuSans-20" x="252.205078"/>
      <use xlink:href="#DejaVuSans-2d" x="283.992188"/>
      <use xlink:href="#DejaVuSans-20" x="320.076172"/>
      <use xlink:href="#DejaVuSans-52" x="351.863281"/>
      <use xlink:href="#DejaVuSans-61" x="419.095703"/>
      <use xlink:href="#DejaVuSans-77" x="480.375"/>
      <use xlink:href="#DejaVuSans-20" x="562.162109"/>
      <use xlink:href="#DejaVuSans-72" x="593.949219"/>
      <use xlink:href="#DejaVuSans-65" x="632.8125"/>
      <use xlink:href="#DejaVuSans-61" x="694.335938"/>
      <use xlink:href="#DejaVuSans-64" x="755.615234"/>
      <use xlink:href="#DejaVuSans-20" x="819.091797"/>
      <use xlink:href="#DejaVuSans-63" x="850.878906"/>
      <use xlink:href="#DejaVuSans-6f" x="905.859375"/>
      <use xlink:href="#DejaVuSans-75" x="967.041016"/>
      <use xlink:href="#DejaVuSans-6e" x="1030.419922"/>
      <use xlink:href="#DejaVuSans-74" x="1093.798828"/>
     </g>
    </g>
   </g>
   <g id="patch_102">
    <path d="M 90 128.16 
L 90 17.28 
" style="fill: none; stroke: #000000; stroke-width: 0.8; stroke-linejoin: miter; stroke-linecap: square"/>
   </g>
   <g id="patch_103">
    <path d="M 648 128.16 
L 648 17.28 
" style="fill: none; stroke: #000000; stroke-width: 0.8; stroke-linejoin: miter; stroke-linecap: square"/>
   </g>
   <g id="patch_104">
    <path d="M 90 128.16 
L 648 128.16 
" style="fill: none; stroke: #000000; stroke-width: 0.8; stroke-linejoin: miter; stroke-linecap: square"/>
   </g>
   <g id="patch_105">
    <path d="M 90 17.28 
L 648 17.28 
" style="fill: none; stroke: #000000; stroke-width: 0.8; stroke-linejoin: miter; stroke-linecap: square"/>
   </g>
  </g>
 </g>
 <defs>
  <clipPath id="pbbad988a22">
   <rect x="90" y="17.28" width="558" height="110.88"/>
  </clipPath>
 </defs>
</svg>
