<?xml version="1.0" encoding="utf-8" standalone="no"?>
<!DOCTYPE svg PUBLIC "-//W3C//DTD SVG 1.1//EN"
  "http://www.w3.org/Graphics/SVG/1.1/DTD/svg11.dtd">
<svg xmlns:xlink="http://www.w3.org/1999/xlink" width="460.8pt" height="345.6pt" viewBox="0 0 460.8 345.6" xmlns="http://www.w3.org/2000/svg" version="1.1">
 <metadata>
  <rdf:RDF xmlns:dc="http://purl.org/dc/elements/1.1/" xmlns:cc="http://creativecommons.org/ns#" xmlns:rdf="http://www.w3.org/1999/02/22-rdf-syntax-ns#">
   <cc:Work>
    <dc:type rdf:resource="http://purl.org/dc/dcmitype/StillImage"/>
    <dc:date>2023-05-10T17:13:25.291234</dc:date>
    <dc:format>image/svg+xml</dc:format>
    <dc:creator>
     <cc:Agent>
      <dc:title>Matplotlib v3.7.1, https://matplotlib.org/</dc:title>
     </cc:Agent>
    </dc:creator>
   </cc:Work>
  </rdf:RDF>
 </metadata>
 <defs>
  <style type="text/css">*{stroke-linejoin: round; stroke-linecap: butt}</style>
 </defs>
 <g id="figure_1">
  <g id="patch_1">
   <path d="M 0 345.6 
L 460.8 345.6 
L 460.8 0 
L 0 0 
z
" style="fill: #ffffff"/>
  </g>
  <g id="axes_1">
   <g id="patch_2">
    <path d="M 57.6 162.432 
L 414.72 162.432 
L 414.72 41.472 
L 57.6 41.472 
z
" style="fill: #ffffff"/>
   </g>
   <g id="patch_3">
    <path d="M 73.832727 162.432 
L 77.112066 162.432 
L 77.112066 156.782709 
L 73.832727 156.782709 
z
" clip-path="url(#p97805f3a89)"/>
   </g>
   <g id="patch_4">
    <path d="M 77.112066 162.432 
L 80.391405 162.432 
L 80.391405 157.41477 
L 77.112066 157.41477 
z
" clip-path="url(#p97805f3a89)"/>
   </g>
   <g id="patch_5">
    <path d="M 80.391405 162.432 
L 83.670744 162.432 
L 83.670744 157.787725 
L 80.391405 157.787725 
z
" clip-path="url(#p97805f3a89)"/>
   </g>
   <g id="patch_6">
    <path d="M 83.670744 162.432 
L 86.950083 162.432 
L 86.950083 155.675621 
L 83.670744 155.675621 
z
" clip-path="url(#p97805f3a89)"/>
   </g>
   <g id="patch_7">
    <path d="M 86.950083 162.432 
L 90.229421 162.432 
L 90.229421 157.218478 
L 86.950083 157.218478 
z
" clip-path="url(#p97805f3a89)"/>
   </g>
   <g id="patch_8">
    <path d="M 90.229421 162.432 
L 93.50876 162.432 
L 93.50876 156.831782 
L 90.229421 156.831782 
z
" clip-path="url(#p97805f3a89)"/>
   </g>
   <g id="patch_9">
    <path d="M 93.50876 162.432 
L 96.788099 162.432 
L 96.788099 157.234181 
L 93.50876 157.234181 
z
" clip-path="url(#p97805f3a89)"/>
   </g>
   <g id="patch_10">
    <path d="M 96.788099 162.432 
L 100.067438 162.432 
L 100.067438 156.786635 
L 96.788099 156.786635 
z
" clip-path="url(#p97805f3a89)"/>
   </g>
   <g id="patch_11">
    <path d="M 100.067438 162.432 
L 103.346777 162.432 
L 103.346777 156.533418 
L 100.067438 156.533418 
z
" clip-path="url(#p97805f3a89)"/>
   </g>
   <g id="patch_12">
    <path d="M 103.346777 162.432 
L 106.626116 162.432 
L 106.626116 156.025021 
L 103.346777 156.025021 
z
" clip-path="url(#p97805f3a89)"/>
   </g>
   <g id="patch_13">
    <path d="M 106.626116 162.432 
L 109.905455 162.432 
L 109.905455 156.290015 
L 106.626116 156.290015 
z
" clip-path="url(#p97805f3a89)"/>
   </g>
   <g id="patch_14">
    <path d="M 109.905455 162.432 
L 113.184793 162.432 
L 113.184793 156.305719 
L 109.905455 156.305719 
z
" clip-path="url(#p97805f3a89)"/>
   </g>
   <g id="patch_15">
    <path d="M 113.184793 162.432 
L 116.464132 162.432 
L 116.464132 155.447921 
L 113.184793 155.447921 
z
" clip-path="url(#p97805f3a89)"/>
   </g>
   <g id="patch_16">
    <path d="M 116.464132 162.432 
L 119.743471 162.432 
L 119.743471 156.417605 
L 116.464132 156.417605 
z
" clip-path="url(#p97805f3a89)"/>
   </g>
   <g id="patch_17">
    <path d="M 119.743471 162.432 
L 123.02281 162.432 
L 123.02281 152.807791 
L 119.743471 152.807791 
z
" clip-path="url(#p97805f3a89)"/>
   </g>
   <g id="patch_18">
    <path d="M 123.02281 162.432 
L 126.302149 162.432 
L 126.302149 155.422403 
L 123.02281 155.422403 
z
" clip-path="url(#p97805f3a89)"/>
   </g>
   <g id="patch_19">
    <path d="M 126.302149 162.432 
L 129.581488 162.432 
L 129.581488 156.429383 
L 126.302149 156.429383 
z
" clip-path="url(#p97805f3a89)"/>
   </g>
   <g id="patch_20">
    <path d="M 129.581488 162.432 
L 132.860826 162.432 
L 132.860826 155.795359 
L 129.581488 155.795359 
z
" clip-path="url(#p97805f3a89)"/>
   </g>
   <g id="patch_21">
    <path d="M 132.860826 162.432 
L 136.140165 162.432 
L 136.140165 155.32622 
L 132.860826 155.32622 
z
" clip-path="url(#p97805f3a89)"/>
   </g>
   <g id="patch_22">
    <path d="M 136.140165 162.432 
L 139.419504 162.432 
L 139.419504 156.961335 
L 136.140165 156.961335 
z
" clip-path="url(#p97805f3a89)"/>
   </g>
   <g id="patch_23">
    <path d="M 139.419504 162.432 
L 142.698843 162.432 
L 142.698843 157.357845 
L 139.419504 157.357845 
z
" clip-path="url(#p97805f3a89)"/>
   </g>
   <g id="patch_24">
    <path d="M 142.698843 162.432 
L 145.978182 162.432 
L 145.978182 155.86995 
L 142.698843 155.86995 
z
" clip-path="url(#p97805f3a89)"/>
   </g>
   <g id="patch_25">
    <path d="M 145.978182 162.432 
L 149.257521 162.432 
L 149.257521 156.352829 
L 145.978182 156.352829 
z
" clip-path="url(#p97805f3a89)"/>
   </g>
   <g id="patch_26">
    <path d="M 149.257521 162.432 
L 152.53686 162.432 
L 152.53686 155.07104 
L 149.257521 155.07104 
z
" clip-path="url(#p97805f3a89)"/>
   </g>
   <g id="patch_27">
    <path d="M 152.53686 162.432 
L 155.816198 162.432 
L 155.816198 154.762862 
L 152.53686 154.762862 
z
" clip-path="url(#p97805f3a89)"/>
   </g>
   <g id="patch_28">
    <path d="M 155.816198 162.432 
L 159.095537 162.432 
L 159.095537 156.449012 
L 155.816198 156.449012 
z
" clip-path="url(#p97805f3a89)"/>
   </g>
   <g id="patch_29">
    <path d="M 159.095537 162.432 
L 162.374876 162.432 
L 162.374876 156.040724 
L 159.095537 156.040724 
z
" clip-path="url(#p97805f3a89)"/>
   </g>
   <g id="patch_30">
    <path d="M 162.374876 162.432 
L 165.654215 162.432 
L 165.654215 154.72164 
L 162.374876 154.72164 
z
" clip-path="url(#p97805f3a89)"/>
   </g>
   <g id="patch_31">
    <path d="M 165.654215 162.432 
L 168.933554 162.432 
L 168.933554 155.724694 
L 165.654215 155.724694 
z
" clip-path="url(#p97805f3a89)"/>
   </g>
   <g id="patch_32">
    <path d="M 168.933554 162.432 
L 172.212893 162.432 
L 172.212893 155.532327 
L 168.933554 155.532327 
z
" clip-path="url(#p97805f3a89)"/>
   </g>
   <g id="patch_33">
    <path d="M 172.212893 162.432 
L 175.492231 162.432 
L 175.492231 154.809972 
L 172.212893 154.809972 
z
" clip-path="url(#p97805f3a89)"/>
   </g>
   <g id="patch_34">
    <path d="M 175.492231 162.432 
L 178.77157 162.432 
L 178.77157 157.220441 
L 175.492231 157.220441 
z
" clip-path="url(#p97805f3a89)"/>
   </g>
   <g id="patch_35">
    <path d="M 178.77157 162.432 
L 182.050909 162.432 
L 182.050909 153.170931 
L 178.77157 153.170931 
z
" clip-path="url(#p97805f3a89)"/>
   </g>
   <g id="patch_36">
    <path d="M 182.050909 162.432 
L 185.330248 162.432 
L 185.330248 154.336907 
L 182.050909 154.336907 
z
" clip-path="url(#p97805f3a89)"/>
   </g>
   <g id="patch_37">
    <path d="M 185.330248 162.432 
L 188.609587 162.432 
L 188.609587 156.900484 
L 185.330248 156.900484 
z
" clip-path="url(#p97805f3a89)"/>
   </g>
   <g id="patch_38">
    <path d="M 188.609587 162.432 
L 191.888926 162.432 
L 191.888926 158.015424 
L 188.609587 158.015424 
z
" clip-path="url(#p97805f3a89)"/>
   </g>
   <g id="patch_39">
    <path d="M 191.888926 162.432 
L 195.168264 162.432 
L 195.168264 153.386853 
L 191.888926 153.386853 
z
" clip-path="url(#p97805f3a89)"/>
   </g>
   <g id="patch_40">
    <path d="M 195.168264 162.432 
L 198.447603 162.432 
L 198.447603 79.439634 
L 195.168264 79.439634 
z
" clip-path="url(#p97805f3a89)"/>
   </g>
   <g id="patch_41">
    <path d="M 198.447603 162.432 
L 201.726942 162.432 
L 201.726942 47.232 
L 198.447603 47.232 
z
" clip-path="url(#p97805f3a89)"/>
   </g>
   <g id="patch_42">
    <path d="M 201.726942 162.432 
L 205.006281 162.432 
L 205.006281 152.735162 
L 201.726942 152.735162 
z
" clip-path="url(#p97805f3a89)"/>
   </g>
   <g id="patch_43">
    <path d="M 205.006281 162.432 
L 208.28562 162.432 
L 208.28562 131.364824 
L 205.006281 131.364824 
z
" clip-path="url(#p97805f3a89)"/>
   </g>
   <g id="patch_44">
    <path d="M 208.28562 162.432 
L 211.564959 162.432 
L 211.564959 110.461662 
L 208.28562 110.461662 
z
" clip-path="url(#p97805f3a89)"/>
   </g>
   <g id="patch_45">
    <path d="M 211.564959 162.432 
L 214.844298 162.432 
L 214.844298 154.813897 
L 211.564959 154.813897 
z
" clip-path="url(#p97805f3a89)"/>
   </g>
   <g id="patch_46">
    <path d="M 214.844298 162.432 
L 218.123636 162.432 
L 218.123636 123.562207 
L 214.844298 123.562207 
z
" clip-path="url(#p97805f3a89)"/>
   </g>
   <g id="patch_47">
    <path d="M 218.123636 162.432 
L 221.402975 162.432 
L 221.402975 113.431564 
L 218.123636 113.431564 
z
" clip-path="url(#p97805f3a89)"/>
   </g>
   <g id="patch_48">
    <path d="M 221.402975 162.432 
L 224.682314 162.432 
L 224.682314 155.765915 
L 221.402975 155.765915 
z
" clip-path="url(#p97805f3a89)"/>
   </g>
   <g id="patch_49">
    <path d="M 224.682314 162.432 
L 227.961653 162.432 
L 227.961653 117.97573 
L 224.682314 117.97573 
z
" clip-path="url(#p97805f3a89)"/>
   </g>
   <g id="patch_50">
    <path d="M 227.961653 162.432 
L 231.240992 162.432 
L 231.240992 125.315097 
L 227.961653 125.315097 
z
" clip-path="url(#p97805f3a89)"/>
   </g>
   <g id="patch_51">
    <path d="M 231.240992 162.432 
L 234.520331 162.432 
L 234.520331 156.975075 
L 231.240992 156.975075 
z
" clip-path="url(#p97805f3a89)"/>
   </g>
   <g id="patch_52">
    <path d="M 234.520331 162.432 
L 237.799669 162.432 
L 237.799669 113.62393 
L 234.520331 113.62393 
z
" clip-path="url(#p97805f3a89)"/>
   </g>
   <g id="patch_53">
    <path d="M 237.799669 162.432 
L 241.079008 162.432 
L 241.079008 110.828728 
L 237.799669 110.828728 
z
" clip-path="url(#p97805f3a89)"/>
   </g>
   <g id="patch_54">
    <path d="M 241.079008 162.432 
L 244.358347 162.432 
L 244.358347 152.158063 
L 241.079008 152.158063 
z
" clip-path="url(#p97805f3a89)"/>
   </g>
   <g id="patch_55">
    <path d="M 244.358347 162.432 
L 247.637686 162.432 
L 247.637686 134.790124 
L 244.358347 134.790124 
z
" clip-path="url(#p97805f3a89)"/>
   </g>
   <g id="patch_56">
    <path d="M 247.637686 162.432 
L 250.917025 162.432 
L 250.917025 134.623276 
L 247.637686 134.623276 
z
" clip-path="url(#p97805f3a89)"/>
   </g>
   <g id="patch_57">
    <path d="M 250.917025 162.432 
L 254.196364 162.432 
L 254.196364 156.443123 
L 250.917025 156.443123 
z
" clip-path="url(#p97805f3a89)"/>
   </g>
   <g id="patch_58">
    <path d="M 254.196364 162.432 
L 257.475702 162.432 
L 257.475702 133.317932 
L 254.196364 133.317932 
z
" clip-path="url(#p97805f3a89)"/>
   </g>
   <g id="patch_59">
    <path d="M 257.475702 162.432 
L 260.755041 162.432 
L 260.755041 130.987943 
L 257.475702 130.987943 
z
" clip-path="url(#p97805f3a89)"/>
   </g>
   <g id="patch_60">
    <path d="M 260.755041 162.432 
L 264.03438 162.432 
L 264.03438 157.094814 
L 260.755041 157.094814 
z
" clip-path="url(#p97805f3a89)"/>
   </g>
   <g id="patch_61">
    <path d="M 264.03438 162.432 
L 267.313719 162.432 
L 267.313719 137.549993 
L 264.03438 137.549993 
z
" clip-path="url(#p97805f3a89)"/>
   </g>
   <g id="patch_62">
    <path d="M 267.313719 162.432 
L 270.593058 162.432 
L 270.593058 133.783145 
L 267.313719 133.783145 
z
" clip-path="url(#p97805f3a89)"/>
   </g>
   <g id="patch_63">
    <path d="M 270.593058 162.432 
L 273.872397 162.432 
L 273.872397 157.658172 
L 270.593058 157.658172 
z
" clip-path="url(#p97805f3a89)"/>
   </g>
   <g id="patch_64">
    <path d="M 273.872397 162.432 
L 277.151736 162.432 
L 277.151736 142.600593 
L 273.872397 142.600593 
z
" clip-path="url(#p97805f3a89)"/>
   </g>
   <g id="patch_65">
    <path d="M 277.151736 162.432 
L 280.431074 162.432 
L 280.431074 136.725566 
L 277.151736 136.725566 
z
" clip-path="url(#p97805f3a89)"/>
   </g>
   <g id="patch_66">
    <path d="M 280.431074 162.432 
L 283.710413 162.432 
L 283.710413 158.258827 
L 280.431074 158.258827 
z
" clip-path="url(#p97805f3a89)"/>
   </g>
   <g id="patch_67">
    <path d="M 283.710413 162.432 
L 286.989752 162.432 
L 286.989752 136.678456 
L 283.710413 136.678456 
z
" clip-path="url(#p97805f3a89)"/>
   </g>
   <g id="patch_68">
    <path d="M 286.989752 162.432 
L 290.269091 162.432 
L 290.269091 137.913134 
L 286.989752 137.913134 
z
" clip-path="url(#p97805f3a89)"/>
   </g>
   <g id="patch_69">
    <path d="M 290.269091 162.432 
L 293.54843 162.432 
L 293.54843 158.474748 
L 290.269091 158.474748 
z
" clip-path="url(#p97805f3a89)"/>
   </g>
   <g id="patch_70">
    <path d="M 293.54843 162.432 
L 296.827769 162.432 
L 296.827769 145.827638 
L 293.54843 145.827638 
z
" clip-path="url(#p97805f3a89)"/>
   </g>
   <g id="patch_71">
    <path d="M 296.827769 162.432 
L 300.107107 162.432 
L 300.107107 140.559154 
L 296.827769 140.559154 
z
" clip-path="url(#p97805f3a89)"/>
   </g>
   <g id="patch_72">
    <path d="M 300.107107 162.432 
L 303.386446 162.432 
L 303.386446 159.008663 
L 300.107107 159.008663 
z
" clip-path="url(#p97805f3a89)"/>
   </g>
   <g id="patch_73">
    <path d="M 303.386446 162.432 
L 306.665785 162.432 
L 306.665785 144.726438 
L 303.386446 144.726438 
z
" clip-path="url(#p97805f3a89)"/>
   </g>
   <g id="patch_74">
    <path d="M 306.665785 162.432 
L 309.945124 162.432 
L 309.945124 142.310081 
L 306.665785 142.310081 
z
" clip-path="url(#p97805f3a89)"/>
   </g>
   <g id="patch_75">
    <path d="M 309.945124 162.432 
L 313.224463 162.432 
L 313.224463 159.091106 
L 309.945124 159.091106 
z
" clip-path="url(#p97805f3a89)"/>
   </g>
   <g id="patch_76">
    <path d="M 313.224463 162.432 
L 316.503802 162.432 
L 316.503802 145.501793 
L 313.224463 145.501793 
z
" clip-path="url(#p97805f3a89)"/>
   </g>
   <g id="patch_77">
    <path d="M 316.503802 162.432 
L 319.78314 162.432 
L 319.78314 142.261008 
L 316.503802 142.261008 
z
" clip-path="url(#p97805f3a89)"/>
   </g>
   <g id="patch_78">
    <path d="M 319.78314 162.432 
L 323.062479 162.432 
L 323.062479 159.316842 
L 319.78314 159.316842 
z
" clip-path="url(#p97805f3a89)"/>
   </g>
   <g id="patch_79">
    <path d="M 323.062479 162.432 
L 326.341818 162.432 
L 326.341818 148.185108 
L 323.062479 148.185108 
z
" clip-path="url(#p97805f3a89)"/>
   </g>
   <g id="patch_80">
    <path d="M 326.341818 162.432 
L 329.621157 162.432 
L 329.621157 145.15043 
L 326.341818 145.15043 
z
" clip-path="url(#p97805f3a89)"/>
   </g>
   <g id="patch_81">
    <path d="M 329.621157 162.432 
L 332.900496 162.432 
L 332.900496 159.513134 
L 329.621157 159.513134 
z
" clip-path="url(#p97805f3a89)"/>
   </g>
   <g id="patch_82">
    <path d="M 332.900496 162.432 
L 336.179835 162.432 
L 336.179835 151.280637 
L 332.900496 151.280637 
z
" clip-path="url(#p97805f3a89)"/>
   </g>
   <g id="patch_83">
    <path d="M 336.179835 162.432 
L 339.459174 162.432 
L 339.459174 147.594268 
L 336.179835 147.594268 
z
" clip-path="url(#p97805f3a89)"/>
   </g>
   <g id="patch_84">
    <path d="M 339.459174 162.432 
L 342.738512 162.432 
L 342.738512 159.862534 
L 339.459174 159.862534 
z
" clip-path="url(#p97805f3a89)"/>
   </g>
   <g id="patch_85">
    <path d="M 342.738512 162.432 
L 346.017851 162.432 
L 346.017851 150.939088 
L 342.738512 150.939088 
z
" clip-path="url(#p97805f3a89)"/>
   </g>
   <g id="patch_86">
    <path d="M 346.017851 162.432 
L 349.29719 162.432 
L 349.29719 148.196885 
L 346.017851 148.196885 
z
" clip-path="url(#p97805f3a89)"/>
   </g>
   <g id="patch_87">
    <path d="M 349.29719 162.432 
L 352.576529 162.432 
L 352.576529 159.689797 
L 349.29719 159.689797 
z
" clip-path="url(#p97805f3a89)"/>
   </g>
   <g id="patch_88">
    <path d="M 352.576529 162.432 
L 355.855868 162.432 
L 355.855868 151.639852 
L 352.576529 151.639852 
z
" clip-path="url(#p97805f3a89)"/>
   </g>
   <g id="patch_89">
    <path d="M 355.855868 162.432 
L 359.135207 162.432 
L 359.135207 149.027202 
L 355.855868 149.027202 
z
" clip-path="url(#p97805f3a89)"/>
   </g>
   <g id="patch_90">
    <path d="M 359.135207 162.432 
L 362.414545 162.432 
L 362.414545 160.102011 
L 359.135207 160.102011 
z
" clip-path="url(#p97805f3a89)"/>
   </g>
   <g id="patch_91">
    <path d="M 362.414545 162.432 
L 365.693884 162.432 
L 365.693884 153.235708 
L 362.414545 153.235708 
z
" clip-path="url(#p97805f3a89)"/>
   </g>
   <g id="patch_92">
    <path d="M 365.693884 162.432 
L 368.973223 162.432 
L 368.973223 151.025457 
L 365.693884 151.025457 
z
" clip-path="url(#p97805f3a89)"/>
   </g>
   <g id="patch_93">
    <path d="M 368.973223 162.432 
L 372.252562 162.432 
L 372.252562 160.241378 
L 368.973223 160.241378 
z
" clip-path="url(#p97805f3a89)"/>
   </g>
   <g id="patch_94">
    <path d="M 372.252562 162.432 
L 375.531901 162.432 
L 375.531901 153.993396 
L 372.252562 153.993396 
z
" clip-path="url(#p97805f3a89)"/>
   </g>
   <g id="patch_95">
    <path d="M 375.531901 162.432 
L 378.81124 162.432 
L 378.81124 151.590779 
L 375.531901 151.590779 
z
" clip-path="url(#p97805f3a89)"/>
   </g>
   <g id="patch_96">
    <path d="M 378.81124 162.432 
L 382.090579 162.432 
L 382.090579 160.606482 
L 378.81124 160.606482 
z
" clip-path="url(#p97805f3a89)"/>
   </g>
   <g id="patch_97">
    <path d="M 382.090579 162.432 
L 385.369917 162.432 
L 385.369917 154.089579 
L 382.090579 154.089579 
z
" clip-path="url(#p97805f3a89)"/>
   </g>
   <g id="patch_98">
    <path d="M 385.369917 162.432 
L 388.649256 162.432 
L 388.649256 152.617387 
L 385.369917 152.617387 
z
" clip-path="url(#p97805f3a89)"/>
   </g>
   <g id="patch_99">
    <path d="M 388.649256 162.432 
L 391.928595 162.432 
L 391.928595 160.317932 
L 388.649256 160.317932 
z
" clip-path="url(#p97805f3a89)"/>
   </g>
   <g id="patch_100">
    <path d="M 391.928595 162.432 
L 395.207934 162.432 
L 395.207934 153.793178 
L 391.928595 153.793178 
z
" clip-path="url(#p97805f3a89)"/>
   </g>
   <g id="patch_101">
    <path d="M 395.207934 162.432 
L 398.487273 162.432 
L 398.487273 151.861662 
L 395.207934 151.861662 
z
" clip-path="url(#p97805f3a89)"/>
   </g>
   <g id="matplotlib.axis_1">
    <g id="xtick_1">
     <g id="line2d_1">
      <defs>
       <path id="m8d450b6553" d="M 0 0 
L 0 3.5 
" style="stroke: #000000; stroke-width: 0.8"/>
      </defs>
      <g>
       <use xlink:href="#m8d450b6553" x="73.832727" y="162.432" style="stroke: #000000; stroke-width: 0.8"/>
      </g>
     </g>
     <g id="text_1">
      <!-- −50 -->
      <g transform="translate(63.280384 177.030437) scale(0.1 -0.1)">
       <defs>
        <path id="DejaVuSans-2212" d="M 678 2272 
L 4684 2272 
L 4684 1741 
L 678 1741 
L 678 2272 
z
" transform="scale(0.015625)"/>
        <path id="DejaVuSans-35" d="M 691 4666 
L 3169 4666 
L 3169 4134 
L 1269 4134 
L 1269 2991 
Q 1406 3038 1543 3061 
Q 1681 3084 1819 3084 
Q 2600 3084 3056 2656 
Q 3513 2228 3513 1497 
Q 3513 744 3044 326 
Q 2575 -91 1722 -91 
Q 1428 -91 1123 -41 
Q 819 9 494 109 
L 494 744 
Q 775 591 1075 516 
Q 1375 441 1709 441 
Q 2250 441 2565 725 
Q 2881 1009 2881 1497 
Q 2881 1984 2565 2268 
Q 2250 2553 1709 2553 
Q 1456 2553 1204 2497 
Q 953 2441 691 2322 
L 691 4666 
z
" transform="scale(0.015625)"/>
        <path id="DejaVuSans-30" d="M 2034 4250 
Q 1547 4250 1301 3770 
Q 1056 3291 1056 2328 
Q 1056 1369 1301 889 
Q 1547 409 2034 409 
Q 2525 409 2770 889 
Q 3016 1369 3016 2328 
Q 3016 3291 2770 3770 
Q 2525 4250 2034 4250 
z
M 2034 4750 
Q 2819 4750 3233 4129 
Q 3647 3509 3647 2328 
Q 3647 1150 3233 529 
Q 2819 -91 2034 -91 
Q 1250 -91 836 529 
Q 422 1150 422 2328 
Q 422 3509 836 4129 
Q 1250 4750 2034 4750 
z
" transform="scale(0.015625)"/>
       </defs>
       <use xlink:href="#DejaVuSans-2212"/>
       <use xlink:href="#DejaVuSans-35" x="83.789062"/>
       <use xlink:href="#DejaVuSans-30" x="147.412109"/>
      </g>
     </g>
    </g>
    <g id="xtick_2">
     <g id="line2d_2">
      <g>
       <use xlink:href="#m8d450b6553" x="106.626116" y="162.432" style="stroke: #000000; stroke-width: 0.8"/>
      </g>
     </g>
     <g id="text_2">
      <!-- −40 -->
      <g transform="translate(96.073772 177.030437) scale(0.1 -0.1)">
       <defs>
        <path id="DejaVuSans-34" d="M 2419 4116 
L 825 1625 
L 2419 1625 
L 2419 4116 
z
M 2253 4666 
L 3047 4666 
L 3047 1625 
L 3713 1625 
L 3713 1100 
L 3047 1100 
L 3047 0 
L 2419 0 
L 2419 1100 
L 313 1100 
L 313 1709 
L 2253 4666 
z
" transform="scale(0.015625)"/>
       </defs>
       <use xlink:href="#DejaVuSans-2212"/>
       <use xlink:href="#DejaVuSans-34" x="83.789062"/>
       <use xlink:href="#DejaVuSans-30" x="147.412109"/>
      </g>
     </g>
    </g>
    <g id="xtick_3">
     <g id="line2d_3">
      <g>
       <use xlink:href="#m8d450b6553" x="139.419504" y="162.432" style="stroke: #000000; stroke-width: 0.8"/>
      </g>
     </g>
     <g id="text_3">
      <!-- −30 -->
      <g transform="translate(128.86716 177.030437) scale(0.1 -0.1)">
       <defs>
        <path id="DejaVuSans-33" d="M 2597 2516 
Q 3050 2419 3304 2112 
Q 3559 1806 3559 1356 
Q 3559 666 3084 287 
Q 2609 -91 1734 -91 
Q 1441 -91 1130 -33 
Q 819 25 488 141 
L 488 750 
Q 750 597 1062 519 
Q 1375 441 1716 441 
Q 2309 441 2620 675 
Q 2931 909 2931 1356 
Q 2931 1769 2642 2001 
Q 2353 2234 1838 2234 
L 1294 2234 
L 1294 2753 
L 1863 2753 
Q 2328 2753 2575 2939 
Q 2822 3125 2822 3475 
Q 2822 3834 2567 4026 
Q 2313 4219 1838 4219 
Q 1578 4219 1281 4162 
Q 984 4106 628 3988 
L 628 4550 
Q 988 4650 1302 4700 
Q 1616 4750 1894 4750 
Q 2613 4750 3031 4423 
Q 3450 4097 3450 3541 
Q 3450 3153 3228 2886 
Q 3006 2619 2597 2516 
z
" transform="scale(0.015625)"/>
       </defs>
       <use xlink:href="#DejaVuSans-2212"/>
       <use xlink:href="#DejaVuSans-33" x="83.789062"/>
       <use xlink:href="#DejaVuSans-30" x="147.412109"/>
      </g>
     </g>
    </g>
    <g id="xtick_4">
     <g id="line2d_4">
      <g>
       <use xlink:href="#m8d450b6553" x="172.212893" y="162.432" style="stroke: #000000; stroke-width: 0.8"/>
      </g>
     </g>
     <g id="text_4">
      <!-- −20 -->
      <g transform="translate(161.660549 177.030437) scale(0.1 -0.1)">
       <defs>
        <path id="DejaVuSans-32" d="M 1228 531 
L 3431 531 
L 3431 0 
L 469 0 
L 469 531 
Q 828 903 1448 1529 
Q 2069 2156 2228 2338 
Q 2531 2678 2651 2914 
Q 2772 3150 2772 3378 
Q 2772 3750 2511 3984 
Q 2250 4219 1831 4219 
Q 1534 4219 1204 4116 
Q 875 4013 500 3803 
L 500 4441 
Q 881 4594 1212 4672 
Q 1544 4750 1819 4750 
Q 2544 4750 2975 4387 
Q 3406 4025 3406 3419 
Q 3406 3131 3298 2873 
Q 3191 2616 2906 2266 
Q 2828 2175 2409 1742 
Q 1991 1309 1228 531 
z
" transform="scale(0.015625)"/>
       </defs>
       <use xlink:href="#DejaVuSans-2212"/>
       <use xlink:href="#DejaVuSans-32" x="83.789062"/>
       <use xlink:href="#DejaVuSans-30" x="147.412109"/>
      </g>
     </g>
    </g>
    <g id="xtick_5">
     <g id="line2d_5">
      <g>
       <use xlink:href="#m8d450b6553" x="205.006281" y="162.432" style="stroke: #000000; stroke-width: 0.8"/>
      </g>
     </g>
     <g id="text_5">
      <!-- −10 -->
      <g transform="translate(194.453937 177.030437) scale(0.1 -0.1)">
       <defs>
        <path id="DejaVuSans-31" d="M 794 531 
L 1825 531 
L 1825 4091 
L 703 3866 
L 703 4441 
L 1819 4666 
L 2450 4666 
L 2450 531 
L 3481 531 
L 3481 0 
L 794 0 
L 794 531 
z
" transform="scale(0.015625)"/>
       </defs>
       <use xlink:href="#DejaVuSans-2212"/>
       <use xlink:href="#DejaVuSans-31" x="83.789062"/>
       <use xlink:href="#DejaVuSans-30" x="147.412109"/>
      </g>
     </g>
    </g>
    <g id="xtick_6">
     <g id="line2d_6">
      <g>
       <use xlink:href="#m8d450b6553" x="237.799669" y="162.432" style="stroke: #000000; stroke-width: 0.8"/>
      </g>
     </g>
     <g id="text_6">
      <!-- 0 -->
      <g transform="translate(234.618419 177.030437) scale(0.1 -0.1)">
       <use xlink:href="#DejaVuSans-30"/>
      </g>
     </g>
    </g>
    <g id="xtick_7">
     <g id="line2d_7">
      <g>
       <use xlink:href="#m8d450b6553" x="270.593058" y="162.432" style="stroke: #000000; stroke-width: 0.8"/>
      </g>
     </g>
     <g id="text_7">
      <!-- 10 -->
      <g transform="translate(264.230558 177.030437) scale(0.1 -0.1)">
       <use xlink:href="#DejaVuSans-31"/>
       <use xlink:href="#DejaVuSans-30" x="63.623047"/>
      </g>
     </g>
    </g>
    <g id="xtick_8">
     <g id="line2d_8">
      <g>
       <use xlink:href="#m8d450b6553" x="303.386446" y="162.432" style="stroke: #000000; stroke-width: 0.8"/>
      </g>
     </g>
     <g id="text_8">
      <!-- 20 -->
      <g transform="translate(297.023946 177.030437) scale(0.1 -0.1)">
       <use xlink:href="#DejaVuSans-32"/>
       <use xlink:href="#DejaVuSans-30" x="63.623047"/>
      </g>
     </g>
    </g>
    <g id="xtick_9">
     <g id="line2d_9">
      <g>
       <use xlink:href="#m8d450b6553" x="336.179835" y="162.432" style="stroke: #000000; stroke-width: 0.8"/>
      </g>
     </g>
     <g id="text_9">
      <!-- 30 -->
      <g transform="translate(329.817335 177.030437) scale(0.1 -0.1)">
       <use xlink:href="#DejaVuSans-33"/>
       <use xlink:href="#DejaVuSans-30" x="63.623047"/>
      </g>
     </g>
    </g>
    <g id="xtick_10">
     <g id="line2d_10">
      <g>
       <use xlink:href="#m8d450b6553" x="368.973223" y="162.432" style="stroke: #000000; stroke-width: 0.8"/>
      </g>
     </g>
     <g id="text_10">
      <!-- 40 -->
      <g transform="translate(362.610723 177.030437) scale(0.1 -0.1)">
       <use xlink:href="#DejaVuSans-34"/>
       <use xlink:href="#DejaVuSans-30" x="63.623047"/>
      </g>
     </g>
    </g>
   </g>
   <g id="matplotlib.axis_2">
    <g id="ytick_1">
     <g id="line2d_11">
      <defs>
       <path id="m8d526b423f" d="M 0 0 
L -3.5 0 
" style="stroke: #000000; stroke-width: 0.8"/>
      </defs>
      <g>
       <use xlink:href="#m8d526b423f" x="57.6" y="162.432" style="stroke: #000000; stroke-width: 0.8"/>
      </g>
     </g>
     <g id="text_11">
      <!-- 0 -->
      <g transform="translate(44.2375 166.231219) scale(0.1 -0.1)">
       <use xlink:href="#DejaVuSans-30"/>
      </g>
     </g>
    </g>
    <g id="ytick_2">
     <g id="line2d_12">
      <g>
       <use xlink:href="#m8d526b423f" x="57.6" y="123.173549" style="stroke: #000000; stroke-width: 0.8"/>
      </g>
     </g>
     <g id="text_12">
      <!-- 20000 -->
      <g transform="translate(18.7875 126.972767) scale(0.1 -0.1)">
       <use xlink:href="#DejaVuSans-32"/>
       <use xlink:href="#DejaVuSans-30" x="63.623047"/>
       <use xlink:href="#DejaVuSans-30" x="127.246094"/>
       <use xlink:href="#DejaVuSans-30" x="190.869141"/>
       <use xlink:href="#DejaVuSans-30" x="254.492188"/>
      </g>
     </g>
    </g>
    <g id="ytick_3">
     <g id="line2d_13">
      <g>
       <use xlink:href="#m8d526b423f" x="57.6" y="83.915097" style="stroke: #000000; stroke-width: 0.8"/>
      </g>
     </g>
     <g id="text_13">
      <!-- 40000 -->
      <g transform="translate(18.7875 87.714316) scale(0.1 -0.1)">
       <use xlink:href="#DejaVuSans-34"/>
       <use xlink:href="#DejaVuSans-30" x="63.623047"/>
       <use xlink:href="#DejaVuSans-30" x="127.246094"/>
       <use xlink:href="#DejaVuSans-30" x="190.869141"/>
       <use xlink:href="#DejaVuSans-30" x="254.492188"/>
      </g>
     </g>
    </g>
    <g id="ytick_4">
     <g id="line2d_14">
      <g>
       <use xlink:href="#m8d526b423f" x="57.6" y="44.656646" style="stroke: #000000; stroke-width: 0.8"/>
      </g>
     </g>
     <g id="text_14">
      <!-- 60000 -->
      <g transform="translate(18.7875 48.455864) scale(0.1 -0.1)">
       <defs>
        <path id="DejaVuSans-36" d="M 2113 2584 
Q 1688 2584 1439 2293 
Q 1191 2003 1191 1497 
Q 1191 994 1439 701 
Q 1688 409 2113 409 
Q 2538 409 2786 701 
Q 3034 994 3034 1497 
Q 3034 2003 2786 2293 
Q 2538 2584 2113 2584 
z
M 3366 4563 
L 3366 3988 
Q 3128 4100 2886 4159 
Q 2644 4219 2406 4219 
Q 1781 4219 1451 3797 
Q 1122 3375 1075 2522 
Q 1259 2794 1537 2939 
Q 1816 3084 2150 3084 
Q 2853 3084 3261 2657 
Q 3669 2231 3669 1497 
Q 3669 778 3244 343 
Q 2819 -91 2113 -91 
Q 1303 -91 875 529 
Q 447 1150 447 2328 
Q 447 3434 972 4092 
Q 1497 4750 2381 4750 
Q 2619 4750 2861 4703 
Q 3103 4656 3366 4563 
z
" transform="scale(0.015625)"/>
       </defs>
       <use xlink:href="#DejaVuSans-36"/>
       <use xlink:href="#DejaVuSans-30" x="63.623047"/>
       <use xlink:href="#DejaVuSans-30" x="127.246094"/>
       <use xlink:href="#DejaVuSans-30" x="190.869141"/>
       <use xlink:href="#DejaVuSans-30" x="254.492188"/>
      </g>
     </g>
    </g>
    <g id="text_15">
     <!-- siLuc - Raw read count -->
     <g transform="translate(12.707812 158.601219) rotate(-90) scale(0.1 -0.1)">
      <defs>
       <path id="DejaVuSans-73" d="M 2834 3397 
L 2834 2853 
Q 2591 2978 2328 3040 
Q 2066 3103 1784 3103 
Q 1356 3103 1142 2972 
Q 928 2841 928 2578 
Q 928 2378 1081 2264 
Q 1234 2150 1697 2047 
L 1894 2003 
Q 2506 1872 2764 1633 
Q 3022 1394 3022 966 
Q 3022 478 2636 193 
Q 2250 -91 1575 -91 
Q 1294 -91 989 -36 
Q 684 19 347 128 
L 347 722 
Q 666 556 975 473 
Q 1284 391 1588 391 
Q 1994 391 2212 530 
Q 2431 669 2431 922 
Q 2431 1156 2273 1281 
Q 2116 1406 1581 1522 
L 1381 1569 
Q 847 1681 609 1914 
Q 372 2147 372 2553 
Q 372 3047 722 3315 
Q 1072 3584 1716 3584 
Q 2034 3584 2315 3537 
Q 2597 3491 2834 3397 
z
" transform="scale(0.015625)"/>
       <path id="DejaVuSans-69" d="M 603 3500 
L 1178 3500 
L 1178 0 
L 603 0 
L 603 3500 
z
M 603 4863 
L 1178 4863 
L 1178 4134 
L 603 4134 
L 603 4863 
z
" transform="scale(0.015625)"/>
       <path id="DejaVuSans-4c" d="M 628 4666 
L 1259 4666 
L 1259 531 
L 3531 531 
L 3531 0 
L 628 0 
L 628 4666 
z
" transform="scale(0.015625)"/>
       <path id="DejaVuSans-75" d="M 544 1381 
L 544 3500 
L 1119 3500 
L 1119 1403 
Q 1119 906 1312 657 
Q 1506 409 1894 409 
Q 2359 409 2629 706 
Q 2900 1003 2900 1516 
L 2900 3500 
L 3475 3500 
L 3475 0 
L 2900 0 
L 2900 538 
Q 2691 219 2414 64 
Q 2138 -91 1772 -91 
Q 1169 -91 856 284 
Q 544 659 544 1381 
z
M 1991 3584 
L 1991 3584 
z
" transform="scale(0.015625)"/>
       <path id="DejaVuSans-63" d="M 3122 3366 
L 3122 2828 
Q 2878 2963 2633 3030 
Q 2388 3097 2138 3097 
Q 1578 3097 1268 2742 
Q 959 2388 959 1747 
Q 959 1106 1268 751 
Q 1578 397 2138 397 
Q 2388 397 2633 464 
Q 2878 531 3122 666 
L 3122 134 
Q 2881 22 2623 -34 
Q 2366 -91 2075 -91 
Q 1284 -91 818 406 
Q 353 903 353 1747 
Q 353 2603 823 3093 
Q 1294 3584 2113 3584 
Q 2378 3584 2631 3529 
Q 2884 3475 3122 3366 
z
" transform="scale(0.015625)"/>
       <path id="DejaVuSans-20" transform="scale(0.015625)"/>
       <path id="DejaVuSans-2d" d="M 313 2009 
L 1997 2009 
L 1997 1497 
L 313 1497 
L 313 2009 
z
" transform="scale(0.015625)"/>
       <path id="DejaVuSans-52" d="M 2841 2188 
Q 3044 2119 3236 1894 
Q 3428 1669 3622 1275 
L 4263 0 
L 3584 0 
L 2988 1197 
Q 2756 1666 2539 1819 
Q 2322 1972 1947 1972 
L 1259 1972 
L 1259 0 
L 628 0 
L 628 4666 
L 2053 4666 
Q 2853 4666 3247 4331 
Q 3641 3997 3641 3322 
Q 3641 2881 3436 2590 
Q 3231 2300 2841 2188 
z
M 1259 4147 
L 1259 2491 
L 2053 2491 
Q 2509 2491 2742 2702 
Q 2975 2913 2975 3322 
Q 2975 3731 2742 3939 
Q 2509 4147 2053 4147 
L 1259 4147 
z
" transform="scale(0.015625)"/>
       <path id="DejaVuSans-61" d="M 2194 1759 
Q 1497 1759 1228 1600 
Q 959 1441 959 1056 
Q 959 750 1161 570 
Q 1363 391 1709 391 
Q 2188 391 2477 730 
Q 2766 1069 2766 1631 
L 2766 1759 
L 2194 1759 
z
M 3341 1997 
L 3341 0 
L 2766 0 
L 2766 531 
Q 2569 213 2275 61 
Q 1981 -91 1556 -91 
Q 1019 -91 701 211 
Q 384 513 384 1019 
Q 384 1609 779 1909 
Q 1175 2209 1959 2209 
L 2766 2209 
L 2766 2266 
Q 2766 2663 2505 2880 
Q 2244 3097 1772 3097 
Q 1472 3097 1187 3025 
Q 903 2953 641 2809 
L 641 3341 
Q 956 3463 1253 3523 
Q 1550 3584 1831 3584 
Q 2591 3584 2966 3190 
Q 3341 2797 3341 1997 
z
" transform="scale(0.015625)"/>
       <path id="DejaVuSans-77" d="M 269 3500 
L 844 3500 
L 1563 769 
L 2278 3500 
L 2956 3500 
L 3675 769 
L 4391 3500 
L 4966 3500 
L 4050 0 
L 3372 0 
L 2619 2869 
L 1863 0 
L 1184 0 
L 269 3500 
z
" transform="scale(0.015625)"/>
       <path id="DejaVuSans-72" d="M 2631 2963 
Q 2534 3019 2420 3045 
Q 2306 3072 2169 3072 
Q 1681 3072 1420 2755 
Q 1159 2438 1159 1844 
L 1159 0 
L 581 0 
L 581 3500 
L 1159 3500 
L 1159 2956 
Q 1341 3275 1631 3429 
Q 1922 3584 2338 3584 
Q 2397 3584 2469 3576 
Q 2541 3569 2628 3553 
L 2631 2963 
z
" transform="scale(0.015625)"/>
       <path id="DejaVuSans-65" d="M 3597 1894 
L 3597 1613 
L 953 1613 
Q 991 1019 1311 708 
Q 1631 397 2203 397 
Q 2534 397 2845 478 
Q 3156 559 3463 722 
L 3463 178 
Q 3153 47 2828 -22 
Q 2503 -91 2169 -91 
Q 1331 -91 842 396 
Q 353 884 353 1716 
Q 353 2575 817 3079 
Q 1281 3584 2069 3584 
Q 2775 3584 3186 3129 
Q 3597 2675 3597 1894 
z
M 3022 2063 
Q 3016 2534 2758 2815 
Q 2500 3097 2075 3097 
Q 1594 3097 1305 2825 
Q 1016 2553 972 2059 
L 3022 2063 
z
" transform="scale(0.015625)"/>
       <path id="DejaVuSans-64" d="M 2906 2969 
L 2906 4863 
L 3481 4863 
L 3481 0 
L 2906 0 
L 2906 525 
Q 2725 213 2448 61 
Q 2172 -91 1784 -91 
Q 1150 -91 751 415 
Q 353 922 353 1747 
Q 353 2572 751 3078 
Q 1150 3584 1784 3584 
Q 2172 3584 2448 3432 
Q 2725 3281 2906 2969 
z
M 947 1747 
Q 947 1113 1208 752 
Q 1469 391 1925 391 
Q 2381 391 2643 752 
Q 2906 1113 2906 1747 
Q 2906 2381 2643 2742 
Q 2381 3103 1925 3103 
Q 1469 3103 1208 2742 
Q 947 2381 947 1747 
z
" transform="scale(0.015625)"/>
       <path id="DejaVuSans-6f" d="M 1959 3097 
Q 1497 3097 1228 2736 
Q 959 2375 959 1747 
Q 959 1119 1226 758 
Q 1494 397 1959 397 
Q 2419 397 2687 759 
Q 2956 1122 2956 1747 
Q 2956 2369 2687 2733 
Q 2419 3097 1959 3097 
z
M 1959 3584 
Q 2709 3584 3137 3096 
Q 3566 2609 3566 1747 
Q 3566 888 3137 398 
Q 2709 -91 1959 -91 
Q 1206 -91 779 398 
Q 353 888 353 1747 
Q 353 2609 779 3096 
Q 1206 3584 1959 3584 
z
" transform="scale(0.015625)"/>
       <path id="DejaVuSans-6e" d="M 3513 2113 
L 3513 0 
L 2938 0 
L 2938 2094 
Q 2938 2591 2744 2837 
Q 2550 3084 2163 3084 
Q 1697 3084 1428 2787 
Q 1159 2491 1159 1978 
L 1159 0 
L 581 0 
L 581 3500 
L 1159 3500 
L 1159 2956 
Q 1366 3272 1645 3428 
Q 1925 3584 2291 3584 
Q 2894 3584 3203 3211 
Q 3513 2838 3513 2113 
z
" transform="scale(0.015625)"/>
       <path id="DejaVuSans-74" d="M 1172 4494 
L 1172 3500 
L 2356 3500 
L 2356 3053 
L 1172 3053 
L 1172 1153 
Q 1172 725 1289 603 
Q 1406 481 1766 481 
L 2356 481 
L 2356 0 
L 1766 0 
Q 1100 0 847 248 
Q 594 497 594 1153 
L 594 3053 
L 172 3053 
L 172 3500 
L 594 3500 
L 594 4494 
L 1172 4494 
z
" transform="scale(0.015625)"/>
      </defs>
      <use xlink:href="#DejaVuSans-73"/>
      <use xlink:href="#DejaVuSans-69" x="52.099609"/>
      <use xlink:href="#DejaVuSans-4c" x="79.882812"/>
      <use xlink:href="#DejaVuSans-75" x="133.845703"/>
      <use xlink:href="#DejaVuSans-63" x="197.224609"/>
      <use xlink:href="#DejaVuSans-20" x="252.205078"/>
      <use xlink:href="#DejaVuSans-2d" x="283.992188"/>
      <use xlink:href="#DejaVuSans-20" x="320.076172"/>
      <use xlink:href="#DejaVuSans-52" x="351.863281"/>
      <use xlink:href="#DejaVuSans-61" x="419.095703"/>
      <use xlink:href="#DejaVuSans-77" x="480.375"/>
      <use xlink:href="#DejaVuSans-20" x="562.162109"/>
      <use xlink:href="#DejaVuSans-72" x="593.949219"/>
      <use xlink:href="#DejaVuSans-65" x="632.8125"/>
      <use xlink:href="#DejaVuSans-61" x="694.335938"/>
      <use xlink:href="#DejaVuSans-64" x="755.615234"/>
      <use xlink:href="#DejaVuSans-20" x="819.091797"/>
      <use xlink:href="#DejaVuSans-63" x="850.878906"/>
      <use xlink:href="#DejaVuSans-6f" x="905.859375"/>
      <use xlink:href="#DejaVuSans-75" x="967.041016"/>
      <use xlink:href="#DejaVuSans-6e" x="1030.419922"/>
      <use xlink:href="#DejaVuSans-74" x="1093.798828"/>
     </g>
    </g>
   </g>
   <g id="patch_102">
    <path d="M 57.6 162.432 
L 57.6 41.472 
" style="fill: none; stroke: #000000; stroke-width: 0.8; stroke-linejoin: miter; stroke-linecap: square"/>
   </g>
   <g id="patch_103">
    <path d="M 414.72 162.432 
L 414.72 41.472 
" style="fill: none; stroke: #000000; stroke-width: 0.8; stroke-linejoin: miter; stroke-linecap: square"/>
   </g>
   <g id="patch_104">
    <path d="M 57.6 162.432 
L 414.72 162.432 
" style="fill: none; stroke: #000000; stroke-width: 0.8; stroke-linejoin: miter; stroke-linecap: square"/>
   </g>
   <g id="patch_105">
    <path d="M 57.6 41.472 
L 414.72 41.472 
" style="fill: none; stroke: #000000; stroke-width: 0.8; stroke-linejoin: miter; stroke-linecap: square"/>
   </g>
  </g>
  <g id="axes_2">
   <g id="patch_106">
    <path d="M 57.6 307.584 
L 414.72 307.584 
L 414.72 186.624 
L 57.6 186.624 
z
" style="fill: #ffffff"/>
   </g>
   <g id="patch_107">
    <path d="M 73.832727 307.584 
L 77.112066 307.584 
L 77.112066 304.650848 
L 73.832727 304.650848 
z
" clip-path="url(#p53d1bea798)"/>
   </g>
   <g id="patch_108">
    <path d="M 77.112066 307.584 
L 80.391405 307.584 
L 80.391405 304.789435 
L 77.112066 304.789435 
z
" clip-path="url(#p53d1bea798)"/>
   </g>
   <g id="patch_109">
    <path d="M 80.391405 307.584 
L 83.670744 307.584 
L 83.670744 305.197043 
L 80.391405 305.197043 
z
" clip-path="url(#p53d1bea798)"/>
   </g>
   <g id="patch_110">
    <path d="M 83.670744 307.584 
L 86.950083 307.584 
L 86.950083 303.654652 
L 83.670744 303.654652 
z
" clip-path="url(#p53d1bea798)"/>
   </g>
   <g id="patch_111">
    <path d="M 86.950083 307.584 
L 90.229421 307.584 
L 90.229421 304.747043 
L 86.950083 304.747043 
z
" clip-path="url(#p53d1bea798)"/>
   </g>
   <g id="patch_112">
    <path d="M 90.229421 307.584 
L 93.50876 307.584 
L 93.50876 304.280739 
L 90.229421 304.280739 
z
" clip-path="url(#p53d1bea798)"/>
   </g>
   <g id="patch_113">
    <path d="M 93.50876 307.584 
L 96.788099 307.584 
L 96.788099 304.535087 
L 93.50876 304.535087 
z
" clip-path="url(#p53d1bea798)"/>
   </g>
   <g id="patch_114">
    <path d="M 96.788099 307.584 
L 100.067438 307.584 
L 100.067438 304.230196 
L 96.788099 304.230196 
z
" clip-path="url(#p53d1bea798)"/>
   </g>
   <g id="patch_115">
    <path d="M 100.067438 307.584 
L 103.346777 307.584 
L 103.346777 304.253022 
L 100.067438 304.253022 
z
" clip-path="url(#p53d1bea798)"/>
   </g>
   <g id="patch_116">
    <path d="M 103.346777 307.584 
L 106.626116 307.584 
L 106.626116 303.442696 
L 103.346777 303.442696 
z
" clip-path="url(#p53d1bea798)"/>
   </g>
   <g id="patch_117">
    <path d="M 106.626116 307.584 
L 109.905455 307.584 
L 109.905455 304.036174 
L 106.626116 304.036174 
z
" clip-path="url(#p53d1bea798)"/>
   </g>
   <g id="patch_118">
    <path d="M 109.905455 307.584 
L 113.184793 307.584 
L 113.184793 304.277478 
L 109.905455 304.277478 
z
" clip-path="url(#p53d1bea798)"/>
   </g>
   <g id="patch_119">
    <path d="M 113.184793 307.584 
L 116.464132 307.584 
L 116.464132 303.768783 
L 113.184793 303.768783 
z
" clip-path="url(#p53d1bea798)"/>
   </g>
   <g id="patch_120">
    <path d="M 116.464132 307.584 
L 119.743471 307.584 
L 119.743471 304.536717 
L 116.464132 304.536717 
z
" clip-path="url(#p53d1bea798)"/>
   </g>
   <g id="patch_121">
    <path d="M 119.743471 307.584 
L 123.02281 307.584 
L 123.02281 301.942696 
L 119.743471 301.942696 
z
" clip-path="url(#p53d1bea798)"/>
   </g>
   <g id="patch_122">
    <path d="M 123.02281 307.584 
L 126.302149 307.584 
L 126.302149 303.724761 
L 123.02281 303.724761 
z
" clip-path="url(#p53d1bea798)"/>
   </g>
   <g id="patch_123">
    <path d="M 126.302149 307.584 
L 129.581488 307.584 
L 129.581488 304.328022 
L 126.302149 304.328022 
z
" clip-path="url(#p53d1bea798)"/>
   </g>
   <g id="patch_124">
    <path d="M 129.581488 307.584 
L 132.860826 307.584 
L 132.860826 304.347587 
L 129.581488 304.347587 
z
" clip-path="url(#p53d1bea798)"/>
   </g>
   <g id="patch_125">
    <path d="M 132.860826 307.584 
L 136.140165 307.584 
L 136.140165 303.91063 
L 132.860826 303.91063 
z
" clip-path="url(#p53d1bea798)"/>
   </g>
   <g id="patch_126">
    <path d="M 136.140165 307.584 
L 139.419504 307.584 
L 139.419504 304.228565 
L 136.140165 304.228565 
z
" clip-path="url(#p53d1bea798)"/>
   </g>
   <g id="patch_127">
    <path d="M 139.419504 307.584 
L 142.698843 307.584 
L 142.698843 304.720957 
L 139.419504 304.720957 
z
" clip-path="url(#p53d1bea798)"/>
   </g>
   <g id="patch_128">
    <path d="M 142.698843 307.584 
L 145.978182 307.584 
L 145.978182 303.789978 
L 142.698843 303.789978 
z
" clip-path="url(#p53d1bea798)"/>
   </g>
   <g id="patch_129">
    <path d="M 145.978182 307.584 
L 149.257521 307.584 
L 149.257521 304.328022 
L 145.978182 304.328022 
z
" clip-path="url(#p53d1bea798)"/>
   </g>
   <g id="patch_130">
    <path d="M 149.257521 307.584 
L 152.53686 307.584 
L 152.53686 303.855196 
L 149.257521 303.855196 
z
" clip-path="url(#p53d1bea798)"/>
   </g>
   <g id="patch_131">
    <path d="M 152.53686 307.584 
L 155.816198 307.584 
L 155.816198 303.543783 
L 152.53686 303.543783 
z
" clip-path="url(#p53d1bea798)"/>
   </g>
   <g id="patch_132">
    <path d="M 155.816198 307.584 
L 159.095537 307.584 
L 159.095537 304.458457 
L 155.816198 304.458457 
z
" clip-path="url(#p53d1bea798)"/>
   </g>
   <g id="patch_133">
    <path d="M 159.095537 307.584 
L 162.374876 307.584 
L 162.374876 303.993783 
L 159.095537 303.993783 
z
" clip-path="url(#p53d1bea798)"/>
   </g>
   <g id="patch_134">
    <path d="M 162.374876 307.584 
L 165.654215 307.584 
L 165.654215 303.654652 
L 162.374876 303.654652 
z
" clip-path="url(#p53d1bea798)"/>
   </g>
   <g id="patch_135">
    <path d="M 165.654215 307.584 
L 168.933554 307.584 
L 168.933554 303.737804 
L 165.654215 303.737804 
z
" clip-path="url(#p53d1bea798)"/>
   </g>
   <g id="patch_136">
    <path d="M 168.933554 307.584 
L 172.212893 307.584 
L 172.212893 303.895957 
L 168.933554 303.895957 
z
" clip-path="url(#p53d1bea798)"/>
   </g>
   <g id="patch_137">
    <path d="M 172.212893 307.584 
L 175.492231 307.584 
L 175.492231 303.351391 
L 172.212893 303.351391 
z
" clip-path="url(#p53d1bea798)"/>
   </g>
   <g id="patch_138">
    <path d="M 175.492231 307.584 
L 178.77157 307.584 
L 178.77157 304.745413 
L 175.492231 304.745413 
z
" clip-path="url(#p53d1bea798)"/>
   </g>
   <g id="patch_139">
    <path d="M 178.77157 307.584 
L 182.050909 307.584 
L 182.050909 302.513348 
L 178.77157 302.513348 
z
" clip-path="url(#p53d1bea798)"/>
   </g>
   <g id="patch_140">
    <path d="M 182.050909 307.584 
L 185.330248 307.584 
L 185.330248 303.15737 
L 182.050909 303.15737 
z
" clip-path="url(#p53d1bea798)"/>
   </g>
   <g id="patch_141">
    <path d="M 185.330248 307.584 
L 188.609587 307.584 
L 188.609587 304.590522 
L 185.330248 304.590522 
z
" clip-path="url(#p53d1bea798)"/>
   </g>
   <g id="patch_142">
    <path d="M 188.609587 307.584 
L 191.888926 307.584 
L 191.888926 305.245957 
L 188.609587 305.245957 
z
" clip-path="url(#p53d1bea798)"/>
   </g>
   <g id="patch_143">
    <path d="M 191.888926 307.584 
L 195.168264 307.584 
L 195.168264 302.942152 
L 191.888926 302.942152 
z
" clip-path="url(#p53d1bea798)"/>
   </g>
   <g id="patch_144">
    <path d="M 195.168264 307.584 
L 198.447603 307.584 
L 198.447603 239.423674 
L 195.168264 239.423674 
z
" clip-path="url(#p53d1bea798)"/>
   </g>
   <g id="patch_145">
    <path d="M 198.447603 307.584 
L 201.726942 307.584 
L 201.726942 192.384 
L 198.447603 192.384 
z
" clip-path="url(#p53d1bea798)"/>
   </g>
   <g id="patch_146">
    <path d="M 201.726942 307.584 
L 205.006281 307.584 
L 205.006281 300.353022 
L 201.726942 300.353022 
z
" clip-path="url(#p53d1bea798)"/>
   </g>
   <g id="patch_147">
    <path d="M 205.006281 307.584 
L 208.28562 307.584 
L 208.28562 289.070413 
L 205.006281 289.070413 
z
" clip-path="url(#p53d1bea798)"/>
   </g>
   <g id="patch_148">
    <path d="M 208.28562 307.584 
L 211.564959 307.584 
L 211.564959 270.716609 
L 208.28562 270.716609 
z
" clip-path="url(#p53d1bea798)"/>
   </g>
   <g id="patch_149">
    <path d="M 211.564959 307.584 
L 214.844298 307.584 
L 214.844298 303.255196 
L 211.564959 303.255196 
z
" clip-path="url(#p53d1bea798)"/>
   </g>
   <g id="patch_150">
    <path d="M 214.844298 307.584 
L 218.123636 307.584 
L 218.123636 286.367152 
L 214.844298 286.367152 
z
" clip-path="url(#p53d1bea798)"/>
   </g>
   <g id="patch_151">
    <path d="M 218.123636 307.584 
L 221.402975 307.584 
L 221.402975 272.22313 
L 218.123636 272.22313 
z
" clip-path="url(#p53d1bea798)"/>
   </g>
   <g id="patch_152">
    <path d="M 221.402975 307.584 
L 224.682314 307.584 
L 224.682314 303.767152 
L 221.402975 303.767152 
z
" clip-path="url(#p53d1bea798)"/>
   </g>
   <g id="patch_153">
    <path d="M 224.682314 307.584 
L 227.961653 307.584 
L 227.961653 283.734 
L 224.682314 283.734 
z
" clip-path="url(#p53d1bea798)"/>
   </g>
   <g id="patch_154">
    <path d="M 227.961653 307.584 
L 231.240992 307.584 
L 231.240992 283.344326 
L 227.961653 283.344326 
z
" clip-path="url(#p53d1bea798)"/>
   </g>
   <g id="patch_155">
    <path d="M 231.240992 307.584 
L 234.520331 307.584 
L 234.520331 304.727478 
L 231.240992 304.727478 
z
" clip-path="url(#p53d1bea798)"/>
   </g>
   <g id="patch_156">
    <path d="M 234.520331 307.584 
L 237.799669 307.584 
L 237.799669 283.800848 
L 234.520331 283.800848 
z
" clip-path="url(#p53d1bea798)"/>
   </g>
   <g id="patch_157">
    <path d="M 237.799669 307.584 
L 241.079008 307.584 
L 241.079008 275.532913 
L 237.799669 275.532913 
z
" clip-path="url(#p53d1bea798)"/>
   </g>
   <g id="patch_158">
    <path d="M 241.079008 307.584 
L 244.358347 307.584 
L 244.358347 302.386174 
L 241.079008 302.386174 
z
" clip-path="url(#p53d1bea798)"/>
   </g>
   <g id="patch_159">
    <path d="M 244.358347 307.584 
L 247.637686 307.584 
L 247.637686 292.145413 
L 244.358347 292.145413 
z
" clip-path="url(#p53d1bea798)"/>
   </g>
   <g id="patch_160">
    <path d="M 247.637686 307.584 
L 250.917025 307.584 
L 250.917025 289.720957 
L 247.637686 289.720957 
z
" clip-path="url(#p53d1bea798)"/>
   </g>
   <g id="patch_161">
    <path d="M 250.917025 307.584 
L 254.196364 307.584 
L 254.196364 304.305196 
L 250.917025 304.305196 
z
" clip-path="url(#p53d1bea798)"/>
   </g>
   <g id="patch_162">
    <path d="M 254.196364 307.584 
L 257.475702 307.584 
L 257.475702 292.962261 
L 254.196364 292.962261 
z
" clip-path="url(#p53d1bea798)"/>
   </g>
   <g id="patch_163">
    <path d="M 257.475702 307.584 
L 260.755041 307.584 
L 260.755041 289.737261 
L 257.475702 289.737261 
z
" clip-path="url(#p53d1bea798)"/>
   </g>
   <g id="patch_164">
    <path d="M 260.755041 307.584 
L 264.03438 307.584 
L 264.03438 304.932913 
L 260.755041 304.932913 
z
" clip-path="url(#p53d1bea798)"/>
   </g>
   <g id="patch_165">
    <path d="M 264.03438 307.584 
L 267.313719 307.584 
L 267.313719 294.884543 
L 264.03438 294.884543 
z
" clip-path="url(#p53d1bea798)"/>
   </g>
   <g id="patch_166">
    <path d="M 267.313719 307.584 
L 270.593058 307.584 
L 270.593058 291.418239 
L 267.313719 291.418239 
z
" clip-path="url(#p53d1bea798)"/>
   </g>
   <g id="patch_167">
    <path d="M 270.593058 307.584 
L 273.872397 307.584 
L 273.872397 305.469326 
L 270.593058 305.469326 
z
" clip-path="url(#p53d1bea798)"/>
   </g>
   <g id="patch_168">
    <path d="M 273.872397 307.584 
L 277.151736 307.584 
L 277.151736 298.375304 
L 273.872397 298.375304 
z
" clip-path="url(#p53d1bea798)"/>
   </g>
   <g id="patch_169">
    <path d="M 277.151736 307.584 
L 280.431074 307.584 
L 280.431074 293.459543 
L 277.151736 293.459543 
z
" clip-path="url(#p53d1bea798)"/>
   </g>
   <g id="patch_170">
    <path d="M 280.431074 307.584 
L 283.710413 307.584 
L 283.710413 305.456283 
L 280.431074 305.456283 
z
" clip-path="url(#p53d1bea798)"/>
   </g>
   <g id="patch_171">
    <path d="M 283.710413 307.584 
L 286.989752 307.584 
L 286.989752 296.027478 
L 283.710413 296.027478 
z
" clip-path="url(#p53d1bea798)"/>
   </g>
   <g id="patch_172">
    <path d="M 286.989752 307.584 
L 290.269091 307.584 
L 290.269091 293.283457 
L 286.989752 293.283457 
z
" clip-path="url(#p53d1bea798)"/>
   </g>
   <g id="patch_173">
    <path d="M 290.269091 307.584 
L 293.54843 307.584 
L 293.54843 305.306283 
L 290.269091 305.306283 
z
" clip-path="url(#p53d1bea798)"/>
   </g>
   <g id="patch_174">
    <path d="M 293.54843 307.584 
L 296.827769 307.584 
L 296.827769 299.40737 
L 293.54843 299.40737 
z
" clip-path="url(#p53d1bea798)"/>
   </g>
   <g id="patch_175">
    <path d="M 296.827769 307.584 
L 300.107107 307.584 
L 300.107107 294.980739 
L 296.827769 294.980739 
z
" clip-path="url(#p53d1bea798)"/>
   </g>
   <g id="patch_176">
    <path d="M 300.107107 307.584 
L 303.386446 307.584 
L 303.386446 305.728565 
L 300.107107 305.728565 
z
" clip-path="url(#p53d1bea798)"/>
   </g>
   <g id="patch_177">
    <path d="M 303.386446 307.584 
L 306.665785 307.584 
L 306.665785 298.973674 
L 303.386446 298.973674 
z
" clip-path="url(#p53d1bea798)"/>
   </g>
   <g id="patch_178">
    <path d="M 306.665785 307.584 
L 309.945124 307.584 
L 309.945124 296.779109 
L 306.665785 296.779109 
z
" clip-path="url(#p53d1bea798)"/>
   </g>
   <g id="patch_179">
    <path d="M 309.945124 307.584 
L 313.224463 307.584 
L 313.224463 305.766065 
L 309.945124 305.766065 
z
" clip-path="url(#p53d1bea798)"/>
   </g>
   <g id="patch_180">
    <path d="M 313.224463 307.584 
L 316.503802 307.584 
L 316.503802 299.855739 
L 313.224463 299.855739 
z
" clip-path="url(#p53d1bea798)"/>
   </g>
   <g id="patch_181">
    <path d="M 316.503802 307.584 
L 319.78314 307.584 
L 319.78314 296.017696 
L 316.503802 296.017696 
z
" clip-path="url(#p53d1bea798)"/>
   </g>
   <g id="patch_182">
    <path d="M 319.78314 307.584 
L 323.062479 307.584 
L 323.062479 305.950304 
L 319.78314 305.950304 
z
" clip-path="url(#p53d1bea798)"/>
   </g>
   <g id="patch_183">
    <path d="M 323.062479 307.584 
L 326.341818 307.584 
L 326.341818 300.930196 
L 323.062479 300.930196 
z
" clip-path="url(#p53d1bea798)"/>
   </g>
   <g id="patch_184">
    <path d="M 326.341818 307.584 
L 329.621157 307.584 
L 329.621157 297.843783 
L 326.341818 297.843783 
z
" clip-path="url(#p53d1bea798)"/>
   </g>
   <g id="patch_185">
    <path d="M 329.621157 307.584 
L 332.900496 307.584 
L 332.900496 306.067696 
L 329.621157 306.067696 
z
" clip-path="url(#p53d1bea798)"/>
   </g>
   <g id="patch_186">
    <path d="M 332.900496 307.584 
L 336.179835 307.584 
L 336.179835 301.766609 
L 332.900496 301.766609 
z
" clip-path="url(#p53d1bea798)"/>
   </g>
   <g id="patch_187">
    <path d="M 336.179835 307.584 
L 339.459174 307.584 
L 339.459174 298.673674 
L 336.179835 298.673674 
z
" clip-path="url(#p53d1bea798)"/>
   </g>
   <g id="patch_188">
    <path d="M 339.459174 307.584 
L 342.738512 307.584 
L 342.738512 306.256826 
L 339.459174 306.256826 
z
" clip-path="url(#p53d1bea798)"/>
   </g>
   <g id="patch_189">
    <path d="M 342.738512 307.584 
L 346.017851 307.584 
L 346.017851 302.007913 
L 342.738512 302.007913 
z
" clip-path="url(#p53d1bea798)"/>
   </g>
   <g id="patch_190">
    <path d="M 346.017851 307.584 
L 349.29719 307.584 
L 349.29719 299.135087 
L 346.017851 299.135087 
z
" clip-path="url(#p53d1bea798)"/>
   </g>
   <g id="patch_191">
    <path d="M 349.29719 307.584 
L 352.576529 307.584 
L 352.576529 306.180196 
L 349.29719 306.180196 
z
" clip-path="url(#p53d1bea798)"/>
   </g>
   <g id="patch_192">
    <path d="M 352.576529 307.584 
L 355.855868 307.584 
L 355.855868 301.973674 
L 352.576529 301.973674 
z
" clip-path="url(#p53d1bea798)"/>
   </g>
   <g id="patch_193">
    <path d="M 355.855868 307.584 
L 359.135207 307.584 
L 359.135207 299.705739 
L 355.855868 299.705739 
z
" clip-path="url(#p53d1bea798)"/>
   </g>
   <g id="patch_194">
    <path d="M 359.135207 307.584 
L 362.414545 307.584 
L 362.414545 306.23237 
L 359.135207 306.23237 
z
" clip-path="url(#p53d1bea798)"/>
   </g>
   <g id="patch_195">
    <path d="M 362.414545 307.584 
L 365.693884 307.584 
L 365.693884 302.757913 
L 362.414545 302.757913 
z
" clip-path="url(#p53d1bea798)"/>
   </g>
   <g id="patch_196">
    <path d="M 365.693884 307.584 
L 368.973223 307.584 
L 368.973223 301.111174 
L 365.693884 301.111174 
z
" clip-path="url(#p53d1bea798)"/>
   </g>
   <g id="patch_197">
    <path d="M 368.973223 307.584 
L 372.252562 307.584 
L 372.252562 306.242152 
L 368.973223 306.242152 
z
" clip-path="url(#p53d1bea798)"/>
   </g>
   <g id="patch_198">
    <path d="M 372.252562 307.584 
L 375.531901 307.584 
L 375.531901 303.064435 
L 372.252562 303.064435 
z
" clip-path="url(#p53d1bea798)"/>
   </g>
   <g id="patch_199">
    <path d="M 375.531901 307.584 
L 378.81124 307.584 
L 378.81124 301.274217 
L 375.531901 301.274217 
z
" clip-path="url(#p53d1bea798)"/>
   </g>
   <g id="patch_200">
    <path d="M 378.81124 307.584 
L 382.090579 307.584 
L 382.090579 306.599217 
L 378.81124 306.599217 
z
" clip-path="url(#p53d1bea798)"/>
   </g>
   <g id="patch_201">
    <path d="M 382.090579 307.584 
L 385.369917 307.584 
L 385.369917 303.191609 
L 382.090579 303.191609 
z
" clip-path="url(#p53d1bea798)"/>
   </g>
   <g id="patch_202">
    <path d="M 385.369917 307.584 
L 388.649256 307.584 
L 388.649256 301.707913 
L 385.369917 301.707913 
z
" clip-path="url(#p53d1bea798)"/>
   </g>
   <g id="patch_203">
    <path d="M 388.649256 307.584 
L 391.928595 307.584 
L 391.928595 306.313891 
L 388.649256 306.313891 
z
" clip-path="url(#p53d1bea798)"/>
   </g>
   <g id="patch_204">
    <path d="M 391.928595 307.584 
L 395.207934 307.584 
L 395.207934 302.945413 
L 391.928595 302.945413 
z
" clip-path="url(#p53d1bea798)"/>
   </g>
   <g id="patch_205">
    <path d="M 395.207934 307.584 
L 398.487273 307.584 
L 398.487273 301.236717 
L 395.207934 301.236717 
z
" clip-path="url(#p53d1bea798)"/>
   </g>
   <g id="matplotlib.axis_3">
    <g id="xtick_11">
     <g id="line2d_15">
      <g>
       <use xlink:href="#m8d450b6553" x="73.832727" y="307.584" style="stroke: #000000; stroke-width: 0.8"/>
      </g>
     </g>
     <g id="text_16">
      <!-- −50 -->
      <g transform="translate(63.280384 322.182437) scale(0.1 -0.1)">
       <use xlink:href="#DejaVuSans-2212"/>
       <use xlink:href="#DejaVuSans-35" x="83.789062"/>
       <use xlink:href="#DejaVuSans-30" x="147.412109"/>
      </g>
     </g>
    </g>
    <g id="xtick_12">
     <g id="line2d_16">
      <g>
       <use xlink:href="#m8d450b6553" x="106.626116" y="307.584" style="stroke: #000000; stroke-width: 0.8"/>
      </g>
     </g>
     <g id="text_17">
      <!-- −40 -->
      <g transform="translate(96.073772 322.182437) scale(0.1 -0.1)">
       <use xlink:href="#DejaVuSans-2212"/>
       <use xlink:href="#DejaVuSans-34" x="83.789062"/>
       <use xlink:href="#DejaVuSans-30" x="147.412109"/>
      </g>
     </g>
    </g>
    <g id="xtick_13">
     <g id="line2d_17">
      <g>
       <use xlink:href="#m8d450b6553" x="139.419504" y="307.584" style="stroke: #000000; stroke-width: 0.8"/>
      </g>
     </g>
     <g id="text_18">
      <!-- −30 -->
      <g transform="translate(128.86716 322.182437) scale(0.1 -0.1)">
       <use xlink:href="#DejaVuSans-2212"/>
       <use xlink:href="#DejaVuSans-33" x="83.789062"/>
       <use xlink:href="#DejaVuSans-30" x="147.412109"/>
      </g>
     </g>
    </g>
    <g id="xtick_14">
     <g id="line2d_18">
      <g>
       <use xlink:href="#m8d450b6553" x="172.212893" y="307.584" style="stroke: #000000; stroke-width: 0.8"/>
      </g>
     </g>
     <g id="text_19">
      <!-- −20 -->
      <g transform="translate(161.660549 322.182437) scale(0.1 -0.1)">
       <use xlink:href="#DejaVuSans-2212"/>
       <use xlink:href="#DejaVuSans-32" x="83.789062"/>
       <use xlink:href="#DejaVuSans-30" x="147.412109"/>
      </g>
     </g>
    </g>
    <g id="xtick_15">
     <g id="line2d_19">
      <g>
       <use xlink:href="#m8d450b6553" x="205.006281" y="307.584" style="stroke: #000000; stroke-width: 0.8"/>
      </g>
     </g>
     <g id="text_20">
      <!-- −10 -->
      <g transform="translate(194.453937 322.182437) scale(0.1 -0.1)">
       <use xlink:href="#DejaVuSans-2212"/>
       <use xlink:href="#DejaVuSans-31" x="83.789062"/>
       <use xlink:href="#DejaVuSans-30" x="147.412109"/>
      </g>
     </g>
    </g>
    <g id="xtick_16">
     <g id="line2d_20">
      <g>
       <use xlink:href="#m8d450b6553" x="237.799669" y="307.584" style="stroke: #000000; stroke-width: 0.8"/>
      </g>
     </g>
     <g id="text_21">
      <!-- 0 -->
      <g transform="translate(234.618419 322.182437) scale(0.1 -0.1)">
       <use xlink:href="#DejaVuSans-30"/>
      </g>
     </g>
    </g>
    <g id="xtick_17">
     <g id="line2d_21">
      <g>
       <use xlink:href="#m8d450b6553" x="270.593058" y="307.584" style="stroke: #000000; stroke-width: 0.8"/>
      </g>
     </g>
     <g id="text_22">
      <!-- 10 -->
      <g transform="translate(264.230558 322.182437) scale(0.1 -0.1)">
       <use xlink:href="#DejaVuSans-31"/>
       <use xlink:href="#DejaVuSans-30" x="63.623047"/>
      </g>
     </g>
    </g>
    <g id="xtick_18">
     <g id="line2d_22">
      <g>
       <use xlink:href="#m8d450b6553" x="303.386446" y="307.584" style="stroke: #000000; stroke-width: 0.8"/>
      </g>
     </g>
     <g id="text_23">
      <!-- 20 -->
      <g transform="translate(297.023946 322.182437) scale(0.1 -0.1)">
       <use xlink:href="#DejaVuSans-32"/>
       <use xlink:href="#DejaVuSans-30" x="63.623047"/>
      </g>
     </g>
    </g>
    <g id="xtick_19">
     <g id="line2d_23">
      <g>
       <use xlink:href="#m8d450b6553" x="336.179835" y="307.584" style="stroke: #000000; stroke-width: 0.8"/>
      </g>
     </g>
     <g id="text_24">
      <!-- 30 -->
      <g transform="translate(329.817335 322.182437) scale(0.1 -0.1)">
       <use xlink:href="#DejaVuSans-33"/>
       <use xlink:href="#DejaVuSans-30" x="63.623047"/>
      </g>
     </g>
    </g>
    <g id="xtick_20">
     <g id="line2d_24">
      <g>
       <use xlink:href="#m8d450b6553" x="368.973223" y="307.584" style="stroke: #000000; stroke-width: 0.8"/>
      </g>
     </g>
     <g id="text_25">
      <!-- 40 -->
      <g transform="translate(362.610723 322.182437) scale(0.1 -0.1)">
       <use xlink:href="#DejaVuSans-34"/>
       <use xlink:href="#DejaVuSans-30" x="63.623047"/>
      </g>
     </g>
    </g>
   </g>
   <g id="matplotlib.axis_4">
    <g id="ytick_5">
     <g id="line2d_25">
      <g>
       <use xlink:href="#m8d526b423f" x="57.6" y="307.584" style="stroke: #000000; stroke-width: 0.8"/>
      </g>
     </g>
     <g id="text_26">
      <!-- 0 -->
      <g transform="translate(44.2375 311.383219) scale(0.1 -0.1)">
       <use xlink:href="#DejaVuSans-30"/>
      </g>
     </g>
    </g>
    <g id="ytick_6">
     <g id="line2d_26">
      <g>
       <use xlink:href="#m8d526b423f" x="57.6" y="274.975304" style="stroke: #000000; stroke-width: 0.8"/>
      </g>
     </g>
     <g id="text_27">
      <!-- 20000 -->
      <g transform="translate(18.7875 278.774523) scale(0.1 -0.1)">
       <use xlink:href="#DejaVuSans-32"/>
       <use xlink:href="#DejaVuSans-30" x="63.623047"/>
       <use xlink:href="#DejaVuSans-30" x="127.246094"/>
       <use xlink:href="#DejaVuSans-30" x="190.869141"/>
       <use xlink:href="#DejaVuSans-30" x="254.492188"/>
      </g>
     </g>
    </g>
    <g id="ytick_7">
     <g id="line2d_27">
      <g>
       <use xlink:href="#m8d526b423f" x="57.6" y="242.366609" style="stroke: #000000; stroke-width: 0.8"/>
      </g>
     </g>
     <g id="text_28">
      <!-- 40000 -->
      <g transform="translate(18.7875 246.165827) scale(0.1 -0.1)">
       <use xlink:href="#DejaVuSans-34"/>
       <use xlink:href="#DejaVuSans-30" x="63.623047"/>
       <use xlink:href="#DejaVuSans-30" x="127.246094"/>
       <use xlink:href="#DejaVuSans-30" x="190.869141"/>
       <use xlink:href="#DejaVuSans-30" x="254.492188"/>
      </g>
     </g>
    </g>
    <g id="ytick_8">
     <g id="line2d_28">
      <g>
       <use xlink:href="#m8d526b423f" x="57.6" y="209.757913" style="stroke: #000000; stroke-width: 0.8"/>
      </g>
     </g>
     <g id="text_29">
      <!-- 60000 -->
      <g transform="translate(18.7875 213.557132) scale(0.1 -0.1)">
       <use xlink:href="#DejaVuSans-36"/>
       <use xlink:href="#DejaVuSans-30" x="63.623047"/>
       <use xlink:href="#DejaVuSans-30" x="127.246094"/>
       <use xlink:href="#DejaVuSans-30" x="190.869141"/>
       <use xlink:href="#DejaVuSans-30" x="254.492188"/>
      </g>
     </g>
    </g>
    <g id="text_30">
     <!-- siLin28a - Raw read count -->
     <g transform="translate(12.707812 311.907125) rotate(-90) scale(0.1 -0.1)">
      <defs>
       <path id="DejaVuSans-38" d="M 2034 2216 
Q 1584 2216 1326 1975 
Q 1069 1734 1069 1313 
Q 1069 891 1326 650 
Q 1584 409 2034 409 
Q 2484 409 2743 651 
Q 3003 894 3003 1313 
Q 3003 1734 2745 1975 
Q 2488 2216 2034 2216 
z
M 1403 2484 
Q 997 2584 770 2862 
Q 544 3141 544 3541 
Q 544 4100 942 4425 
Q 1341 4750 2034 4750 
Q 2731 4750 3128 4425 
Q 3525 4100 3525 3541 
Q 3525 3141 3298 2862 
Q 3072 2584 2669 2484 
Q 3125 2378 3379 2068 
Q 3634 1759 3634 1313 
Q 3634 634 3220 271 
Q 2806 -91 2034 -91 
Q 1263 -91 848 271 
Q 434 634 434 1313 
Q 434 1759 690 2068 
Q 947 2378 1403 2484 
z
M 1172 3481 
Q 1172 3119 1398 2916 
Q 1625 2713 2034 2713 
Q 2441 2713 2670 2916 
Q 2900 3119 2900 3481 
Q 2900 3844 2670 4047 
Q 2441 4250 2034 4250 
Q 1625 4250 1398 4047 
Q 1172 3844 1172 3481 
z
" transform="scale(0.015625)"/>
      </defs>
      <use xlink:href="#DejaVuSans-73"/>
      <use xlink:href="#DejaVuSans-69" x="52.099609"/>
      <use xlink:href="#DejaVuSans-4c" x="79.882812"/>
      <use xlink:href="#DejaVuSans-69" x="135.595703"/>
      <use xlink:href="#DejaVuSans-6e" x="163.378906"/>
      <use xlink:href="#DejaVuSans-32" x="226.757812"/>
      <use xlink:href="#DejaVuSans-38" x="290.380859"/>
      <use xlink:href="#DejaVuSans-61" x="354.003906"/>
      <use xlink:href="#DejaVuSans-20" x="415.283203"/>
      <use xlink:href="#DejaVuSans-2d" x="447.070312"/>
      <use xlink:href="#DejaVuSans-20" x="483.154297"/>
      <use xlink:href="#DejaVuSans-52" x="514.941406"/>
      <use xlink:href="#DejaVuSans-61" x="582.173828"/>
      <use xlink:href="#DejaVuSans-77" x="643.453125"/>
      <use xlink:href="#DejaVuSans-20" x="725.240234"/>
      <use xlink:href="#DejaVuSans-72" x="757.027344"/>
      <use xlink:href="#DejaVuSans-65" x="795.890625"/>
      <use xlink:href="#DejaVuSans-61" x="857.414062"/>
      <use xlink:href="#DejaVuSans-64" x="918.693359"/>
      <use xlink:href="#DejaVuSans-20" x="982.169922"/>
      <use xlink:href="#DejaVuSans-63" x="1013.957031"/>
      <use xlink:href="#DejaVuSans-6f" x="1068.9375"/>
      <use xlink:href="#DejaVuSans-75" x="1130.119141"/>
      <use xlink:href="#DejaVuSans-6e" x="1193.498047"/>
      <use xlink:href="#DejaVuSans-74" x="1256.876953"/>
     </g>
    </g>
   </g>
   <g id="patch_206">
    <path d="M 57.6 307.584 
L 57.6 186.624 
" style="fill: none; stroke: #000000; stroke-width: 0.8; stroke-linejoin: miter; stroke-linecap: square"/>
   </g>
   <g id="patch_207">
    <path d="M 414.72 307.584 
L 414.72 186.624 
" style="fill: none; stroke: #000000; stroke-width: 0.8; stroke-linejoin: miter; stroke-linecap: square"/>
   </g>
   <g id="patch_208">
    <path d="M 57.6 307.584 
L 414.72 307.584 
" style="fill: none; stroke: #000000; stroke-width: 0.8; stroke-linejoin: miter; stroke-linecap: square"/>
   </g>
   <g id="patch_209">
    <path d="M 57.6 186.624 
L 414.72 186.624 
" style="fill: none; stroke: #000000; stroke-width: 0.8; stroke-linejoin: miter; stroke-linecap: square"/>
   </g>
  </g>
 </g>
 <defs>
  <clipPath id="p97805f3a89">
   <rect x="57.6" y="41.472" width="357.12" height="120.96"/>
  </clipPath>
  <clipPath id="p53d1bea798">
   <rect x="57.6" y="186.624" width="357.12" height="120.96"/>
  </clipPath>
 </defs>
</svg>
