<?xml version="1.0" encoding="utf-8" standalone="no"?>
<!DOCTYPE svg PUBLIC "-//W3C//DTD SVG 1.1//EN"
  "http://www.w3.org/Graphics/SVG/1.1/DTD/svg11.dtd">
<svg xmlns:xlink="http://www.w3.org/1999/xlink" width="1077.165354pt" height="131.931647pt" viewBox="0 0 1077.165354 131.931647" xmlns="http://www.w3.org/2000/svg" version="1.1">
 <metadata>
  <rdf:RDF xmlns:dc="http://purl.org/dc/elements/1.1/" xmlns:cc="http://creativecommons.org/ns#" xmlns:rdf="http://www.w3.org/1999/02/22-rdf-syntax-ns#">
   <cc:Work>
    <dc:type rdf:resource="http://purl.org/dc/dcmitype/StillImage"/>
    <dc:date>2023-06-07T00:19:35.366318</dc:date>
    <dc:format>image/svg+xml</dc:format>
    <dc:creator>
     <cc:Agent>
      <dc:title>Matplotlib v3.5.3, https://matplotlib.org/</dc:title>
     </cc:Agent>
    </dc:creator>
   </cc:Work>
  </rdf:RDF>
 </metadata>
 <defs>
  <style type="text/css">*{stroke-linejoin: round; stroke-linecap: butt}</style>
 </defs>
 <g id="figure_1">
  <g id="patch_1">
   <path d="M 0 131.931647 
L 1077.165354 131.931647 
L 1077.165354 0 
L 0 0 
z
" style="fill: #ffffff"/>
  </g>
  <g id="axes_1">
   <g id="mpl_toolkits.axisartist.axis_artist_1">
    <defs>
     <path id="m851da30718" d="M 0 0 
L 0 -3.5 
" style="stroke: #000000; stroke-width: 0.8"/>
    </defs>
    <g>
     <use xlink:href="#m851da30718" x="143.294771" y="9.27291" style="fill: none; stroke: #000000; stroke-width: 0.8"/>
    </g>
    <g>
     <use xlink:href="#m851da30718" x="289.538684" y="9.27291" style="fill: none; stroke: #000000; stroke-width: 0.8"/>
    </g>
    <g>
     <use xlink:href="#m851da30718" x="435.782596" y="9.27291" style="fill: none; stroke: #000000; stroke-width: 0.8"/>
    </g>
    <g>
     <use xlink:href="#m851da30718" x="582.026509" y="9.27291" style="fill: none; stroke: #000000; stroke-width: 0.8"/>
    </g>
    <g>
     <use xlink:href="#m851da30718" x="728.270421" y="9.27291" style="fill: none; stroke: #000000; stroke-width: 0.8"/>
    </g>
    <g id="text_1">
     <!-- 48,689,500 -->
     <g transform="translate(100.352584 24.170566)scale(0.15 -0.15)">
      <defs>
       <path id="DejaVuSans-34" d="M 2419 4116 
L 825 1625 
L 2419 1625 
L 2419 4116 
z
M 2253 4666 
L 3047 4666 
L 3047 1625 
L 3713 1625 
L 3713 1100 
L 3047 1100 
L 3047 0 
L 2419 0 
L 2419 1100 
L 313 1100 
L 313 1709 
L 2253 4666 
z
" transform="scale(0.015625)"/>
       <path id="DejaVuSans-38" d="M 2034 2216 
Q 1584 2216 1326 1975 
Q 1069 1734 1069 1313 
Q 1069 891 1326 650 
Q 1584 409 2034 409 
Q 2484 409 2743 651 
Q 3003 894 3003 1313 
Q 3003 1734 2745 1975 
Q 2488 2216 2034 2216 
z
M 1403 2484 
Q 997 2584 770 2862 
Q 544 3141 544 3541 
Q 544 4100 942 4425 
Q 1341 4750 2034 4750 
Q 2731 4750 3128 4425 
Q 3525 4100 3525 3541 
Q 3525 3141 3298 2862 
Q 3072 2584 2669 2484 
Q 3125 2378 3379 2068 
Q 3634 1759 3634 1313 
Q 3634 634 3220 271 
Q 2806 -91 2034 -91 
Q 1263 -91 848 271 
Q 434 634 434 1313 
Q 434 1759 690 2068 
Q 947 2378 1403 2484 
z
M 1172 3481 
Q 1172 3119 1398 2916 
Q 1625 2713 2034 2713 
Q 2441 2713 2670 2916 
Q 2900 3119 2900 3481 
Q 2900 3844 2670 4047 
Q 2441 4250 2034 4250 
Q 1625 4250 1398 4047 
Q 1172 3844 1172 3481 
z
" transform="scale(0.015625)"/>
       <path id="DejaVuSans-2c" d="M 750 794 
L 1409 794 
L 1409 256 
L 897 -744 
L 494 -744 
L 750 256 
L 750 794 
z
" transform="scale(0.015625)"/>
       <path id="DejaVuSans-36" d="M 2113 2584 
Q 1688 2584 1439 2293 
Q 1191 2003 1191 1497 
Q 1191 994 1439 701 
Q 1688 409 2113 409 
Q 2538 409 2786 701 
Q 3034 994 3034 1497 
Q 3034 2003 2786 2293 
Q 2538 2584 2113 2584 
z
M 3366 4563 
L 3366 3988 
Q 3128 4100 2886 4159 
Q 2644 4219 2406 4219 
Q 1781 4219 1451 3797 
Q 1122 3375 1075 2522 
Q 1259 2794 1537 2939 
Q 1816 3084 2150 3084 
Q 2853 3084 3261 2657 
Q 3669 2231 3669 1497 
Q 3669 778 3244 343 
Q 2819 -91 2113 -91 
Q 1303 -91 875 529 
Q 447 1150 447 2328 
Q 447 3434 972 4092 
Q 1497 4750 2381 4750 
Q 2619 4750 2861 4703 
Q 3103 4656 3366 4563 
z
" transform="scale(0.015625)"/>
       <path id="DejaVuSans-39" d="M 703 97 
L 703 672 
Q 941 559 1184 500 
Q 1428 441 1663 441 
Q 2288 441 2617 861 
Q 2947 1281 2994 2138 
Q 2813 1869 2534 1725 
Q 2256 1581 1919 1581 
Q 1219 1581 811 2004 
Q 403 2428 403 3163 
Q 403 3881 828 4315 
Q 1253 4750 1959 4750 
Q 2769 4750 3195 4129 
Q 3622 3509 3622 2328 
Q 3622 1225 3098 567 
Q 2575 -91 1691 -91 
Q 1453 -91 1209 -44 
Q 966 3 703 97 
z
M 1959 2075 
Q 2384 2075 2632 2365 
Q 2881 2656 2881 3163 
Q 2881 3666 2632 3958 
Q 2384 4250 1959 4250 
Q 1534 4250 1286 3958 
Q 1038 3666 1038 3163 
Q 1038 2656 1286 2365 
Q 1534 2075 1959 2075 
z
" transform="scale(0.015625)"/>
       <path id="DejaVuSans-35" d="M 691 4666 
L 3169 4666 
L 3169 4134 
L 1269 4134 
L 1269 2991 
Q 1406 3038 1543 3061 
Q 1681 3084 1819 3084 
Q 2600 3084 3056 2656 
Q 3513 2228 3513 1497 
Q 3513 744 3044 326 
Q 2575 -91 1722 -91 
Q 1428 -91 1123 -41 
Q 819 9 494 109 
L 494 744 
Q 775 591 1075 516 
Q 1375 441 1709 441 
Q 2250 441 2565 725 
Q 2881 1009 2881 1497 
Q 2881 1984 2565 2268 
Q 2250 2553 1709 2553 
Q 1456 2553 1204 2497 
Q 953 2441 691 2322 
L 691 4666 
z
" transform="scale(0.015625)"/>
       <path id="DejaVuSans-30" d="M 2034 4250 
Q 1547 4250 1301 3770 
Q 1056 3291 1056 2328 
Q 1056 1369 1301 889 
Q 1547 409 2034 409 
Q 2525 409 2770 889 
Q 3016 1369 3016 2328 
Q 3016 3291 2770 3770 
Q 2525 4250 2034 4250 
z
M 2034 4750 
Q 2819 4750 3233 4129 
Q 3647 3509 3647 2328 
Q 3647 1150 3233 529 
Q 2819 -91 2034 -91 
Q 1250 -91 836 529 
Q 422 1150 422 2328 
Q 422 3509 836 4129 
Q 1250 4750 2034 4750 
z
" transform="scale(0.015625)"/>
      </defs>
      <use xlink:href="#DejaVuSans-34"/>
      <use xlink:href="#DejaVuSans-38" x="63.623047"/>
      <use xlink:href="#DejaVuSans-2c" x="127.246094"/>
      <use xlink:href="#DejaVuSans-36" x="159.033203"/>
      <use xlink:href="#DejaVuSans-38" x="222.65625"/>
      <use xlink:href="#DejaVuSans-39" x="286.279297"/>
      <use xlink:href="#DejaVuSans-2c" x="349.902344"/>
      <use xlink:href="#DejaVuSans-35" x="381.689453"/>
      <use xlink:href="#DejaVuSans-30" x="445.3125"/>
      <use xlink:href="#DejaVuSans-30" x="508.935547"/>
     </g>
    </g>
    <g id="text_2">
     <!-- 48,689,520 -->
     <g transform="translate(246.596496 24.170566)scale(0.15 -0.15)">
      <defs>
       <path id="DejaVuSans-32" d="M 1228 531 
L 3431 531 
L 3431 0 
L 469 0 
L 469 531 
Q 828 903 1448 1529 
Q 2069 2156 2228 2338 
Q 2531 2678 2651 2914 
Q 2772 3150 2772 3378 
Q 2772 3750 2511 3984 
Q 2250 4219 1831 4219 
Q 1534 4219 1204 4116 
Q 875 4013 500 3803 
L 500 4441 
Q 881 4594 1212 4672 
Q 1544 4750 1819 4750 
Q 2544 4750 2975 4387 
Q 3406 4025 3406 3419 
Q 3406 3131 3298 2873 
Q 3191 2616 2906 2266 
Q 2828 2175 2409 1742 
Q 1991 1309 1228 531 
z
" transform="scale(0.015625)"/>
      </defs>
      <use xlink:href="#DejaVuSans-34"/>
      <use xlink:href="#DejaVuSans-38" x="63.623047"/>
      <use xlink:href="#DejaVuSans-2c" x="127.246094"/>
      <use xlink:href="#DejaVuSans-36" x="159.033203"/>
      <use xlink:href="#DejaVuSans-38" x="222.65625"/>
      <use xlink:href="#DejaVuSans-39" x="286.279297"/>
      <use xlink:href="#DejaVuSans-2c" x="349.902344"/>
      <use xlink:href="#DejaVuSans-35" x="381.689453"/>
      <use xlink:href="#DejaVuSans-32" x="445.3125"/>
      <use xlink:href="#DejaVuSans-30" x="508.935547"/>
     </g>
    </g>
    <g id="text_3">
     <!-- 48,689,540 -->
     <g transform="translate(392.840409 24.170566)scale(0.15 -0.15)">
      <use xlink:href="#DejaVuSans-34"/>
      <use xlink:href="#DejaVuSans-38" x="63.623047"/>
      <use xlink:href="#DejaVuSans-2c" x="127.246094"/>
      <use xlink:href="#DejaVuSans-36" x="159.033203"/>
      <use xlink:href="#DejaVuSans-38" x="222.65625"/>
      <use xlink:href="#DejaVuSans-39" x="286.279297"/>
      <use xlink:href="#DejaVuSans-2c" x="349.902344"/>
      <use xlink:href="#DejaVuSans-35" x="381.689453"/>
      <use xlink:href="#DejaVuSans-34" x="445.3125"/>
      <use xlink:href="#DejaVuSans-30" x="508.935547"/>
     </g>
    </g>
    <g id="text_4">
     <!-- 48,689,560 -->
     <g transform="translate(539.084321 24.170566)scale(0.15 -0.15)">
      <use xlink:href="#DejaVuSans-34"/>
      <use xlink:href="#DejaVuSans-38" x="63.623047"/>
      <use xlink:href="#DejaVuSans-2c" x="127.246094"/>
      <use xlink:href="#DejaVuSans-36" x="159.033203"/>
      <use xlink:href="#DejaVuSans-38" x="222.65625"/>
      <use xlink:href="#DejaVuSans-39" x="286.279297"/>
      <use xlink:href="#DejaVuSans-2c" x="349.902344"/>
      <use xlink:href="#DejaVuSans-35" x="381.689453"/>
      <use xlink:href="#DejaVuSans-36" x="445.3125"/>
      <use xlink:href="#DejaVuSans-30" x="508.935547"/>
     </g>
    </g>
    <g id="text_5">
     <!-- 48,689,580 b -->
     <g transform="translate(678.183312 24.170566)scale(0.15 -0.15)">
      <defs>
       <path id="DejaVuSans-20" transform="scale(0.015625)"/>
       <path id="DejaVuSans-62" d="M 3116 1747 
Q 3116 2381 2855 2742 
Q 2594 3103 2138 3103 
Q 1681 3103 1420 2742 
Q 1159 2381 1159 1747 
Q 1159 1113 1420 752 
Q 1681 391 2138 391 
Q 2594 391 2855 752 
Q 3116 1113 3116 1747 
z
M 1159 2969 
Q 1341 3281 1617 3432 
Q 1894 3584 2278 3584 
Q 2916 3584 3314 3078 
Q 3713 2572 3713 1747 
Q 3713 922 3314 415 
Q 2916 -91 2278 -91 
Q 1894 -91 1617 61 
Q 1341 213 1159 525 
L 1159 0 
L 581 0 
L 581 4863 
L 1159 4863 
L 1159 2969 
z
" transform="scale(0.015625)"/>
      </defs>
      <use xlink:href="#DejaVuSans-34"/>
      <use xlink:href="#DejaVuSans-38" x="63.623047"/>
      <use xlink:href="#DejaVuSans-2c" x="127.246094"/>
      <use xlink:href="#DejaVuSans-36" x="159.033203"/>
      <use xlink:href="#DejaVuSans-38" x="222.65625"/>
      <use xlink:href="#DejaVuSans-39" x="286.279297"/>
      <use xlink:href="#DejaVuSans-2c" x="349.902344"/>
      <use xlink:href="#DejaVuSans-35" x="381.689453"/>
      <use xlink:href="#DejaVuSans-38" x="445.3125"/>
      <use xlink:href="#DejaVuSans-30" x="508.935547"/>
      <use xlink:href="#DejaVuSans-20" x="572.558594"/>
      <use xlink:href="#DejaVuSans-62" x="604.345703"/>
     </g>
    </g>
    <g id="patch_2">
     <path d="M 55.548424 9.27291 
L 801.392378 9.27291 
" clip-path="url(#pc720ab022f)" style="fill: none; stroke: #000000; stroke-width: 0.8; stroke-linecap: square"/>
    </g>
   </g>
   <g id="text_6">
    <!-- chr13 -->
    <g transform="translate(406.966494 53.456528)scale(0.15 -0.15)">
     <defs>
      <path id="DejaVuSans-63" d="M 3122 3366 
L 3122 2828 
Q 2878 2963 2633 3030 
Q 2388 3097 2138 3097 
Q 1578 3097 1268 2742 
Q 959 2388 959 1747 
Q 959 1106 1268 751 
Q 1578 397 2138 397 
Q 2388 397 2633 464 
Q 2878 531 3122 666 
L 3122 134 
Q 2881 22 2623 -34 
Q 2366 -91 2075 -91 
Q 1284 -91 818 406 
Q 353 903 353 1747 
Q 353 2603 823 3093 
Q 1294 3584 2113 3584 
Q 2378 3584 2631 3529 
Q 2884 3475 3122 3366 
z
" transform="scale(0.015625)"/>
      <path id="DejaVuSans-68" d="M 3513 2113 
L 3513 0 
L 2938 0 
L 2938 2094 
Q 2938 2591 2744 2837 
Q 2550 3084 2163 3084 
Q 1697 3084 1428 2787 
Q 1159 2491 1159 1978 
L 1159 0 
L 581 0 
L 581 4863 
L 1159 4863 
L 1159 2956 
Q 1366 3272 1645 3428 
Q 1925 3584 2291 3584 
Q 2894 3584 3203 3211 
Q 3513 2838 3513 2113 
z
" transform="scale(0.015625)"/>
      <path id="DejaVuSans-72" d="M 2631 2963 
Q 2534 3019 2420 3045 
Q 2306 3072 2169 3072 
Q 1681 3072 1420 2755 
Q 1159 2438 1159 1844 
L 1159 0 
L 581 0 
L 581 3500 
L 1159 3500 
L 1159 2956 
Q 1341 3275 1631 3429 
Q 1922 3584 2338 3584 
Q 2397 3584 2469 3576 
Q 2541 3569 2628 3553 
L 2631 2963 
z
" transform="scale(0.015625)"/>
      <path id="DejaVuSans-31" d="M 794 531 
L 1825 531 
L 1825 4091 
L 703 3866 
L 703 4441 
L 1819 4666 
L 2450 4666 
L 2450 531 
L 3481 531 
L 3481 0 
L 794 0 
L 794 531 
z
" transform="scale(0.015625)"/>
      <path id="DejaVuSans-33" d="M 2597 2516 
Q 3050 2419 3304 2112 
Q 3559 1806 3559 1356 
Q 3559 666 3084 287 
Q 2609 -91 1734 -91 
Q 1441 -91 1130 -33 
Q 819 25 488 141 
L 488 750 
Q 750 597 1062 519 
Q 1375 441 1716 441 
Q 2309 441 2620 675 
Q 2931 909 2931 1356 
Q 2931 1769 2642 2001 
Q 2353 2234 1838 2234 
L 1294 2234 
L 1294 2753 
L 1863 2753 
Q 2328 2753 2575 2939 
Q 2822 3125 2822 3475 
Q 2822 3834 2567 4026 
Q 2313 4219 1838 4219 
Q 1578 4219 1281 4162 
Q 984 4106 628 3988 
L 628 4550 
Q 988 4650 1302 4700 
Q 1616 4750 1894 4750 
Q 2613 4750 3031 4423 
Q 3450 4097 3450 3541 
Q 3450 3153 3228 2886 
Q 3006 2619 2597 2516 
z
" transform="scale(0.015625)"/>
     </defs>
     <use xlink:href="#DejaVuSans-63"/>
     <use xlink:href="#DejaVuSans-68" x="54.980469"/>
     <use xlink:href="#DejaVuSans-72" x="118.359375"/>
     <use xlink:href="#DejaVuSans-31" x="159.472656"/>
     <use xlink:href="#DejaVuSans-33" x="223.095703"/>
    </g>
   </g>
  </g>
  <g id="axes_2"/>
  <g id="axes_3"/>
  <g id="axes_4"/>
  <g id="axes_5"/>
  <g id="axes_6"/>
  <g id="axes_7">
   <g id="PolyCollection_1">
    <defs>
     <path id="mb01c9d77f9" d="M 55.548424 -3.957949 
L 55.548424 -57.9512 
L 62.860619 -57.9512 
L 62.860619 -46.434252 
L 70.172815 -46.434252 
L 70.172815 -31.962359 
L 77.48501 -31.962359 
L 77.48501 -39.604175 
L 84.797206 -39.604175 
L 84.797206 -3.957949 
L 92.109402 -3.957949 
L 92.109402 -3.957949 
L 99.421597 -3.957949 
L 99.421597 -3.957949 
L 106.733793 -3.957949 
L 106.733793 -3.957949 
L 114.045989 -3.957949 
L 114.045989 -3.957949 
L 121.358184 -3.957949 
L 121.358184 -3.957949 
L 128.67038 -3.957949 
L 128.67038 -3.957949 
L 135.982575 -3.957949 
L 135.982575 -3.957949 
L 143.294771 -3.957949 
L 143.294771 -3.957949 
L 150.606967 -3.957949 
L 150.606967 -19.902857 
L 157.919162 -19.902857 
L 157.919162 -37.50928 
L 165.231358 -37.50928 
L 165.231358 -22.544657 
L 172.543554 -22.544657 
L 172.543554 -3.957949 
L 179.855749 -3.957949 
L 179.855749 -3.957949 
L 187.167945 -3.957949 
L 187.167945 -3.957949 
L 194.480141 -3.957949 
L 194.480141 -3.957949 
L 201.792336 -3.957949 
L 201.792336 -3.957949 
L 209.104532 -3.957949 
L 209.104532 -3.957949 
L 216.416727 -3.957949 
L 216.416727 -5.350131 
L 223.728923 -5.350131 
L 223.728923 -3.957949 
L 231.041119 -3.957949 
L 231.041119 -3.957949 
L 238.353314 -3.957949 
L 238.353314 -3.957949 
L 245.66551 -3.957949 
L 245.66551 -3.957949 
L 252.977705 -3.957949 
L 252.977705 -3.957949 
L 260.289901 -3.957949 
L 260.289901 -3.957949 
L 267.602097 -3.957949 
L 267.602097 -3.957949 
L 274.914292 -3.957949 
L 274.914292 -3.957949 
L 282.226488 -3.957949 
L 282.226488 -3.957949 
L 289.538684 -3.957949 
L 289.538684 -5.318845 
L 296.850879 -5.318845 
L 296.850879 -3.957949 
L 304.163075 -3.957949 
L 304.163075 -3.957949 
L 311.475271 -3.957949 
L 311.475271 -3.957949 
L 318.787466 -3.957949 
L 318.787466 -3.957949 
L 326.099662 -3.957949 
L 326.099662 -5.32498 
L 333.411857 -5.32498 
L 333.411857 -3.957949 
L 340.724053 -3.957949 
L 340.724053 -42.020301 
L 348.036249 -42.020301 
L 348.036249 -28.06649 
L 355.348444 -28.06649 
L 355.348444 -45.048801 
L 362.66064 -45.048801 
L 362.66064 -3.957949 
L 369.972836 -3.957949 
L 369.972836 -5.403554 
L 377.285031 -5.403554 
L 377.285031 -3.957949 
L 384.597227 -3.957949 
L 384.597227 -3.957949 
L 391.909422 -3.957949 
L 391.909422 -3.957949 
L 399.221618 -3.957949 
L 399.221618 -3.957949 
L 406.533814 -3.957949 
L 406.533814 -3.957949 
L 413.846009 -3.957949 
L 413.846009 -3.957949 
L 421.158205 -3.957949 
L 421.158205 -3.957949 
L 428.470401 -3.957949 
L 428.470401 -3.957949 
L 435.782596 -3.957949 
L 435.782596 -3.957949 
L 443.094792 -3.957949 
L 443.094792 -3.957949 
L 450.406987 -3.957949 
L 450.406987 -6.139168 
L 457.719183 -6.139168 
L 457.719183 -3.957949 
L 465.031379 -3.957949 
L 465.031379 -3.957949 
L 472.343574 -3.957949 
L 472.343574 -3.957949 
L 479.65577 -3.957949 
L 479.65577 -3.957949 
L 486.967966 -3.957949 
L 486.967966 -3.957949 
L 494.280161 -3.957949 
L 494.280161 -3.957949 
L 501.592357 -3.957949 
L 501.592357 -3.957949 
L 508.904552 -3.957949 
L 508.904552 -3.957949 
L 516.216748 -3.957949 
L 516.216748 -3.957949 
L 523.528944 -3.957949 
L 523.528944 -3.957949 
L 530.841139 -3.957949 
L 530.841139 -3.957949 
L 538.153335 -3.957949 
L 538.153335 -3.957949 
L 545.465531 -3.957949 
L 545.465531 -3.957949 
L 552.777726 -3.957949 
L 552.777726 -3.957949 
L 560.089922 -3.957949 
L 560.089922 -3.957949 
L 567.402117 -3.957949 
L 567.402117 -3.957949 
L 574.714313 -3.957949 
L 574.714313 -3.957949 
L 582.026509 -3.957949 
L 582.026509 -3.957949 
L 589.338704 -3.957949 
L 589.338704 -3.957949 
L 596.6509 -3.957949 
L 596.6509 -3.957949 
L 603.963096 -3.957949 
L 603.963096 -3.957949 
L 611.275291 -3.957949 
L 611.275291 -3.957949 
L 618.587487 -3.957949 
L 618.587487 -3.957949 
L 625.899682 -3.957949 
L 625.899682 -3.957949 
L 633.211878 -3.957949 
L 633.211878 -3.957949 
L 640.524074 -3.957949 
L 640.524074 -3.957949 
L 647.836269 -3.957949 
L 647.836269 -3.957949 
L 655.148465 -3.957949 
L 655.148465 -3.957949 
L 662.460661 -3.957949 
L 662.460661 -3.957949 
L 669.772856 -3.957949 
L 669.772856 -3.957949 
L 677.085052 -3.957949 
L 677.085052 -3.957949 
L 684.397247 -3.957949 
L 684.397247 -3.957949 
L 691.709443 -3.957949 
L 691.709443 -3.957949 
L 801.392377 -3.957949 
L 801.392377 -3.957949 
L 801.392377 -3.957949 
L 691.709443 -3.957949 
L 691.709443 -3.957949 
L 684.397247 -3.957949 
L 684.397247 -3.957949 
L 677.085052 -3.957949 
L 677.085052 -3.957949 
L 669.772856 -3.957949 
L 669.772856 -3.957949 
L 662.460661 -3.957949 
L 662.460661 -3.957949 
L 655.148465 -3.957949 
L 655.148465 -3.957949 
L 647.836269 -3.957949 
L 647.836269 -3.957949 
L 640.524074 -3.957949 
L 640.524074 -3.957949 
L 633.211878 -3.957949 
L 633.211878 -3.957949 
L 625.899682 -3.957949 
L 625.899682 -3.957949 
L 618.587487 -3.957949 
L 618.587487 -3.957949 
L 611.275291 -3.957949 
L 611.275291 -3.957949 
L 603.963096 -3.957949 
L 603.963096 -3.957949 
L 596.6509 -3.957949 
L 596.6509 -3.957949 
L 589.338704 -3.957949 
L 589.338704 -3.957949 
L 582.026509 -3.957949 
L 582.026509 -3.957949 
L 574.714313 -3.957949 
L 574.714313 -3.957949 
L 567.402117 -3.957949 
L 567.402117 -3.957949 
L 560.089922 -3.957949 
L 560.089922 -3.957949 
L 552.777726 -3.957949 
L 552.777726 -3.957949 
L 545.465531 -3.957949 
L 545.465531 -3.957949 
L 538.153335 -3.957949 
L 538.153335 -3.957949 
L 530.841139 -3.957949 
L 530.841139 -3.957949 
L 523.528944 -3.957949 
L 523.528944 -3.957949 
L 516.216748 -3.957949 
L 516.216748 -3.957949 
L 508.904552 -3.957949 
L 508.904552 -3.957949 
L 501.592357 -3.957949 
L 501.592357 -3.957949 
L 494.280161 -3.957949 
L 494.280161 -3.957949 
L 486.967966 -3.957949 
L 486.967966 -3.957949 
L 479.65577 -3.957949 
L 479.65577 -3.957949 
L 472.343574 -3.957949 
L 472.343574 -3.957949 
L 465.031379 -3.957949 
L 465.031379 -3.957949 
L 457.719183 -3.957949 
L 457.719183 -3.957949 
L 450.406987 -3.957949 
L 450.406987 -3.957949 
L 443.094792 -3.957949 
L 443.094792 -3.957949 
L 435.782596 -3.957949 
L 435.782596 -3.957949 
L 428.470401 -3.957949 
L 428.470401 -3.957949 
L 421.158205 -3.957949 
L 421.158205 -3.957949 
L 413.846009 -3.957949 
L 413.846009 -3.957949 
L 406.533814 -3.957949 
L 406.533814 -3.957949 
L 399.221618 -3.957949 
L 399.221618 -3.957949 
L 391.909422 -3.957949 
L 391.909422 -3.957949 
L 384.597227 -3.957949 
L 384.597227 -3.957949 
L 377.285031 -3.957949 
L 377.285031 -3.957949 
L 369.972836 -3.957949 
L 369.972836 -3.957949 
L 362.66064 -3.957949 
L 362.66064 -3.957949 
L 355.348444 -3.957949 
L 355.348444 -3.957949 
L 348.036249 -3.957949 
L 348.036249 -3.957949 
L 340.724053 -3.957949 
L 340.724053 -3.957949 
L 333.411857 -3.957949 
L 333.411857 -3.957949 
L 326.099662 -3.957949 
L 326.099662 -3.957949 
L 318.787466 -3.957949 
L 318.787466 -3.957949 
L 311.475271 -3.957949 
L 311.475271 -3.957949 
L 304.163075 -3.957949 
L 304.163075 -3.957949 
L 296.850879 -3.957949 
L 296.850879 -3.957949 
L 289.538684 -3.957949 
L 289.538684 -3.957949 
L 282.226488 -3.957949 
L 282.226488 -3.957949 
L 274.914292 -3.957949 
L 274.914292 -3.957949 
L 267.602097 -3.957949 
L 267.602097 -3.957949 
L 260.289901 -3.957949 
L 260.289901 -3.957949 
L 252.977705 -3.957949 
L 252.977705 -3.957949 
L 245.66551 -3.957949 
L 245.66551 -3.957949 
L 238.353314 -3.957949 
L 238.353314 -3.957949 
L 231.041119 -3.957949 
L 231.041119 -3.957949 
L 223.728923 -3.957949 
L 223.728923 -3.957949 
L 216.416727 -3.957949 
L 216.416727 -3.957949 
L 209.104532 -3.957949 
L 209.104532 -3.957949 
L 201.792336 -3.957949 
L 201.792336 -3.957949 
L 194.480141 -3.957949 
L 194.480141 -3.957949 
L 187.167945 -3.957949 
L 187.167945 -3.957949 
L 179.855749 -3.957949 
L 179.855749 -3.957949 
L 172.543554 -3.957949 
L 172.543554 -3.957949 
L 165.231358 -3.957949 
L 165.231358 -3.957949 
L 157.919162 -3.957949 
L 157.919162 -3.957949 
L 150.606967 -3.957949 
L 150.606967 -3.957949 
L 143.294771 -3.957949 
L 143.294771 -3.957949 
L 135.982575 -3.957949 
L 135.982575 -3.957949 
L 128.67038 -3.957949 
L 128.67038 -3.957949 
L 121.358184 -3.957949 
L 121.358184 -3.957949 
L 114.045989 -3.957949 
L 114.045989 -3.957949 
L 106.733793 -3.957949 
L 106.733793 -3.957949 
L 99.421597 -3.957949 
L 99.421597 -3.957949 
L 92.109402 -3.957949 
L 92.109402 -3.957949 
L 84.797206 -3.957949 
L 84.797206 -3.957949 
L 77.48501 -3.957949 
L 77.48501 -3.957949 
L 70.172815 -3.957949 
L 70.172815 -3.957949 
L 62.860619 -3.957949 
L 62.860619 -3.957949 
L 55.548424 -3.957949 
z
" style="stroke: #008000; stroke-width: 0.1"/>
    </defs>
    <g clip-path="url(#pc334166799)">
     <use xlink:href="#mb01c9d77f9" x="0" y="131.931647" style="fill: #008000; stroke: #008000; stroke-width: 0.1"/>
    </g>
   </g>
  </g>
  <g id="axes_8">
   <g id="line2d_1">
    <path d="M 43.086614 127.406768 
L 47.748139 127.406768 
L 47.748139 71.847713 
L 43.086614 71.847713 
" clip-path="url(#pe76197399f)" style="fill: none; stroke: #000000; stroke-linecap: square"/>
   </g>
   <g id="text_7">
    <!-- 0 -->
    <g transform="translate(33.968754 126.169783)scale(0.114 -0.114)">
     <use xlink:href="#DejaVuSans-30"/>
    </g>
   </g>
   <g id="text_8">
    <!-- 2.002 -->
    <g transform="translate(8.585942 79.943003)scale(0.114 -0.114)">
     <defs>
      <path id="DejaVuSans-2e" d="M 684 794 
L 1344 794 
L 1344 0 
L 684 0 
L 684 794 
z
" transform="scale(0.015625)"/>
     </defs>
     <use xlink:href="#DejaVuSans-32"/>
     <use xlink:href="#DejaVuSans-2e" x="63.623047"/>
     <use xlink:href="#DejaVuSans-30" x="95.410156"/>
     <use xlink:href="#DejaVuSans-30" x="159.033203"/>
     <use xlink:href="#DejaVuSans-32" x="222.65625"/>
    </g>
   </g>
  </g>
  <g id="axes_9">
   <g id="text_9">
    <!-- Mirlet7d -->
    <g transform="translate(813.854187 103.402066)scale(0.1368 -0.1368)">
     <defs>
      <path id="DejaVuSans-4d" d="M 628 4666 
L 1569 4666 
L 2759 1491 
L 3956 4666 
L 4897 4666 
L 4897 0 
L 4281 0 
L 4281 4097 
L 3078 897 
L 2444 897 
L 1241 4097 
L 1241 0 
L 628 0 
L 628 4666 
z
" transform="scale(0.015625)"/>
      <path id="DejaVuSans-69" d="M 603 3500 
L 1178 3500 
L 1178 0 
L 603 0 
L 603 3500 
z
M 603 4863 
L 1178 4863 
L 1178 4134 
L 603 4134 
L 603 4863 
z
" transform="scale(0.015625)"/>
      <path id="DejaVuSans-6c" d="M 603 4863 
L 1178 4863 
L 1178 0 
L 603 0 
L 603 4863 
z
" transform="scale(0.015625)"/>
      <path id="DejaVuSans-65" d="M 3597 1894 
L 3597 1613 
L 953 1613 
Q 991 1019 1311 708 
Q 1631 397 2203 397 
Q 2534 397 2845 478 
Q 3156 559 3463 722 
L 3463 178 
Q 3153 47 2828 -22 
Q 2503 -91 2169 -91 
Q 1331 -91 842 396 
Q 353 884 353 1716 
Q 353 2575 817 3079 
Q 1281 3584 2069 3584 
Q 2775 3584 3186 3129 
Q 3597 2675 3597 1894 
z
M 3022 2063 
Q 3016 2534 2758 2815 
Q 2500 3097 2075 3097 
Q 1594 3097 1305 2825 
Q 1016 2553 972 2059 
L 3022 2063 
z
" transform="scale(0.015625)"/>
      <path id="DejaVuSans-74" d="M 1172 4494 
L 1172 3500 
L 2356 3500 
L 2356 3053 
L 1172 3053 
L 1172 1153 
Q 1172 725 1289 603 
Q 1406 481 1766 481 
L 2356 481 
L 2356 0 
L 1766 0 
Q 1100 0 847 248 
Q 594 497 594 1153 
L 594 3053 
L 172 3053 
L 172 3500 
L 594 3500 
L 594 4494 
L 1172 4494 
z
" transform="scale(0.015625)"/>
      <path id="DejaVuSans-37" d="M 525 4666 
L 3525 4666 
L 3525 4397 
L 1831 0 
L 1172 0 
L 2766 4134 
L 525 4134 
L 525 4666 
z
" transform="scale(0.015625)"/>
      <path id="DejaVuSans-64" d="M 2906 2969 
L 2906 4863 
L 3481 4863 
L 3481 0 
L 2906 0 
L 2906 525 
Q 2725 213 2448 61 
Q 2172 -91 1784 -91 
Q 1150 -91 751 415 
Q 353 922 353 1747 
Q 353 2572 751 3078 
Q 1150 3584 1784 3584 
Q 2172 3584 2448 3432 
Q 2725 3281 2906 2969 
z
M 947 1747 
Q 947 1113 1208 752 
Q 1469 391 1925 391 
Q 2381 391 2643 752 
Q 2906 1113 2906 1747 
Q 2906 2381 2643 2742 
Q 2381 3103 1925 3103 
Q 1469 3103 1208 2742 
Q 947 2381 947 1747 
z
" transform="scale(0.015625)"/>
     </defs>
     <use xlink:href="#DejaVuSans-4d"/>
     <use xlink:href="#DejaVuSans-69" x="86.279297"/>
     <use xlink:href="#DejaVuSans-72" x="114.0625"/>
     <use xlink:href="#DejaVuSans-6c" x="155.175781"/>
     <use xlink:href="#DejaVuSans-65" x="182.958984"/>
     <use xlink:href="#DejaVuSans-74" x="244.482422"/>
     <use xlink:href="#DejaVuSans-37" x="283.691406"/>
     <use xlink:href="#DejaVuSans-64" x="347.314453"/>
    </g>
   </g>
  </g>
 </g>
 <defs>
  <clipPath id="pc720ab022f">
   <rect x="55.548424" y="3.957949" width="745.843954" height="53.149606"/>
  </clipPath>
  <clipPath id="pc334166799">
   <rect x="55.548424" y="71.280784" width="745.843954" height="56.692913"/>
  </clipPath>
  <clipPath id="pe76197399f">
   <rect x="43.086614" y="71.280784" width="9.323049" height="56.692913"/>
  </clipPath>
 </defs>
</svg>
