<?xml version="1.0" encoding="utf-8" standalone="no"?>
<!DOCTYPE svg PUBLIC "-//W3C//DTD SVG 1.1//EN"
  "http://www.w3.org/Graphics/SVG/1.1/DTD/svg11.dtd">
<svg xmlns:xlink="http://www.w3.org/1999/xlink" width="1077.165354pt" height="131.931647pt" viewBox="0 0 1077.165354 131.931647" xmlns="http://www.w3.org/2000/svg" version="1.1">
 <metadata>
  <rdf:RDF xmlns:dc="http://purl.org/dc/elements/1.1/" xmlns:cc="http://creativecommons.org/ns#" xmlns:rdf="http://www.w3.org/1999/02/22-rdf-syntax-ns#">
   <cc:Work>
    <dc:type rdf:resource="http://purl.org/dc/dcmitype/StillImage"/>
    <dc:date>2023-06-08T01:07:47.862070</dc:date>
    <dc:format>image/svg+xml</dc:format>
    <dc:creator>
     <cc:Agent>
      <dc:title>Matplotlib v3.5.3, https://matplotlib.org/</dc:title>
     </cc:Agent>
    </dc:creator>
   </cc:Work>
  </rdf:RDF>
 </metadata>
 <defs>
  <style type="text/css">*{stroke-linejoin: round; stroke-linecap: butt}</style>
 </defs>
 <g id="figure_1">
  <g id="patch_1">
   <path d="M 0 131.931647 
L 1077.165354 131.931647 
L 1077.165354 0 
L 0 0 
z
" style="fill: #ffffff"/>
  </g>
  <g id="axes_1">
   <g id="mpl_toolkits.axisartist.axis_artist_1">
    <defs>
     <path id="m7ed0bd65f9" d="M 0 0 
L 0 -3.5 
" style="stroke: #000000; stroke-width: 0.8"/>
    </defs>
    <g>
     <use xlink:href="#m7ed0bd65f9" x="104.190421" y="9.27291" style="fill: none; stroke: #000000; stroke-width: 0.8"/>
    </g>
    <g>
     <use xlink:href="#m7ed0bd65f9" x="266.330411" y="9.27291" style="fill: none; stroke: #000000; stroke-width: 0.8"/>
    </g>
    <g>
     <use xlink:href="#m7ed0bd65f9" x="428.470401" y="9.27291" style="fill: none; stroke: #000000; stroke-width: 0.8"/>
    </g>
    <g>
     <use xlink:href="#m7ed0bd65f9" x="590.610391" y="9.27291" style="fill: none; stroke: #000000; stroke-width: 0.8"/>
    </g>
    <g>
     <use xlink:href="#m7ed0bd65f9" x="752.750381" y="9.27291" style="fill: none; stroke: #000000; stroke-width: 0.8"/>
    </g>
    <g id="text_1">
     <!-- 18,050,620 -->
     <g transform="translate(61.248233 24.170566)scale(0.15 -0.15)">
      <defs>
       <path id="DejaVuSans-31" d="M 794 531 
L 1825 531 
L 1825 4091 
L 703 3866 
L 703 4441 
L 1819 4666 
L 2450 4666 
L 2450 531 
L 3481 531 
L 3481 0 
L 794 0 
L 794 531 
z
" transform="scale(0.015625)"/>
       <path id="DejaVuSans-38" d="M 2034 2216 
Q 1584 2216 1326 1975 
Q 1069 1734 1069 1313 
Q 1069 891 1326 650 
Q 1584 409 2034 409 
Q 2484 409 2743 651 
Q 3003 894 3003 1313 
Q 3003 1734 2745 1975 
Q 2488 2216 2034 2216 
z
M 1403 2484 
Q 997 2584 770 2862 
Q 544 3141 544 3541 
Q 544 4100 942 4425 
Q 1341 4750 2034 4750 
Q 2731 4750 3128 4425 
Q 3525 4100 3525 3541 
Q 3525 3141 3298 2862 
Q 3072 2584 2669 2484 
Q 3125 2378 3379 2068 
Q 3634 1759 3634 1313 
Q 3634 634 3220 271 
Q 2806 -91 2034 -91 
Q 1263 -91 848 271 
Q 434 634 434 1313 
Q 434 1759 690 2068 
Q 947 2378 1403 2484 
z
M 1172 3481 
Q 1172 3119 1398 2916 
Q 1625 2713 2034 2713 
Q 2441 2713 2670 2916 
Q 2900 3119 2900 3481 
Q 2900 3844 2670 4047 
Q 2441 4250 2034 4250 
Q 1625 4250 1398 4047 
Q 1172 3844 1172 3481 
z
" transform="scale(0.015625)"/>
       <path id="DejaVuSans-2c" d="M 750 794 
L 1409 794 
L 1409 256 
L 897 -744 
L 494 -744 
L 750 256 
L 750 794 
z
" transform="scale(0.015625)"/>
       <path id="DejaVuSans-30" d="M 2034 4250 
Q 1547 4250 1301 3770 
Q 1056 3291 1056 2328 
Q 1056 1369 1301 889 
Q 1547 409 2034 409 
Q 2525 409 2770 889 
Q 3016 1369 3016 2328 
Q 3016 3291 2770 3770 
Q 2525 4250 2034 4250 
z
M 2034 4750 
Q 2819 4750 3233 4129 
Q 3647 3509 3647 2328 
Q 3647 1150 3233 529 
Q 2819 -91 2034 -91 
Q 1250 -91 836 529 
Q 422 1150 422 2328 
Q 422 3509 836 4129 
Q 1250 4750 2034 4750 
z
" transform="scale(0.015625)"/>
       <path id="DejaVuSans-35" d="M 691 4666 
L 3169 4666 
L 3169 4134 
L 1269 4134 
L 1269 2991 
Q 1406 3038 1543 3061 
Q 1681 3084 1819 3084 
Q 2600 3084 3056 2656 
Q 3513 2228 3513 1497 
Q 3513 744 3044 326 
Q 2575 -91 1722 -91 
Q 1428 -91 1123 -41 
Q 819 9 494 109 
L 494 744 
Q 775 591 1075 516 
Q 1375 441 1709 441 
Q 2250 441 2565 725 
Q 2881 1009 2881 1497 
Q 2881 1984 2565 2268 
Q 2250 2553 1709 2553 
Q 1456 2553 1204 2497 
Q 953 2441 691 2322 
L 691 4666 
z
" transform="scale(0.015625)"/>
       <path id="DejaVuSans-36" d="M 2113 2584 
Q 1688 2584 1439 2293 
Q 1191 2003 1191 1497 
Q 1191 994 1439 701 
Q 1688 409 2113 409 
Q 2538 409 2786 701 
Q 3034 994 3034 1497 
Q 3034 2003 2786 2293 
Q 2538 2584 2113 2584 
z
M 3366 4563 
L 3366 3988 
Q 3128 4100 2886 4159 
Q 2644 4219 2406 4219 
Q 1781 4219 1451 3797 
Q 1122 3375 1075 2522 
Q 1259 2794 1537 2939 
Q 1816 3084 2150 3084 
Q 2853 3084 3261 2657 
Q 3669 2231 3669 1497 
Q 3669 778 3244 343 
Q 2819 -91 2113 -91 
Q 1303 -91 875 529 
Q 447 1150 447 2328 
Q 447 3434 972 4092 
Q 1497 4750 2381 4750 
Q 2619 4750 2861 4703 
Q 3103 4656 3366 4563 
z
" transform="scale(0.015625)"/>
       <path id="DejaVuSans-32" d="M 1228 531 
L 3431 531 
L 3431 0 
L 469 0 
L 469 531 
Q 828 903 1448 1529 
Q 2069 2156 2228 2338 
Q 2531 2678 2651 2914 
Q 2772 3150 2772 3378 
Q 2772 3750 2511 3984 
Q 2250 4219 1831 4219 
Q 1534 4219 1204 4116 
Q 875 4013 500 3803 
L 500 4441 
Q 881 4594 1212 4672 
Q 1544 4750 1819 4750 
Q 2544 4750 2975 4387 
Q 3406 4025 3406 3419 
Q 3406 3131 3298 2873 
Q 3191 2616 2906 2266 
Q 2828 2175 2409 1742 
Q 1991 1309 1228 531 
z
" transform="scale(0.015625)"/>
      </defs>
      <use xlink:href="#DejaVuSans-31"/>
      <use xlink:href="#DejaVuSans-38" x="63.623047"/>
      <use xlink:href="#DejaVuSans-2c" x="127.246094"/>
      <use xlink:href="#DejaVuSans-30" x="159.033203"/>
      <use xlink:href="#DejaVuSans-35" x="222.65625"/>
      <use xlink:href="#DejaVuSans-30" x="286.279297"/>
      <use xlink:href="#DejaVuSans-2c" x="349.902344"/>
      <use xlink:href="#DejaVuSans-36" x="381.689453"/>
      <use xlink:href="#DejaVuSans-32" x="445.3125"/>
      <use xlink:href="#DejaVuSans-30" x="508.935547"/>
     </g>
    </g>
    <g id="text_2">
     <!-- 18,050,640 -->
     <g transform="translate(223.388223 24.170566)scale(0.15 -0.15)">
      <defs>
       <path id="DejaVuSans-34" d="M 2419 4116 
L 825 1625 
L 2419 1625 
L 2419 4116 
z
M 2253 4666 
L 3047 4666 
L 3047 1625 
L 3713 1625 
L 3713 1100 
L 3047 1100 
L 3047 0 
L 2419 0 
L 2419 1100 
L 313 1100 
L 313 1709 
L 2253 4666 
z
" transform="scale(0.015625)"/>
      </defs>
      <use xlink:href="#DejaVuSans-31"/>
      <use xlink:href="#DejaVuSans-38" x="63.623047"/>
      <use xlink:href="#DejaVuSans-2c" x="127.246094"/>
      <use xlink:href="#DejaVuSans-30" x="159.033203"/>
      <use xlink:href="#DejaVuSans-35" x="222.65625"/>
      <use xlink:href="#DejaVuSans-30" x="286.279297"/>
      <use xlink:href="#DejaVuSans-2c" x="349.902344"/>
      <use xlink:href="#DejaVuSans-36" x="381.689453"/>
      <use xlink:href="#DejaVuSans-34" x="445.3125"/>
      <use xlink:href="#DejaVuSans-30" x="508.935547"/>
     </g>
    </g>
    <g id="text_3">
     <!-- 18,050,660 -->
     <g transform="translate(385.528213 24.170566)scale(0.15 -0.15)">
      <use xlink:href="#DejaVuSans-31"/>
      <use xlink:href="#DejaVuSans-38" x="63.623047"/>
      <use xlink:href="#DejaVuSans-2c" x="127.246094"/>
      <use xlink:href="#DejaVuSans-30" x="159.033203"/>
      <use xlink:href="#DejaVuSans-35" x="222.65625"/>
      <use xlink:href="#DejaVuSans-30" x="286.279297"/>
      <use xlink:href="#DejaVuSans-2c" x="349.902344"/>
      <use xlink:href="#DejaVuSans-36" x="381.689453"/>
      <use xlink:href="#DejaVuSans-36" x="445.3125"/>
      <use xlink:href="#DejaVuSans-30" x="508.935547"/>
     </g>
    </g>
    <g id="text_4">
     <!-- 18,050,680 -->
     <g transform="translate(547.668203 24.170566)scale(0.15 -0.15)">
      <use xlink:href="#DejaVuSans-31"/>
      <use xlink:href="#DejaVuSans-38" x="63.623047"/>
      <use xlink:href="#DejaVuSans-2c" x="127.246094"/>
      <use xlink:href="#DejaVuSans-30" x="159.033203"/>
      <use xlink:href="#DejaVuSans-35" x="222.65625"/>
      <use xlink:href="#DejaVuSans-30" x="286.279297"/>
      <use xlink:href="#DejaVuSans-2c" x="349.902344"/>
      <use xlink:href="#DejaVuSans-36" x="381.689453"/>
      <use xlink:href="#DejaVuSans-38" x="445.3125"/>
      <use xlink:href="#DejaVuSans-30" x="508.935547"/>
     </g>
    </g>
    <g id="text_5">
     <!-- 18,050,700 b -->
     <g transform="translate(702.663271 24.170566)scale(0.15 -0.15)">
      <defs>
       <path id="DejaVuSans-37" d="M 525 4666 
L 3525 4666 
L 3525 4397 
L 1831 0 
L 1172 0 
L 2766 4134 
L 525 4134 
L 525 4666 
z
" transform="scale(0.015625)"/>
       <path id="DejaVuSans-20" transform="scale(0.015625)"/>
       <path id="DejaVuSans-62" d="M 3116 1747 
Q 3116 2381 2855 2742 
Q 2594 3103 2138 3103 
Q 1681 3103 1420 2742 
Q 1159 2381 1159 1747 
Q 1159 1113 1420 752 
Q 1681 391 2138 391 
Q 2594 391 2855 752 
Q 3116 1113 3116 1747 
z
M 1159 2969 
Q 1341 3281 1617 3432 
Q 1894 3584 2278 3584 
Q 2916 3584 3314 3078 
Q 3713 2572 3713 1747 
Q 3713 922 3314 415 
Q 2916 -91 2278 -91 
Q 1894 -91 1617 61 
Q 1341 213 1159 525 
L 1159 0 
L 581 0 
L 581 4863 
L 1159 4863 
L 1159 2969 
z
" transform="scale(0.015625)"/>
      </defs>
      <use xlink:href="#DejaVuSans-31"/>
      <use xlink:href="#DejaVuSans-38" x="63.623047"/>
      <use xlink:href="#DejaVuSans-2c" x="127.246094"/>
      <use xlink:href="#DejaVuSans-30" x="159.033203"/>
      <use xlink:href="#DejaVuSans-35" x="222.65625"/>
      <use xlink:href="#DejaVuSans-30" x="286.279297"/>
      <use xlink:href="#DejaVuSans-2c" x="349.902344"/>
      <use xlink:href="#DejaVuSans-37" x="381.689453"/>
      <use xlink:href="#DejaVuSans-30" x="445.3125"/>
      <use xlink:href="#DejaVuSans-30" x="508.935547"/>
      <use xlink:href="#DejaVuSans-20" x="572.558594"/>
      <use xlink:href="#DejaVuSans-62" x="604.345703"/>
     </g>
    </g>
    <g id="patch_2">
     <path d="M 55.548424 9.27291 
L 801.392378 9.27291 
" clip-path="url(#p1bac71f9ff)" style="fill: none; stroke: #000000; stroke-width: 0.8; stroke-linecap: square"/>
    </g>
   </g>
   <g id="text_6">
    <!-- chr17 -->
    <g transform="translate(406.966494 53.456528)scale(0.15 -0.15)">
     <defs>
      <path id="DejaVuSans-63" d="M 3122 3366 
L 3122 2828 
Q 2878 2963 2633 3030 
Q 2388 3097 2138 3097 
Q 1578 3097 1268 2742 
Q 959 2388 959 1747 
Q 959 1106 1268 751 
Q 1578 397 2138 397 
Q 2388 397 2633 464 
Q 2878 531 3122 666 
L 3122 134 
Q 2881 22 2623 -34 
Q 2366 -91 2075 -91 
Q 1284 -91 818 406 
Q 353 903 353 1747 
Q 353 2603 823 3093 
Q 1294 3584 2113 3584 
Q 2378 3584 2631 3529 
Q 2884 3475 3122 3366 
z
" transform="scale(0.015625)"/>
      <path id="DejaVuSans-68" d="M 3513 2113 
L 3513 0 
L 2938 0 
L 2938 2094 
Q 2938 2591 2744 2837 
Q 2550 3084 2163 3084 
Q 1697 3084 1428 2787 
Q 1159 2491 1159 1978 
L 1159 0 
L 581 0 
L 581 4863 
L 1159 4863 
L 1159 2956 
Q 1366 3272 1645 3428 
Q 1925 3584 2291 3584 
Q 2894 3584 3203 3211 
Q 3513 2838 3513 2113 
z
" transform="scale(0.015625)"/>
      <path id="DejaVuSans-72" d="M 2631 2963 
Q 2534 3019 2420 3045 
Q 2306 3072 2169 3072 
Q 1681 3072 1420 2755 
Q 1159 2438 1159 1844 
L 1159 0 
L 581 0 
L 581 3500 
L 1159 3500 
L 1159 2956 
Q 1341 3275 1631 3429 
Q 1922 3584 2338 3584 
Q 2397 3584 2469 3576 
Q 2541 3569 2628 3553 
L 2631 2963 
z
" transform="scale(0.015625)"/>
     </defs>
     <use xlink:href="#DejaVuSans-63"/>
     <use xlink:href="#DejaVuSans-68" x="54.980469"/>
     <use xlink:href="#DejaVuSans-72" x="118.359375"/>
     <use xlink:href="#DejaVuSans-31" x="159.472656"/>
     <use xlink:href="#DejaVuSans-37" x="223.095703"/>
    </g>
   </g>
  </g>
  <g id="axes_2"/>
  <g id="axes_3"/>
  <g id="axes_4"/>
  <g id="axes_5"/>
  <g id="axes_6"/>
  <g id="axes_7">
   <g id="PolyCollection_1">
    <defs>
     <path id="m4dd77fa8f6" d="M 55.548424 -3.957949 
L 55.548424 -3.957949 
L 63.655423 -3.957949 
L 63.655423 -3.957949 
L 71.762423 -3.957949 
L 71.762423 -3.957949 
L 79.869422 -3.957949 
L 79.869422 -3.957949 
L 87.976422 -3.957949 
L 87.976422 -3.957949 
L 96.083421 -3.957949 
L 96.083421 -3.957949 
L 104.190421 -3.957949 
L 104.190421 -3.957949 
L 112.29742 -3.957949 
L 112.29742 -3.957949 
L 120.40442 -3.957949 
L 120.40442 -3.957949 
L 128.511419 -3.957949 
L 128.511419 -3.957949 
L 136.618419 -3.957949 
L 136.618419 -3.957949 
L 144.725418 -3.957949 
L 144.725418 -3.957949 
L 152.832418 -3.957949 
L 152.832418 -3.957949 
L 160.939417 -3.957949 
L 160.939417 -3.957949 
L 169.046417 -3.957949 
L 169.046417 -57.9512 
L 177.153416 -57.9512 
L 177.153416 -38.452296 
L 185.260416 -38.452296 
L 185.260416 -3.957949 
L 193.367415 -3.957949 
L 193.367415 -3.957949 
L 201.474415 -3.957949 
L 201.474415 -3.957949 
L 209.581414 -3.957949 
L 209.581414 -3.957949 
L 217.688414 -3.957949 
L 217.688414 -3.957949 
L 225.795413 -3.957949 
L 225.795413 -3.957949 
L 233.902413 -3.957949 
L 233.902413 -3.957949 
L 242.009412 -3.957949 
L 242.009412 -3.957949 
L 250.116412 -3.957949 
L 250.116412 -3.957949 
L 258.223411 -3.957949 
L 258.223411 -3.957949 
L 266.330411 -3.957949 
L 266.330411 -3.957949 
L 274.43741 -3.957949 
L 274.43741 -3.957949 
L 282.54441 -3.957949 
L 282.54441 -3.957949 
L 290.651409 -3.957949 
L 290.651409 -3.957949 
L 298.758409 -3.957949 
L 298.758409 -3.957949 
L 306.865408 -3.957949 
L 306.865408 -3.957949 
L 314.972408 -3.957949 
L 314.972408 -3.957949 
L 323.079407 -3.957949 
L 323.079407 -3.957949 
L 331.186407 -3.957949 
L 331.186407 -3.957949 
L 339.293406 -3.957949 
L 339.293406 -3.957949 
L 347.400406 -3.957949 
L 347.400406 -3.957949 
L 355.507405 -3.957949 
L 355.507405 -3.957949 
L 363.614405 -3.957949 
L 363.614405 -3.957949 
L 371.721404 -3.957949 
L 371.721404 -3.957949 
L 379.828404 -3.957949 
L 379.828404 -3.957949 
L 387.935403 -3.957949 
L 387.935403 -3.957949 
L 396.042403 -3.957949 
L 396.042403 -3.957949 
L 404.149402 -3.957949 
L 404.149402 -3.957949 
L 412.256402 -3.957949 
L 412.256402 -3.957949 
L 420.363401 -3.957949 
L 420.363401 -3.957949 
L 428.470401 -3.957949 
L 428.470401 -3.957949 
L 436.5774 -3.957949 
L 436.5774 -3.957949 
L 444.6844 -3.957949 
L 444.6844 -3.957949 
L 452.791399 -3.957949 
L 452.791399 -3.957949 
L 460.898399 -3.957949 
L 460.898399 -3.957949 
L 469.005398 -3.957949 
L 469.005398 -3.957949 
L 477.112398 -3.957949 
L 477.112398 -3.957949 
L 485.219397 -3.957949 
L 485.219397 -3.957949 
L 493.326397 -3.957949 
L 493.326397 -3.957949 
L 501.433396 -3.957949 
L 501.433396 -3.957949 
L 509.540396 -3.957949 
L 509.540396 -3.957949 
L 517.647395 -3.957949 
L 517.647395 -3.957949 
L 525.754395 -3.957949 
L 525.754395 -3.957949 
L 533.861394 -3.957949 
L 533.861394 -3.957949 
L 541.968394 -3.957949 
L 541.968394 -3.957949 
L 550.075393 -3.957949 
L 550.075393 -3.957949 
L 558.182393 -3.957949 
L 558.182393 -3.957949 
L 566.289392 -3.957949 
L 566.289392 -3.957949 
L 574.396392 -3.957949 
L 574.396392 -3.957949 
L 582.503391 -3.957949 
L 582.503391 -3.957949 
L 590.610391 -3.957949 
L 590.610391 -3.957949 
L 598.71739 -3.957949 
L 598.71739 -3.957949 
L 606.82439 -3.957949 
L 606.82439 -3.957949 
L 614.931389 -3.957949 
L 614.931389 -3.957949 
L 623.038389 -3.957949 
L 623.038389 -3.957949 
L 631.145388 -3.957949 
L 631.145388 -3.957949 
L 639.252388 -3.957949 
L 639.252388 -3.957949 
L 647.359387 -3.957949 
L 647.359387 -3.957949 
L 655.466387 -3.957949 
L 655.466387 -3.957949 
L 663.573386 -3.957949 
L 663.573386 -3.957949 
L 671.680386 -3.957949 
L 671.680386 -3.957949 
L 679.787385 -3.957949 
L 679.787385 -3.957949 
L 687.894385 -3.957949 
L 687.894385 -3.957949 
L 696.001384 -3.957949 
L 696.001384 -3.957949 
L 704.108384 -3.957949 
L 704.108384 -3.957949 
L 712.215383 -3.957949 
L 712.215383 -3.957949 
L 720.322383 -3.957949 
L 720.322383 -3.957949 
L 728.429382 -3.957949 
L 728.429382 -3.957949 
L 736.536382 -3.957949 
L 736.536382 -3.957949 
L 744.643381 -3.957949 
L 744.643381 -3.957949 
L 752.750381 -3.957949 
L 752.750381 -3.957949 
L 760.85738 -3.957949 
L 760.85738 -3.957949 
L 768.96438 -3.957949 
L 768.96438 -3.957949 
L 777.071379 -3.957949 
L 777.071379 -3.957949 
L 785.178379 -3.957949 
L 785.178379 -3.957949 
L 793.285378 -3.957949 
L 793.285378 -3.957949 
L 801.392378 -3.957949 
L 801.392378 -3.957949 
L 801.392378 -3.957949 
L 793.285378 -3.957949 
L 793.285378 -3.957949 
L 785.178379 -3.957949 
L 785.178379 -3.957949 
L 777.071379 -3.957949 
L 777.071379 -3.957949 
L 768.96438 -3.957949 
L 768.96438 -3.957949 
L 760.85738 -3.957949 
L 760.85738 -3.957949 
L 752.750381 -3.957949 
L 752.750381 -3.957949 
L 744.643381 -3.957949 
L 744.643381 -3.957949 
L 736.536382 -3.957949 
L 736.536382 -3.957949 
L 728.429382 -3.957949 
L 728.429382 -3.957949 
L 720.322383 -3.957949 
L 720.322383 -3.957949 
L 712.215383 -3.957949 
L 712.215383 -3.957949 
L 704.108384 -3.957949 
L 704.108384 -3.957949 
L 696.001384 -3.957949 
L 696.001384 -3.957949 
L 687.894385 -3.957949 
L 687.894385 -3.957949 
L 679.787385 -3.957949 
L 679.787385 -3.957949 
L 671.680386 -3.957949 
L 671.680386 -3.957949 
L 663.573386 -3.957949 
L 663.573386 -3.957949 
L 655.466387 -3.957949 
L 655.466387 -3.957949 
L 647.359387 -3.957949 
L 647.359387 -3.957949 
L 639.252388 -3.957949 
L 639.252388 -3.957949 
L 631.145388 -3.957949 
L 631.145388 -3.957949 
L 623.038389 -3.957949 
L 623.038389 -3.957949 
L 614.931389 -3.957949 
L 614.931389 -3.957949 
L 606.82439 -3.957949 
L 606.82439 -3.957949 
L 598.71739 -3.957949 
L 598.71739 -3.957949 
L 590.610391 -3.957949 
L 590.610391 -3.957949 
L 582.503391 -3.957949 
L 582.503391 -3.957949 
L 574.396392 -3.957949 
L 574.396392 -3.957949 
L 566.289392 -3.957949 
L 566.289392 -3.957949 
L 558.182393 -3.957949 
L 558.182393 -3.957949 
L 550.075393 -3.957949 
L 550.075393 -3.957949 
L 541.968394 -3.957949 
L 541.968394 -3.957949 
L 533.861394 -3.957949 
L 533.861394 -3.957949 
L 525.754395 -3.957949 
L 525.754395 -3.957949 
L 517.647395 -3.957949 
L 517.647395 -3.957949 
L 509.540396 -3.957949 
L 509.540396 -3.957949 
L 501.433396 -3.957949 
L 501.433396 -3.957949 
L 493.326397 -3.957949 
L 493.326397 -3.957949 
L 485.219397 -3.957949 
L 485.219397 -3.957949 
L 477.112398 -3.957949 
L 477.112398 -3.957949 
L 469.005398 -3.957949 
L 469.005398 -3.957949 
L 460.898399 -3.957949 
L 460.898399 -3.957949 
L 452.791399 -3.957949 
L 452.791399 -3.957949 
L 444.6844 -3.957949 
L 444.6844 -3.957949 
L 436.5774 -3.957949 
L 436.5774 -3.957949 
L 428.470401 -3.957949 
L 428.470401 -3.957949 
L 420.363401 -3.957949 
L 420.363401 -3.957949 
L 412.256402 -3.957949 
L 412.256402 -3.957949 
L 404.149402 -3.957949 
L 404.149402 -3.957949 
L 396.042403 -3.957949 
L 396.042403 -3.957949 
L 387.935403 -3.957949 
L 387.935403 -3.957949 
L 379.828404 -3.957949 
L 379.828404 -3.957949 
L 371.721404 -3.957949 
L 371.721404 -3.957949 
L 363.614405 -3.957949 
L 363.614405 -3.957949 
L 355.507405 -3.957949 
L 355.507405 -3.957949 
L 347.400406 -3.957949 
L 347.400406 -3.957949 
L 339.293406 -3.957949 
L 339.293406 -3.957949 
L 331.186407 -3.957949 
L 331.186407 -3.957949 
L 323.079407 -3.957949 
L 323.079407 -3.957949 
L 314.972408 -3.957949 
L 314.972408 -3.957949 
L 306.865408 -3.957949 
L 306.865408 -3.957949 
L 298.758409 -3.957949 
L 298.758409 -3.957949 
L 290.651409 -3.957949 
L 290.651409 -3.957949 
L 282.54441 -3.957949 
L 282.54441 -3.957949 
L 274.43741 -3.957949 
L 274.43741 -3.957949 
L 266.330411 -3.957949 
L 266.330411 -3.957949 
L 258.223411 -3.957949 
L 258.223411 -3.957949 
L 250.116412 -3.957949 
L 250.116412 -3.957949 
L 242.009412 -3.957949 
L 242.009412 -3.957949 
L 233.902413 -3.957949 
L 233.902413 -3.957949 
L 225.795413 -3.957949 
L 225.795413 -3.957949 
L 217.688414 -3.957949 
L 217.688414 -3.957949 
L 209.581414 -3.957949 
L 209.581414 -3.957949 
L 201.474415 -3.957949 
L 201.474415 -3.957949 
L 193.367415 -3.957949 
L 193.367415 -3.957949 
L 185.260416 -3.957949 
L 185.260416 -3.957949 
L 177.153416 -3.957949 
L 177.153416 -3.957949 
L 169.046417 -3.957949 
L 169.046417 -3.957949 
L 160.939417 -3.957949 
L 160.939417 -3.957949 
L 152.832418 -3.957949 
L 152.832418 -3.957949 
L 144.725418 -3.957949 
L 144.725418 -3.957949 
L 136.618419 -3.957949 
L 136.618419 -3.957949 
L 128.511419 -3.957949 
L 128.511419 -3.957949 
L 120.40442 -3.957949 
L 120.40442 -3.957949 
L 112.29742 -3.957949 
L 112.29742 -3.957949 
L 104.190421 -3.957949 
L 104.190421 -3.957949 
L 96.083421 -3.957949 
L 96.083421 -3.957949 
L 87.976422 -3.957949 
L 87.976422 -3.957949 
L 79.869422 -3.957949 
L 79.869422 -3.957949 
L 71.762423 -3.957949 
L 71.762423 -3.957949 
L 63.655423 -3.957949 
L 63.655423 -3.957949 
L 55.548424 -3.957949 
z
" style="stroke: #008000; stroke-width: 0.1"/>
    </defs>
    <g clip-path="url(#pe01114116c)">
     <use xlink:href="#m4dd77fa8f6" x="0" y="131.931647" style="fill: #008000; stroke: #008000; stroke-width: 0.1"/>
    </g>
   </g>
  </g>
  <g id="axes_8">
   <g id="line2d_1">
    <path d="M 43.086614 127.406768 
L 47.748139 127.406768 
L 47.748139 71.847713 
L 43.086614 71.847713 
" clip-path="url(#p248feea4e1)" style="fill: none; stroke: #000000; stroke-linecap: square"/>
   </g>
   <g id="text_7">
    <!-- 0 -->
    <g transform="translate(28.497004 124.381252)scale(0.2 -0.2)">
     <use xlink:href="#DejaVuSans-30"/>
    </g>
   </g>
   <g id="text_8">
    <!-- 2.057 -->
    <g transform="translate(-16.034246 86.477659)scale(0.2 -0.2)">
     <defs>
      <path id="DejaVuSans-2e" d="M 684 794 
L 1344 794 
L 1344 0 
L 684 0 
L 684 794 
z
" transform="scale(0.015625)"/>
     </defs>
     <use xlink:href="#DejaVuSans-32"/>
     <use xlink:href="#DejaVuSans-2e" x="63.623047"/>
     <use xlink:href="#DejaVuSans-30" x="95.410156"/>
     <use xlink:href="#DejaVuSans-35" x="159.033203"/>
     <use xlink:href="#DejaVuSans-37" x="222.65625"/>
    </g>
   </g>
  </g>
  <g id="axes_9">
   <g id="text_9">
    <!-- Mirlet7e -->
    <g transform="translate(813.854187 106.249741)scale(0.24 -0.24)">
     <defs>
      <path id="DejaVuSans-4d" d="M 628 4666 
L 1569 4666 
L 2759 1491 
L 3956 4666 
L 4897 4666 
L 4897 0 
L 4281 0 
L 4281 4097 
L 3078 897 
L 2444 897 
L 1241 4097 
L 1241 0 
L 628 0 
L 628 4666 
z
" transform="scale(0.015625)"/>
      <path id="DejaVuSans-69" d="M 603 3500 
L 1178 3500 
L 1178 0 
L 603 0 
L 603 3500 
z
M 603 4863 
L 1178 4863 
L 1178 4134 
L 603 4134 
L 603 4863 
z
" transform="scale(0.015625)"/>
      <path id="DejaVuSans-6c" d="M 603 4863 
L 1178 4863 
L 1178 0 
L 603 0 
L 603 4863 
z
" transform="scale(0.015625)"/>
      <path id="DejaVuSans-65" d="M 3597 1894 
L 3597 1613 
L 953 1613 
Q 991 1019 1311 708 
Q 1631 397 2203 397 
Q 2534 397 2845 478 
Q 3156 559 3463 722 
L 3463 178 
Q 3153 47 2828 -22 
Q 2503 -91 2169 -91 
Q 1331 -91 842 396 
Q 353 884 353 1716 
Q 353 2575 817 3079 
Q 1281 3584 2069 3584 
Q 2775 3584 3186 3129 
Q 3597 2675 3597 1894 
z
M 3022 2063 
Q 3016 2534 2758 2815 
Q 2500 3097 2075 3097 
Q 1594 3097 1305 2825 
Q 1016 2553 972 2059 
L 3022 2063 
z
" transform="scale(0.015625)"/>
      <path id="DejaVuSans-74" d="M 1172 4494 
L 1172 3500 
L 2356 3500 
L 2356 3053 
L 1172 3053 
L 1172 1153 
Q 1172 725 1289 603 
Q 1406 481 1766 481 
L 2356 481 
L 2356 0 
L 1766 0 
Q 1100 0 847 248 
Q 594 497 594 1153 
L 594 3053 
L 172 3053 
L 172 3500 
L 594 3500 
L 594 4494 
L 1172 4494 
z
" transform="scale(0.015625)"/>
     </defs>
     <use xlink:href="#DejaVuSans-4d"/>
     <use xlink:href="#DejaVuSans-69" x="86.279297"/>
     <use xlink:href="#DejaVuSans-72" x="114.0625"/>
     <use xlink:href="#DejaVuSans-6c" x="155.175781"/>
     <use xlink:href="#DejaVuSans-65" x="182.958984"/>
     <use xlink:href="#DejaVuSans-74" x="244.482422"/>
     <use xlink:href="#DejaVuSans-37" x="283.691406"/>
     <use xlink:href="#DejaVuSans-65" x="347.314453"/>
    </g>
   </g>
  </g>
 </g>
 <defs>
  <clipPath id="p1bac71f9ff">
   <rect x="55.548424" y="3.957949" width="745.843954" height="53.149606"/>
  </clipPath>
  <clipPath id="pe01114116c">
   <rect x="55.548424" y="71.280784" width="745.843954" height="56.692913"/>
  </clipPath>
  <clipPath id="p248feea4e1">
   <rect x="43.086614" y="71.280784" width="9.323049" height="56.692913"/>
  </clipPath>
 </defs>
</svg>
