<?xml version="1.0" encoding="utf-8" standalone="no"?>
<!DOCTYPE svg PUBLIC "-//W3C//DTD SVG 1.1//EN"
  "http://www.w3.org/Graphics/SVG/1.1/DTD/svg11.dtd">
<svg xmlns:xlink="http://www.w3.org/1999/xlink" width="1077.165354pt" height="131.931647pt" viewBox="0 0 1077.165354 131.931647" xmlns="http://www.w3.org/2000/svg" version="1.1">
 <metadata>
  <rdf:RDF xmlns:dc="http://purl.org/dc/elements/1.1/" xmlns:cc="http://creativecommons.org/ns#" xmlns:rdf="http://www.w3.org/1999/02/22-rdf-syntax-ns#">
   <cc:Work>
    <dc:type rdf:resource="http://purl.org/dc/dcmitype/StillImage"/>
    <dc:date>2023-06-08T01:07:32.158116</dc:date>
    <dc:format>image/svg+xml</dc:format>
    <dc:creator>
     <cc:Agent>
      <dc:title>Matplotlib v3.5.3, https://matplotlib.org/</dc:title>
     </cc:Agent>
    </dc:creator>
   </cc:Work>
  </rdf:RDF>
 </metadata>
 <defs>
  <style type="text/css">*{stroke-linejoin: round; stroke-linecap: butt}</style>
 </defs>
 <g id="figure_1">
  <g id="patch_1">
   <path d="M 0 131.931647 
L 1077.165354 131.931647 
L 1077.165354 0 
L 0 0 
z
" style="fill: #ffffff"/>
  </g>
  <g id="axes_1">
   <g id="mpl_toolkits.axisartist.axis_artist_1">
    <defs>
     <path id="m34560c9be3" d="M 0 0 
L 0 -3.5 
" style="stroke: #000000; stroke-width: 0.8"/>
    </defs>
    <g>
     <use xlink:href="#m34560c9be3" x="99.943897" y="9.27291" style="fill: none; stroke: #000000; stroke-width: 0.8"/>
    </g>
    <g>
     <use xlink:href="#m34560c9be3" x="188.734844" y="9.27291" style="fill: none; stroke: #000000; stroke-width: 0.8"/>
    </g>
    <g>
     <use xlink:href="#m34560c9be3" x="277.525791" y="9.27291" style="fill: none; stroke: #000000; stroke-width: 0.8"/>
    </g>
    <g>
     <use xlink:href="#m34560c9be3" x="366.316738" y="9.27291" style="fill: none; stroke: #000000; stroke-width: 0.8"/>
    </g>
    <g>
     <use xlink:href="#m34560c9be3" x="455.107685" y="9.27291" style="fill: none; stroke: #000000; stroke-width: 0.8"/>
    </g>
    <g>
     <use xlink:href="#m34560c9be3" x="543.898632" y="9.27291" style="fill: none; stroke: #000000; stroke-width: 0.8"/>
    </g>
    <g>
     <use xlink:href="#m34560c9be3" x="632.689578" y="9.27291" style="fill: none; stroke: #000000; stroke-width: 0.8"/>
    </g>
    <g>
     <use xlink:href="#m34560c9be3" x="721.480525" y="9.27291" style="fill: none; stroke: #000000; stroke-width: 0.8"/>
    </g>
    <g id="text_1">
     <!-- 122,821,550 -->
     <g transform="translate(52.229835 24.170566)scale(0.15 -0.15)">
      <defs>
       <path id="DejaVuSans-31" d="M 794 531 
L 1825 531 
L 1825 4091 
L 703 3866 
L 703 4441 
L 1819 4666 
L 2450 4666 
L 2450 531 
L 3481 531 
L 3481 0 
L 794 0 
L 794 531 
z
" transform="scale(0.015625)"/>
       <path id="DejaVuSans-32" d="M 1228 531 
L 3431 531 
L 3431 0 
L 469 0 
L 469 531 
Q 828 903 1448 1529 
Q 2069 2156 2228 2338 
Q 2531 2678 2651 2914 
Q 2772 3150 2772 3378 
Q 2772 3750 2511 3984 
Q 2250 4219 1831 4219 
Q 1534 4219 1204 4116 
Q 875 4013 500 3803 
L 500 4441 
Q 881 4594 1212 4672 
Q 1544 4750 1819 4750 
Q 2544 4750 2975 4387 
Q 3406 4025 3406 3419 
Q 3406 3131 3298 2873 
Q 3191 2616 2906 2266 
Q 2828 2175 2409 1742 
Q 1991 1309 1228 531 
z
" transform="scale(0.015625)"/>
       <path id="DejaVuSans-2c" d="M 750 794 
L 1409 794 
L 1409 256 
L 897 -744 
L 494 -744 
L 750 256 
L 750 794 
z
" transform="scale(0.015625)"/>
       <path id="DejaVuSans-38" d="M 2034 2216 
Q 1584 2216 1326 1975 
Q 1069 1734 1069 1313 
Q 1069 891 1326 650 
Q 1584 409 2034 409 
Q 2484 409 2743 651 
Q 3003 894 3003 1313 
Q 3003 1734 2745 1975 
Q 2488 2216 2034 2216 
z
M 1403 2484 
Q 997 2584 770 2862 
Q 544 3141 544 3541 
Q 544 4100 942 4425 
Q 1341 4750 2034 4750 
Q 2731 4750 3128 4425 
Q 3525 4100 3525 3541 
Q 3525 3141 3298 2862 
Q 3072 2584 2669 2484 
Q 3125 2378 3379 2068 
Q 3634 1759 3634 1313 
Q 3634 634 3220 271 
Q 2806 -91 2034 -91 
Q 1263 -91 848 271 
Q 434 634 434 1313 
Q 434 1759 690 2068 
Q 947 2378 1403 2484 
z
M 1172 3481 
Q 1172 3119 1398 2916 
Q 1625 2713 2034 2713 
Q 2441 2713 2670 2916 
Q 2900 3119 2900 3481 
Q 2900 3844 2670 4047 
Q 2441 4250 2034 4250 
Q 1625 4250 1398 4047 
Q 1172 3844 1172 3481 
z
" transform="scale(0.015625)"/>
       <path id="DejaVuSans-35" d="M 691 4666 
L 3169 4666 
L 3169 4134 
L 1269 4134 
L 1269 2991 
Q 1406 3038 1543 3061 
Q 1681 3084 1819 3084 
Q 2600 3084 3056 2656 
Q 3513 2228 3513 1497 
Q 3513 744 3044 326 
Q 2575 -91 1722 -91 
Q 1428 -91 1123 -41 
Q 819 9 494 109 
L 494 744 
Q 775 591 1075 516 
Q 1375 441 1709 441 
Q 2250 441 2565 725 
Q 2881 1009 2881 1497 
Q 2881 1984 2565 2268 
Q 2250 2553 1709 2553 
Q 1456 2553 1204 2497 
Q 953 2441 691 2322 
L 691 4666 
z
" transform="scale(0.015625)"/>
       <path id="DejaVuSans-30" d="M 2034 4250 
Q 1547 4250 1301 3770 
Q 1056 3291 1056 2328 
Q 1056 1369 1301 889 
Q 1547 409 2034 409 
Q 2525 409 2770 889 
Q 3016 1369 3016 2328 
Q 3016 3291 2770 3770 
Q 2525 4250 2034 4250 
z
M 2034 4750 
Q 2819 4750 3233 4129 
Q 3647 3509 3647 2328 
Q 3647 1150 3233 529 
Q 2819 -91 2034 -91 
Q 1250 -91 836 529 
Q 422 1150 422 2328 
Q 422 3509 836 4129 
Q 1250 4750 2034 4750 
z
" transform="scale(0.015625)"/>
      </defs>
      <use xlink:href="#DejaVuSans-31"/>
      <use xlink:href="#DejaVuSans-32" x="63.623047"/>
      <use xlink:href="#DejaVuSans-32" x="127.246094"/>
      <use xlink:href="#DejaVuSans-2c" x="190.869141"/>
      <use xlink:href="#DejaVuSans-38" x="222.65625"/>
      <use xlink:href="#DejaVuSans-32" x="286.279297"/>
      <use xlink:href="#DejaVuSans-31" x="349.902344"/>
      <use xlink:href="#DejaVuSans-2c" x="413.525391"/>
      <use xlink:href="#DejaVuSans-35" x="445.3125"/>
      <use xlink:href="#DejaVuSans-35" x="508.935547"/>
      <use xlink:href="#DejaVuSans-30" x="572.558594"/>
     </g>
    </g>
    <g id="text_2">
     <!-- 122,821,560 -->
     <g transform="translate(141.020781 24.170566)scale(0.15 -0.15)">
      <defs>
       <path id="DejaVuSans-36" d="M 2113 2584 
Q 1688 2584 1439 2293 
Q 1191 2003 1191 1497 
Q 1191 994 1439 701 
Q 1688 409 2113 409 
Q 2538 409 2786 701 
Q 3034 994 3034 1497 
Q 3034 2003 2786 2293 
Q 2538 2584 2113 2584 
z
M 3366 4563 
L 3366 3988 
Q 3128 4100 2886 4159 
Q 2644 4219 2406 4219 
Q 1781 4219 1451 3797 
Q 1122 3375 1075 2522 
Q 1259 2794 1537 2939 
Q 1816 3084 2150 3084 
Q 2853 3084 3261 2657 
Q 3669 2231 3669 1497 
Q 3669 778 3244 343 
Q 2819 -91 2113 -91 
Q 1303 -91 875 529 
Q 447 1150 447 2328 
Q 447 3434 972 4092 
Q 1497 4750 2381 4750 
Q 2619 4750 2861 4703 
Q 3103 4656 3366 4563 
z
" transform="scale(0.015625)"/>
      </defs>
      <use xlink:href="#DejaVuSans-31"/>
      <use xlink:href="#DejaVuSans-32" x="63.623047"/>
      <use xlink:href="#DejaVuSans-32" x="127.246094"/>
      <use xlink:href="#DejaVuSans-2c" x="190.869141"/>
      <use xlink:href="#DejaVuSans-38" x="222.65625"/>
      <use xlink:href="#DejaVuSans-32" x="286.279297"/>
      <use xlink:href="#DejaVuSans-31" x="349.902344"/>
      <use xlink:href="#DejaVuSans-2c" x="413.525391"/>
      <use xlink:href="#DejaVuSans-35" x="445.3125"/>
      <use xlink:href="#DejaVuSans-36" x="508.935547"/>
      <use xlink:href="#DejaVuSans-30" x="572.558594"/>
     </g>
    </g>
    <g id="text_3">
     <!-- 122,821,570 -->
     <g transform="translate(229.811728 24.170566)scale(0.15 -0.15)">
      <defs>
       <path id="DejaVuSans-37" d="M 525 4666 
L 3525 4666 
L 3525 4397 
L 1831 0 
L 1172 0 
L 2766 4134 
L 525 4134 
L 525 4666 
z
" transform="scale(0.015625)"/>
      </defs>
      <use xlink:href="#DejaVuSans-31"/>
      <use xlink:href="#DejaVuSans-32" x="63.623047"/>
      <use xlink:href="#DejaVuSans-32" x="127.246094"/>
      <use xlink:href="#DejaVuSans-2c" x="190.869141"/>
      <use xlink:href="#DejaVuSans-38" x="222.65625"/>
      <use xlink:href="#DejaVuSans-32" x="286.279297"/>
      <use xlink:href="#DejaVuSans-31" x="349.902344"/>
      <use xlink:href="#DejaVuSans-2c" x="413.525391"/>
      <use xlink:href="#DejaVuSans-35" x="445.3125"/>
      <use xlink:href="#DejaVuSans-37" x="508.935547"/>
      <use xlink:href="#DejaVuSans-30" x="572.558594"/>
     </g>
    </g>
    <g id="text_4">
     <!-- 122,821,580 -->
     <g transform="translate(318.602675 24.170566)scale(0.15 -0.15)">
      <use xlink:href="#DejaVuSans-31"/>
      <use xlink:href="#DejaVuSans-32" x="63.623047"/>
      <use xlink:href="#DejaVuSans-32" x="127.246094"/>
      <use xlink:href="#DejaVuSans-2c" x="190.869141"/>
      <use xlink:href="#DejaVuSans-38" x="222.65625"/>
      <use xlink:href="#DejaVuSans-32" x="286.279297"/>
      <use xlink:href="#DejaVuSans-31" x="349.902344"/>
      <use xlink:href="#DejaVuSans-2c" x="413.525391"/>
      <use xlink:href="#DejaVuSans-35" x="445.3125"/>
      <use xlink:href="#DejaVuSans-38" x="508.935547"/>
      <use xlink:href="#DejaVuSans-30" x="572.558594"/>
     </g>
    </g>
    <g id="text_5">
     <!-- 122,821,590 -->
     <g transform="translate(407.393622 24.170566)scale(0.15 -0.15)">
      <defs>
       <path id="DejaVuSans-39" d="M 703 97 
L 703 672 
Q 941 559 1184 500 
Q 1428 441 1663 441 
Q 2288 441 2617 861 
Q 2947 1281 2994 2138 
Q 2813 1869 2534 1725 
Q 2256 1581 1919 1581 
Q 1219 1581 811 2004 
Q 403 2428 403 3163 
Q 403 3881 828 4315 
Q 1253 4750 1959 4750 
Q 2769 4750 3195 4129 
Q 3622 3509 3622 2328 
Q 3622 1225 3098 567 
Q 2575 -91 1691 -91 
Q 1453 -91 1209 -44 
Q 966 3 703 97 
z
M 1959 2075 
Q 2384 2075 2632 2365 
Q 2881 2656 2881 3163 
Q 2881 3666 2632 3958 
Q 2384 4250 1959 4250 
Q 1534 4250 1286 3958 
Q 1038 3666 1038 3163 
Q 1038 2656 1286 2365 
Q 1534 2075 1959 2075 
z
" transform="scale(0.015625)"/>
      </defs>
      <use xlink:href="#DejaVuSans-31"/>
      <use xlink:href="#DejaVuSans-32" x="63.623047"/>
      <use xlink:href="#DejaVuSans-32" x="127.246094"/>
      <use xlink:href="#DejaVuSans-2c" x="190.869141"/>
      <use xlink:href="#DejaVuSans-38" x="222.65625"/>
      <use xlink:href="#DejaVuSans-32" x="286.279297"/>
      <use xlink:href="#DejaVuSans-31" x="349.902344"/>
      <use xlink:href="#DejaVuSans-2c" x="413.525391"/>
      <use xlink:href="#DejaVuSans-35" x="445.3125"/>
      <use xlink:href="#DejaVuSans-39" x="508.935547"/>
      <use xlink:href="#DejaVuSans-30" x="572.558594"/>
     </g>
    </g>
    <g id="text_6">
     <!-- 122,821,600 -->
     <g transform="translate(496.184569 24.170566)scale(0.15 -0.15)">
      <use xlink:href="#DejaVuSans-31"/>
      <use xlink:href="#DejaVuSans-32" x="63.623047"/>
      <use xlink:href="#DejaVuSans-32" x="127.246094"/>
      <use xlink:href="#DejaVuSans-2c" x="190.869141"/>
      <use xlink:href="#DejaVuSans-38" x="222.65625"/>
      <use xlink:href="#DejaVuSans-32" x="286.279297"/>
      <use xlink:href="#DejaVuSans-31" x="349.902344"/>
      <use xlink:href="#DejaVuSans-2c" x="413.525391"/>
      <use xlink:href="#DejaVuSans-36" x="445.3125"/>
      <use xlink:href="#DejaVuSans-30" x="508.935547"/>
      <use xlink:href="#DejaVuSans-30" x="572.558594"/>
     </g>
    </g>
    <g id="text_7">
     <!-- 122,821,610 -->
     <g transform="translate(584.975516 24.170566)scale(0.15 -0.15)">
      <use xlink:href="#DejaVuSans-31"/>
      <use xlink:href="#DejaVuSans-32" x="63.623047"/>
      <use xlink:href="#DejaVuSans-32" x="127.246094"/>
      <use xlink:href="#DejaVuSans-2c" x="190.869141"/>
      <use xlink:href="#DejaVuSans-38" x="222.65625"/>
      <use xlink:href="#DejaVuSans-32" x="286.279297"/>
      <use xlink:href="#DejaVuSans-31" x="349.902344"/>
      <use xlink:href="#DejaVuSans-2c" x="413.525391"/>
      <use xlink:href="#DejaVuSans-36" x="445.3125"/>
      <use xlink:href="#DejaVuSans-31" x="508.935547"/>
      <use xlink:href="#DejaVuSans-30" x="572.558594"/>
     </g>
    </g>
    <g id="text_8">
     <!-- 122,821,620 b -->
     <g transform="translate(666.621541 24.170566)scale(0.15 -0.15)">
      <defs>
       <path id="DejaVuSans-20" transform="scale(0.015625)"/>
       <path id="DejaVuSans-62" d="M 3116 1747 
Q 3116 2381 2855 2742 
Q 2594 3103 2138 3103 
Q 1681 3103 1420 2742 
Q 1159 2381 1159 1747 
Q 1159 1113 1420 752 
Q 1681 391 2138 391 
Q 2594 391 2855 752 
Q 3116 1113 3116 1747 
z
M 1159 2969 
Q 1341 3281 1617 3432 
Q 1894 3584 2278 3584 
Q 2916 3584 3314 3078 
Q 3713 2572 3713 1747 
Q 3713 922 3314 415 
Q 2916 -91 2278 -91 
Q 1894 -91 1617 61 
Q 1341 213 1159 525 
L 1159 0 
L 581 0 
L 581 4863 
L 1159 4863 
L 1159 2969 
z
" transform="scale(0.015625)"/>
      </defs>
      <use xlink:href="#DejaVuSans-31"/>
      <use xlink:href="#DejaVuSans-32" x="63.623047"/>
      <use xlink:href="#DejaVuSans-32" x="127.246094"/>
      <use xlink:href="#DejaVuSans-2c" x="190.869141"/>
      <use xlink:href="#DejaVuSans-38" x="222.65625"/>
      <use xlink:href="#DejaVuSans-32" x="286.279297"/>
      <use xlink:href="#DejaVuSans-31" x="349.902344"/>
      <use xlink:href="#DejaVuSans-2c" x="413.525391"/>
      <use xlink:href="#DejaVuSans-36" x="445.3125"/>
      <use xlink:href="#DejaVuSans-32" x="508.935547"/>
      <use xlink:href="#DejaVuSans-30" x="572.558594"/>
      <use xlink:href="#DejaVuSans-20" x="636.181641"/>
      <use xlink:href="#DejaVuSans-62" x="667.96875"/>
     </g>
    </g>
    <g id="patch_2">
     <path d="M 55.548424 9.27291 
L 801.392378 9.27291 
" clip-path="url(#pdf769572bb)" style="fill: none; stroke: #000000; stroke-width: 0.8; stroke-linecap: square"/>
    </g>
   </g>
   <g id="text_9">
    <!-- chr10 -->
    <g transform="translate(406.966494 53.456528)scale(0.15 -0.15)">
     <defs>
      <path id="DejaVuSans-63" d="M 3122 3366 
L 3122 2828 
Q 2878 2963 2633 3030 
Q 2388 3097 2138 3097 
Q 1578 3097 1268 2742 
Q 959 2388 959 1747 
Q 959 1106 1268 751 
Q 1578 397 2138 397 
Q 2388 397 2633 464 
Q 2878 531 3122 666 
L 3122 134 
Q 2881 22 2623 -34 
Q 2366 -91 2075 -91 
Q 1284 -91 818 406 
Q 353 903 353 1747 
Q 353 2603 823 3093 
Q 1294 3584 2113 3584 
Q 2378 3584 2631 3529 
Q 2884 3475 3122 3366 
z
" transform="scale(0.015625)"/>
      <path id="DejaVuSans-68" d="M 3513 2113 
L 3513 0 
L 2938 0 
L 2938 2094 
Q 2938 2591 2744 2837 
Q 2550 3084 2163 3084 
Q 1697 3084 1428 2787 
Q 1159 2491 1159 1978 
L 1159 0 
L 581 0 
L 581 4863 
L 1159 4863 
L 1159 2956 
Q 1366 3272 1645 3428 
Q 1925 3584 2291 3584 
Q 2894 3584 3203 3211 
Q 3513 2838 3513 2113 
z
" transform="scale(0.015625)"/>
      <path id="DejaVuSans-72" d="M 2631 2963 
Q 2534 3019 2420 3045 
Q 2306 3072 2169 3072 
Q 1681 3072 1420 2755 
Q 1159 2438 1159 1844 
L 1159 0 
L 581 0 
L 581 3500 
L 1159 3500 
L 1159 2956 
Q 1341 3275 1631 3429 
Q 1922 3584 2338 3584 
Q 2397 3584 2469 3576 
Q 2541 3569 2628 3553 
L 2631 2963 
z
" transform="scale(0.015625)"/>
     </defs>
     <use xlink:href="#DejaVuSans-63"/>
     <use xlink:href="#DejaVuSans-68" x="54.980469"/>
     <use xlink:href="#DejaVuSans-72" x="118.359375"/>
     <use xlink:href="#DejaVuSans-31" x="159.472656"/>
     <use xlink:href="#DejaVuSans-30" x="223.095703"/>
    </g>
   </g>
  </g>
  <g id="axes_2"/>
  <g id="axes_3"/>
  <g id="axes_4"/>
  <g id="axes_5"/>
  <g id="axes_6"/>
  <g id="axes_7">
   <g id="PolyCollection_1">
    <defs>
     <path id="mc67b9e745a" d="M 55.548424 -3.957949 
L 55.548424 -3.957949 
L 64.427518 -3.957949 
L 64.427518 -3.957949 
L 73.306613 -3.957949 
L 73.306613 -3.957949 
L 82.185708 -3.957949 
L 82.185708 -3.957949 
L 91.064802 -3.957949 
L 91.064802 -3.957949 
L 99.943897 -3.957949 
L 99.943897 -46.672211 
L 108.822992 -46.672211 
L 108.822992 -3.957949 
L 117.702086 -3.957949 
L 117.702086 -3.957949 
L 126.581181 -3.957949 
L 126.581181 -3.957949 
L 135.460276 -3.957949 
L 135.460276 -3.957949 
L 144.33937 -3.957949 
L 144.33937 -3.957949 
L 153.218465 -3.957949 
L 153.218465 -3.957949 
L 162.09756 -3.957949 
L 162.09756 -3.957949 
L 170.976655 -3.957949 
L 170.976655 -3.957949 
L 179.855749 -3.957949 
L 179.855749 -3.957949 
L 188.734844 -3.957949 
L 188.734844 -3.957949 
L 197.613939 -3.957949 
L 197.613939 -3.957949 
L 206.493033 -3.957949 
L 206.493033 -3.957949 
L 215.372128 -3.957949 
L 215.372128 -3.957949 
L 224.251223 -3.957949 
L 224.251223 -3.957949 
L 233.130317 -3.957949 
L 233.130317 -3.957949 
L 242.009412 -3.957949 
L 242.009412 -3.957949 
L 250.888507 -3.957949 
L 250.888507 -3.957949 
L 259.767601 -3.957949 
L 259.767601 -3.957949 
L 268.646696 -3.957949 
L 268.646696 -3.957949 
L 277.525791 -3.957949 
L 277.525791 -3.957949 
L 286.404886 -3.957949 
L 286.404886 -3.957949 
L 295.28398 -3.957949 
L 295.28398 -3.957949 
L 304.163075 -3.957949 
L 304.163075 -3.957949 
L 313.04217 -3.957949 
L 313.04217 -3.957949 
L 321.921264 -3.957949 
L 321.921264 -57.9512 
L 330.800359 -57.9512 
L 330.800359 -3.957949 
L 339.679454 -3.957949 
L 339.679454 -3.957949 
L 348.558548 -3.957949 
L 348.558548 -3.957949 
L 357.437643 -3.957949 
L 357.437643 -3.957949 
L 366.316738 -3.957949 
L 366.316738 -3.957949 
L 375.195832 -3.957949 
L 375.195832 -3.957949 
L 384.074927 -3.957949 
L 384.074927 -3.957949 
L 392.954022 -3.957949 
L 392.954022 -3.957949 
L 401.833117 -3.957949 
L 401.833117 -3.957949 
L 410.712211 -3.957949 
L 410.712211 -3.957949 
L 419.591306 -3.957949 
L 419.591306 -3.957949 
L 428.470401 -3.957949 
L 428.470401 -3.957949 
L 437.349495 -3.957949 
L 437.349495 -3.957949 
L 446.22859 -3.957949 
L 446.22859 -3.957949 
L 455.107685 -3.957949 
L 455.107685 -3.957949 
L 463.986779 -3.957949 
L 463.986779 -3.957949 
L 472.865874 -3.957949 
L 472.865874 -3.957949 
L 481.744969 -3.957949 
L 481.744969 -3.957949 
L 490.624063 -3.957949 
L 490.624063 -3.957949 
L 499.503158 -3.957949 
L 499.503158 -3.957949 
L 508.382253 -3.957949 
L 508.382253 -3.957949 
L 517.261348 -3.957949 
L 517.261348 -3.957949 
L 526.140442 -3.957949 
L 526.140442 -3.957949 
L 535.019537 -3.957949 
L 535.019537 -3.957949 
L 543.898632 -3.957949 
L 543.898632 -3.957949 
L 552.777726 -3.957949 
L 552.777726 -3.957949 
L 561.656821 -3.957949 
L 561.656821 -3.957949 
L 570.535916 -3.957949 
L 570.535916 -3.957949 
L 579.41501 -3.957949 
L 579.41501 -3.957949 
L 588.294105 -3.957949 
L 588.294105 -3.957949 
L 597.1732 -3.957949 
L 597.1732 -3.957949 
L 606.052294 -3.957949 
L 606.052294 -3.957949 
L 614.931389 -3.957949 
L 614.931389 -3.957949 
L 623.810484 -3.957949 
L 623.810484 -3.957949 
L 632.689578 -3.957949 
L 632.689578 -3.957949 
L 641.568673 -3.957949 
L 641.568673 -3.957949 
L 650.447768 -3.957949 
L 650.447768 -3.957949 
L 659.326863 -3.957949 
L 659.326863 -3.957949 
L 668.205957 -3.957949 
L 668.205957 -3.957949 
L 677.085052 -3.957949 
L 677.085052 -3.957949 
L 685.964147 -3.957949 
L 685.964147 -3.957949 
L 694.843241 -3.957949 
L 694.843241 -3.957949 
L 703.722336 -3.957949 
L 703.722336 -3.957949 
L 712.601431 -3.957949 
L 712.601431 -3.957949 
L 721.480525 -3.957949 
L 721.480525 -3.957949 
L 730.35962 -3.957949 
L 730.35962 -3.957949 
L 739.238715 -3.957949 
L 739.238715 -3.957949 
L 748.117809 -3.957949 
L 748.117809 -3.957949 
L 756.996904 -3.957949 
L 756.996904 -3.957949 
L 801.392378 -3.957949 
L 801.392378 -3.957949 
L 801.392378 -3.957949 
L 756.996904 -3.957949 
L 756.996904 -3.957949 
L 748.117809 -3.957949 
L 748.117809 -3.957949 
L 739.238715 -3.957949 
L 739.238715 -3.957949 
L 730.35962 -3.957949 
L 730.35962 -3.957949 
L 721.480525 -3.957949 
L 721.480525 -3.957949 
L 712.601431 -3.957949 
L 712.601431 -3.957949 
L 703.722336 -3.957949 
L 703.722336 -3.957949 
L 694.843241 -3.957949 
L 694.843241 -3.957949 
L 685.964147 -3.957949 
L 685.964147 -3.957949 
L 677.085052 -3.957949 
L 677.085052 -3.957949 
L 668.205957 -3.957949 
L 668.205957 -3.957949 
L 659.326863 -3.957949 
L 659.326863 -3.957949 
L 650.447768 -3.957949 
L 650.447768 -3.957949 
L 641.568673 -3.957949 
L 641.568673 -3.957949 
L 632.689578 -3.957949 
L 632.689578 -3.957949 
L 623.810484 -3.957949 
L 623.810484 -3.957949 
L 614.931389 -3.957949 
L 614.931389 -3.957949 
L 606.052294 -3.957949 
L 606.052294 -3.957949 
L 597.1732 -3.957949 
L 597.1732 -3.957949 
L 588.294105 -3.957949 
L 588.294105 -3.957949 
L 579.41501 -3.957949 
L 579.41501 -3.957949 
L 570.535916 -3.957949 
L 570.535916 -3.957949 
L 561.656821 -3.957949 
L 561.656821 -3.957949 
L 552.777726 -3.957949 
L 552.777726 -3.957949 
L 543.898632 -3.957949 
L 543.898632 -3.957949 
L 535.019537 -3.957949 
L 535.019537 -3.957949 
L 526.140442 -3.957949 
L 526.140442 -3.957949 
L 517.261348 -3.957949 
L 517.261348 -3.957949 
L 508.382253 -3.957949 
L 508.382253 -3.957949 
L 499.503158 -3.957949 
L 499.503158 -3.957949 
L 490.624063 -3.957949 
L 490.624063 -3.957949 
L 481.744969 -3.957949 
L 481.744969 -3.957949 
L 472.865874 -3.957949 
L 472.865874 -3.957949 
L 463.986779 -3.957949 
L 463.986779 -3.957949 
L 455.107685 -3.957949 
L 455.107685 -3.957949 
L 446.22859 -3.957949 
L 446.22859 -3.957949 
L 437.349495 -3.957949 
L 437.349495 -3.957949 
L 428.470401 -3.957949 
L 428.470401 -3.957949 
L 419.591306 -3.957949 
L 419.591306 -3.957949 
L 410.712211 -3.957949 
L 410.712211 -3.957949 
L 401.833117 -3.957949 
L 401.833117 -3.957949 
L 392.954022 -3.957949 
L 392.954022 -3.957949 
L 384.074927 -3.957949 
L 384.074927 -3.957949 
L 375.195832 -3.957949 
L 375.195832 -3.957949 
L 366.316738 -3.957949 
L 366.316738 -3.957949 
L 357.437643 -3.957949 
L 357.437643 -3.957949 
L 348.558548 -3.957949 
L 348.558548 -3.957949 
L 339.679454 -3.957949 
L 339.679454 -3.957949 
L 330.800359 -3.957949 
L 330.800359 -3.957949 
L 321.921264 -3.957949 
L 321.921264 -3.957949 
L 313.04217 -3.957949 
L 313.04217 -3.957949 
L 304.163075 -3.957949 
L 304.163075 -3.957949 
L 295.28398 -3.957949 
L 295.28398 -3.957949 
L 286.404886 -3.957949 
L 286.404886 -3.957949 
L 277.525791 -3.957949 
L 277.525791 -3.957949 
L 268.646696 -3.957949 
L 268.646696 -3.957949 
L 259.767601 -3.957949 
L 259.767601 -3.957949 
L 250.888507 -3.957949 
L 250.888507 -3.957949 
L 242.009412 -3.957949 
L 242.009412 -3.957949 
L 233.130317 -3.957949 
L 233.130317 -3.957949 
L 224.251223 -3.957949 
L 224.251223 -3.957949 
L 215.372128 -3.957949 
L 215.372128 -3.957949 
L 206.493033 -3.957949 
L 206.493033 -3.957949 
L 197.613939 -3.957949 
L 197.613939 -3.957949 
L 188.734844 -3.957949 
L 188.734844 -3.957949 
L 179.855749 -3.957949 
L 179.855749 -3.957949 
L 170.976655 -3.957949 
L 170.976655 -3.957949 
L 162.09756 -3.957949 
L 162.09756 -3.957949 
L 153.218465 -3.957949 
L 153.218465 -3.957949 
L 144.33937 -3.957949 
L 144.33937 -3.957949 
L 135.460276 -3.957949 
L 135.460276 -3.957949 
L 126.581181 -3.957949 
L 126.581181 -3.957949 
L 117.702086 -3.957949 
L 117.702086 -3.957949 
L 108.822992 -3.957949 
L 108.822992 -3.957949 
L 99.943897 -3.957949 
L 99.943897 -3.957949 
L 91.064802 -3.957949 
L 91.064802 -3.957949 
L 82.185708 -3.957949 
L 82.185708 -3.957949 
L 73.306613 -3.957949 
L 73.306613 -3.957949 
L 64.427518 -3.957949 
L 64.427518 -3.957949 
L 55.548424 -3.957949 
z
" style="stroke: #008000; stroke-width: 0.1"/>
    </defs>
    <g clip-path="url(#pf68aac0682)">
     <use xlink:href="#mc67b9e745a" x="0" y="131.931647" style="fill: #008000; stroke: #008000; stroke-width: 0.1"/>
    </g>
   </g>
  </g>
  <g id="axes_8">
   <g id="line2d_1">
    <path d="M 43.086614 127.406768 
L 47.748139 127.406768 
L 47.748139 71.847713 
L 43.086614 71.847713 
" clip-path="url(#p63cf88f7b6)" style="fill: none; stroke: #000000; stroke-linecap: square"/>
   </g>
   <g id="text_10">
    <!-- 0 -->
    <g transform="translate(28.497004 124.381252)scale(0.2 -0.2)">
     <use xlink:href="#DejaVuSans-30"/>
    </g>
   </g>
   <g id="text_11">
    <!-- 1.837 -->
    <g transform="translate(-16.034246 86.477659)scale(0.2 -0.2)">
     <defs>
      <path id="DejaVuSans-2e" d="M 684 794 
L 1344 794 
L 1344 0 
L 684 0 
L 684 794 
z
" transform="scale(0.015625)"/>
      <path id="DejaVuSans-33" d="M 2597 2516 
Q 3050 2419 3304 2112 
Q 3559 1806 3559 1356 
Q 3559 666 3084 287 
Q 2609 -91 1734 -91 
Q 1441 -91 1130 -33 
Q 819 25 488 141 
L 488 750 
Q 750 597 1062 519 
Q 1375 441 1716 441 
Q 2309 441 2620 675 
Q 2931 909 2931 1356 
Q 2931 1769 2642 2001 
Q 2353 2234 1838 2234 
L 1294 2234 
L 1294 2753 
L 1863 2753 
Q 2328 2753 2575 2939 
Q 2822 3125 2822 3475 
Q 2822 3834 2567 4026 
Q 2313 4219 1838 4219 
Q 1578 4219 1281 4162 
Q 984 4106 628 3988 
L 628 4550 
Q 988 4650 1302 4700 
Q 1616 4750 1894 4750 
Q 2613 4750 3031 4423 
Q 3450 4097 3450 3541 
Q 3450 3153 3228 2886 
Q 3006 2619 2597 2516 
z
" transform="scale(0.015625)"/>
     </defs>
     <use xlink:href="#DejaVuSans-31"/>
     <use xlink:href="#DejaVuSans-2e" x="63.623047"/>
     <use xlink:href="#DejaVuSans-38" x="95.410156"/>
     <use xlink:href="#DejaVuSans-33" x="159.033203"/>
     <use xlink:href="#DejaVuSans-37" x="222.65625"/>
    </g>
   </g>
  </g>
  <g id="axes_9">
   <g id="text_12">
    <!-- Mirlet7i -->
    <g transform="translate(813.854187 106.249741)scale(0.24 -0.24)">
     <defs>
      <path id="DejaVuSans-4d" d="M 628 4666 
L 1569 4666 
L 2759 1491 
L 3956 4666 
L 4897 4666 
L 4897 0 
L 4281 0 
L 4281 4097 
L 3078 897 
L 2444 897 
L 1241 4097 
L 1241 0 
L 628 0 
L 628 4666 
z
" transform="scale(0.015625)"/>
      <path id="DejaVuSans-69" d="M 603 3500 
L 1178 3500 
L 1178 0 
L 603 0 
L 603 3500 
z
M 603 4863 
L 1178 4863 
L 1178 4134 
L 603 4134 
L 603 4863 
z
" transform="scale(0.015625)"/>
      <path id="DejaVuSans-6c" d="M 603 4863 
L 1178 4863 
L 1178 0 
L 603 0 
L 603 4863 
z
" transform="scale(0.015625)"/>
      <path id="DejaVuSans-65" d="M 3597 1894 
L 3597 1613 
L 953 1613 
Q 991 1019 1311 708 
Q 1631 397 2203 397 
Q 2534 397 2845 478 
Q 3156 559 3463 722 
L 3463 178 
Q 3153 47 2828 -22 
Q 2503 -91 2169 -91 
Q 1331 -91 842 396 
Q 353 884 353 1716 
Q 353 2575 817 3079 
Q 1281 3584 2069 3584 
Q 2775 3584 3186 3129 
Q 3597 2675 3597 1894 
z
M 3022 2063 
Q 3016 2534 2758 2815 
Q 2500 3097 2075 3097 
Q 1594 3097 1305 2825 
Q 1016 2553 972 2059 
L 3022 2063 
z
" transform="scale(0.015625)"/>
      <path id="DejaVuSans-74" d="M 1172 4494 
L 1172 3500 
L 2356 3500 
L 2356 3053 
L 1172 3053 
L 1172 1153 
Q 1172 725 1289 603 
Q 1406 481 1766 481 
L 2356 481 
L 2356 0 
L 1766 0 
Q 1100 0 847 248 
Q 594 497 594 1153 
L 594 3053 
L 172 3053 
L 172 3500 
L 594 3500 
L 594 4494 
L 1172 4494 
z
" transform="scale(0.015625)"/>
     </defs>
     <use xlink:href="#DejaVuSans-4d"/>
     <use xlink:href="#DejaVuSans-69" x="86.279297"/>
     <use xlink:href="#DejaVuSans-72" x="114.0625"/>
     <use xlink:href="#DejaVuSans-6c" x="155.175781"/>
     <use xlink:href="#DejaVuSans-65" x="182.958984"/>
     <use xlink:href="#DejaVuSans-74" x="244.482422"/>
     <use xlink:href="#DejaVuSans-37" x="283.691406"/>
     <use xlink:href="#DejaVuSans-69" x="347.314453"/>
    </g>
   </g>
  </g>
 </g>
 <defs>
  <clipPath id="pdf769572bb">
   <rect x="55.548424" y="3.957949" width="745.843954" height="53.149606"/>
  </clipPath>
  <clipPath id="pf68aac0682">
   <rect x="55.548424" y="71.280784" width="745.843954" height="56.692913"/>
  </clipPath>
  <clipPath id="p63cf88f7b6">
   <rect x="43.086614" y="71.280784" width="9.323049" height="56.692913"/>
  </clipPath>
 </defs>
</svg>
